SplineFontDB: 2.0
FontName: TlwgTypist-BoldOblique
FullName: Tlwg Typist Bold Oblique
FamilyName: Tlwg Typist
Weight: Bold
Copyright: Tlwg Typist, based on Poonlap Veerathanabutr's Tlwg Typewriter.\n\nCopyright (C) 2005-2006 Theppitak Karoonboonyanan.\n\nTlwg Typewriter, Free Thai Pseudo Monospace outline font.\n\nCopyright (C) 2003, 2004 Poonlap Veerathanabutr <poonlap@linux.thai.net>
Comments: 2003-11-20: Created. \nPfaEdit 1.0 (http://pfaedit.sf.net).\n\nTLWG is Thai Linux Working Group http://linux.thai.net\n\nImported ISO-8859-1 from FreeMono.sfd.\nhttp://www.nongnu.org/freefont/\n\n2003-11-22: first release\n\n2003-11-25: Fixed vowel and tone marks' level.
Version: 001.005: 2007-05-20
ItalicAngle: -12
UnderlinePosition: -100
UnderlineWidth: 50
Ascent: 800
Descent: 200
NeedsXUIDChange: 1
FSType: 0
OS2Version: 0
OS2_WeightWidthSlopeOnly: 0
OS2_UseTypoMetrics: 0
CreationTime: 1153664121
ModificationTime: 1179644028
PfmFamily: 49
TTFWeight: 700
TTFWidth: 5
LineGap: 90
VLineGap: 0
Panose: 2 0 6 3 0 0 0 0 0 0
OS2TypoAscent: 0
OS2TypoAOffset: 1
OS2TypoDescent: 0
OS2TypoDOffset: 1
OS2TypoLinegap: 90
OS2WinAscent: 0
OS2WinAOffset: 1
OS2WinDescent: 0
OS2WinDOffset: 1
HheadAscent: 0
HheadAOffset: 1
HheadDescent: 0
HheadDOffset: 1
OS2Vendor: 'PfEd'
Lookup: 6 0 0 "'ccmp' Glyph Composition/Decomposition in Thai lookup 0"  {"'ccmp' Glyph Composition/Decomposition in Thai lookup 0"  } ['ccmp' ('thai' <'KUY ' 'PAL ' 'THA ' 'dflt' > ) ]
Lookup: 6 0 0 "'ccmp' Glyph Composition/Decomposition in Thai lookup 1"  {"'ccmp' Glyph Composition/Decomposition in Thai lookup 1"  } ['ccmp' ('thai' <'KUY ' 'PAL ' 'THA ' 'dflt' > ) ]
Lookup: 4 8 1 "'liga' Standard Ligatures lookup 2"  {"'liga' Standard Ligatures lookup 2"  } ['liga' ('DFLT' <'dflt' > ) ]
Lookup: 4 8 0 "'frac' Diagonal Fractions lookup 3"  {"'frac' Diagonal Fractions lookup 3"  } ['frac' ('DFLT' <'dflt' > ) ]

StartChar: mu
Encoding: 116 181 0
Width: 600
Flags: W
HStem: -16 100<226.237 372.242> 337 100<137.595 167 433.713 482>
Fore
194 -7 m 1
 177 -87 l 2
 171 -113 167 -122 158 -132 c 0
 145 -145 128 -153 112 -153 c 0
 95 -153 81 -144 75 -129 c 0
 71 -121 72 -110 77 -87 c 2
 167 337 l 1
 151 337 l 2
 126 337 115 339 107 347 c 0
 97 356 92 372 95 387 c 0
 99 404 111 421 128 430 c 0
 140 436 145 437 172 437 c 2
 288 437 l 1
 226 144 l 2
 216 101 232 84 278 84 c 0
 322 84 367 99 439 138 c 1
 482 337 l 1
 447 337 l 2
 422 337 411 339 404 347 c 1
 393 356 388 372 391 387 c 0
 395 404 407 421 424 430 c 0
 435 436 444 437 468 437 c 2
 603 437 l 1
 531 100 l 1
 570 100 588 82 582 50 c 0
 578 33 566 17 548 7 c 0
 539 2 526 0 505 0 c 2
 410 0 l 1
 415 22 l 1
 355 -4 302 -16 250 -16 c 0
 229 -16 212 -13 194 -7 c 1
EndSplineSet
EndChar
StartChar: uni0E31
Encoding: 239 3633 1
Width: 0
Flags: W
HStem: 484 64<-159.023 -70.9471> 615 56<-154.805 -100.58>
VStem: -218 58<548.057 610.769> -100 57<572.172 614.322>
AnchorPoint: "AboveMark" 18.79 700 basemark 0
AnchorPoint: "AboveBase" 6.27832 500 mark 0
Fore
-138 548 m 0
 -120 548 -100 569 -100 591 c 0
 -100 605 -109 615 -123 615 c 0
 -140 615 -160 599 -160 574 c 0
 -160 559 -151 548 -138 548 c 0
-218 558 m 0
 -218 623 -163 671 -111 671 c 16
 -67 671 -43 637 -43 600 c 0
 -43 587 -46 575 -51 566 c 1
 7 572 63 638 92 665 c 9
 132 605 l 17
 70 536 -34 484 -107 484 c 0
 -170 484 -218 503 -218 558 c 0
EndSplineSet
EndChar
StartChar: uni0E34
Encoding: 242 3636 2
Width: 0
Flags: W
HStem: 552 42<-280 -121.949> 621 50<-266.56 -109.056>
VStem: -378 375<500 550>
AnchorPoint: "AboveMark" 8.79004 700 basemark 0
AnchorPoint: "AboveBase" 6.27832 500 mark 0
Fore
-3 500 m 1
 -90 522 -166 552 -308 552 c 0
 -349 552 -378 550 -378 550 c 1
 -378 550 -290 671 -190 671 c 0
 8 671 -3 500 -3 500 c 1
-280 594 m 1
 -274 594 -268 595 -261 595 c 0
 -206 595 -120 572 -69 563 c 1
 -85 589 -119 621 -201 621 c 0
 -230 621 -259 606 -280 594 c 1
EndSplineSet
EndChar
StartChar: uni0E35
Encoding: 243 3637 3
Width: 0
Flags: W
HStem: 552 42<-280 -214.112> 621 50<-266.56 -99.8334>
VStem: -378 425<550 697>
AnchorPoint: "AboveMark" 5.79004 700 basemark 0
AnchorPoint: "AboveBase" 6.27832 500 mark 0
Fore
-280 594 m 1
 -274 594 -268 595 -261 595 c 0
 -228 595 -184 590 -139 576 c 2
 -107 571 -76 564 -55 559 c 1
 -72 586 -111 621 -201 621 c 0
 -230 621 -259 606 -280 594 c 1
11 500 m 1
 -176 541 -192 552 -308 552 c 0
 -349 552 -378 550 -378 550 c 1
 -378 550 -290 671 -190 671 c 0
 -113 671 -68 647 -41 617 c 1
 -24 697 l 1
 47 697 l 1
 10 523 l 1
 12 509 11 500 11 500 c 1
EndSplineSet
EndChar
StartChar: uni0E36
Encoding: 244 3638 4
Width: 0
Flags: W
HStem: 545 37<-10 26.9751> 552 42<-280 -214.112> 621 50<-266.56 -100.11> 641 41<-38.376 30.2764>
VStem: 31 42<585.608 640.578>
AnchorPoint: "AboveMark" 19.79 700 basemark 0
AnchorPoint: "AboveBase" 6.27832 500 mark 0
Fore
-280 594 m 1x68
 -274 594 -268 595 -261 595 c 0
 -228 595 -184 590 -139 576 c 2
 -107 571 -76 564 -55 559 c 1
 -72 586 -111 621 -201 621 c 0
 -230 621 -259 606 -280 594 c 1x68
73 626 m 0
 73 581 30 547 -10 545 c 1x98
 -4 528 -3 513 -3 505 c 2
 -3 500 l 1
 -169 540 -188 552 -308 552 c 0
 -349 552 -378 550 -378 550 c 1
 -378 550 -290 671 -190 671 c 0x68
 -127 671 -87 655 -58 634 c 1
 -46 661 -15 682 16 682 c 0x18
 50 682 73 658 73 626 c 0
-6 582 m 0
 16 582 31 601 31 617 c 0
 31 630 22 641 6 641 c 0
 -15 641 -46 628 -46 607 c 0
 -46 592 -28 582 -6 582 c 0
EndSplineSet
EndChar
StartChar: uni0E37
Encoding: 245 3639 5
Width: 0
Flags: W
HStem: 552 42<-280 -214.112> 621 50<-266.56 -124.067>
VStem: -378 414<550 695>
AnchorPoint: "AboveMark" -28.21 700 basemark 0
AnchorPoint: "AboveBase" 6.27832 500 mark 0
Fore
-280 594 m 1
 -274 594 -268 595 -261 595 c 0
 -228 595 -184 590 -139 576 c 2
 -106 571 -73 564 -51 559 c 1
 -69 586 -109 621 -201 621 c 0
 -230 621 -259 606 -280 594 c 1
-2 500 m 1
 -169 540 -187 552 -308 552 c 0
 -349 552 -378 550 -378 550 c 1
 -378 550 -290 671 -190 671 c 0
 -154 671 -126 665 -103 654 c 1
 -94 695 l 1
 -32 695 l 1
 -46 630 l 1
 -45 627 -44 623 -42 619 c 1
 -26 695 l 1
 36 695 l 1
 -3 513 l 1
 -3 505 -2 500 -2 500 c 1
EndSplineSet
EndChar
StartChar: uni0E47
Encoding: 261 3655 6
Width: 0
Flags: W
HStem: 486 38<-73.294 -21.7153> 547 50<-167.427 -120.815> 571 36<-72.7969 -21.3577> 625 45<-127.08 -4.84702> 642 50<-182.018 -43.7894>
VStem: -277 76<557.206 624.183> -176 102<480 544> -21 36<526.378 570.649>
AnchorPoint: "AboveBase" 6.27832 500 mark 0
AnchorPoint: "AboveMark" -146.722 500 mark 0
Fore
-53 524 m 0xa7
 -40 524 -21 535 -21 551 c 0
 -21 562 -31 571 -43 571 c 0
 -59 571 -74 555 -74 544 c 0
 -74 533 -65 524 -53 524 c 0xa7
-134 642 m 0x8f
 -173 642 -201 610 -201 578 c 0
 -201 564 -195 553 -177 549 c 1
 -180 570 -161 597 -134 597 c 0xcf
 -120 597 -109 584 -97 568 c 1
 -86 591 -61 607 -35 607 c 0xa7
 -5 607 15 587 15 559 c 0
 15 521 -22 486 -57 486 c 0
 -108 486 -126 547 -145 547 c 0
 -159 547 -176 522 -176 480 c 2
 -176 470 l 1
 -237 470 -277 514 -277 568 c 0
 -277 642 -203 692 -123 692 c 0xcf
 -90 692 -75 670 -42 670 c 0
 -7 670 -6 680 1 714 c 1
 74 705 l 1
 60 641 38 625 -42 625 c 0x97
 -86 625 -106 642 -134 642 c 0x8f
EndSplineSet
EndChar
StartChar: uni0E48
Encoding: 262 3656 7
Width: 0
Flags: W
VStem: -25 117<679 892>
AnchorPoint: "AboveMark" 8.79004 700 mark 0
Fore
21 892 m 1
 92 892 l 1
 46 679 l 1
 -25 679 l 1
 21 892 l 1
EndSplineSet
Substitution2: "Single Substitution lookup 11" uni0E48.low
MultipleSubs2: "Multiple Substitution lookup 10" uni0E4D uni0E48
EndChar
StartChar: uni0E49
Encoding: 263 3657 8
Width: 0
Flags: W
HStem: 696 95<-162 -63.3707> 844 31<-88.1672 -46.1601>
VStem: -126 36<795.365 842.645> -46 35<803.165 839.158>
AnchorPoint: "AboveMark" 8.79004 700 mark 0
Fore
-63 844 m 0
 -74 844 -90 831 -90 812 c 0
 -90 800 -83 791 -74 791 c 0
 -62 791 -46 808 -46 825 c 0
 -46 835 -54 844 -63 844 c 0
-126 803 m 0
 -126 847 -88 875 -56 875 c 0
 -29 875 -11 856 -11 831 c 0
 -11 820 -15 804 -25 794 c 2
 -32 780 -44 764 -63 746 c 1
 24 761 78 806 107 869 c 1
 184 867 l 1
 120 742 -2 696 -162 696 c 1
 -153 740 l 1
 -136 750 -123 759 -111 768 c 1
 -120 773 -126 786 -126 803 c 0
EndSplineSet
Substitution2: "Single Substitution lookup 11" uni0E49.low
MultipleSubs2: "Multiple Substitution lookup 10" uni0E4D uni0E49
EndChar
StartChar: uni0E4B
Encoding: 265 3659 9
Width: 0
Flags: W
HStem: 751 61<-53 -16 68 105>
VStem: -66 184<751 812>
AnchorPoint: "AboveMark" 8.79004 700 mark 0
Fore
-16 751 m 1
 -66 751 l 1
 -53 812 l 1
 -3 812 l 1
 8 866 l 1
 79 866 l 1
 68 812 l 1
 118 812 l 1
 105 751 l 1
 55 751 l 1
 44 700 l 1
 -27 700 l 1
 -16 751 l 1
EndSplineSet
Substitution2: "Single Substitution lookup 11" uni0E4B.low
MultipleSubs2: "Multiple Substitution lookup 10" uni0E4D uni0E4B
EndChar
StartChar: uni0E4C
Encoding: 266 3660 10
Width: 0
Flags: W
HStem: 686 35<-18.7431 22.6099>
VStem: -54 35<725.638 769.2> 24 36<722.391 764.604>
AnchorPoint: "AboveMark" -5.20996 700 mark 0
Fore
8 770 m 0
 -5 770 -19 757 -19 740 c 0
 -19 730 -12 721 -3 721 c 0
 9 721 24 735 24 750 c 0
 24 761 18 770 8 770 c 0
60 756 m 0
 60 728 30 686 -10 686 c 0
 -37 686 -54 706 -54 733 c 0
 -54 758 -41 773 -28 785 c 0
 4 821 91 830 102 879 c 1
 163 870 l 1
 152 820 97 794 51 783 c 1
 56 775 60 766 60 756 c 0
EndSplineSet
Substitution2: "Single Substitution lookup 11" uni0E4C.low
MultipleSubs2: "Multiple Substitution lookup 10" uni0E4D uni0E4C
EndChar
StartChar: exclam
Encoding: 1 33 12
Width: 600
Flags: W
HStem: -15 132<262.623 289 289 358.859> 618 20G<413.5 460>
VStem: 236 264<51 558>
Fore
491 525 m 1
 398 228 l 2
 389 197 367 179 339 179 c 0
 311 179 296 198 299 228 c 2
 334 525 l 1
 335 537 337 551 339 558 c 0
 348 604 390 638 437 638 c 0
 483 638 509 604 500 558 c 0
 498 552 494 538 491 525 c 1
306 -15 m 2
 289 -15 l 2
 252 -15 228 15 236 51 c 0
 243 87 280 117 317 117 c 2
 334 117 l 2
 371 117 394 88 386 51 c 0
 378 14 343 -15 306 -15 c 2
EndSplineSet
EndChar
StartChar: quotedbl
Encoding: 2 34 13
Width: 600
Flags: W
VStem: 244 348<347 602>
Fore
264 602 m 1
 392 602 l 1
 307 348 l 1
 297 322 287 312 267 312 c 0
 248 312 241 322 244 347 c 1
 264 602 l 1
464 602 m 1
 592 602 l 1
 507 348 l 1
 497 322 487 312 467 312 c 0
 448 312 441 322 444 347 c 1
 464 602 l 1
EndSplineSet
EndChar
StartChar: numbersign
Encoding: 3 35 14
Width: 600
Flags: W
HStem: 139 99<143.901 184 312 356 483 514.159> 344 100<207.715 241 370 413 541 578.119>
Fore
541 444 m 1
 566 444 l 2
 593 444 601 442 609 435 c 0
 620 425 625 410 622 394 c 0
 618 377 606 360 589 351 c 0
 579 346 569 344 545 344 c 2
 513 344 l 1
 483 238 l 1
 502 238 l 2
 529 238 538 236 546 229 c 0
 557 219 561 204 558 188 c 0
 554 171 542 155 525 146 c 0
 515 141 505 139 482 139 c 2
 455 139 l 1
 408 -29 l 2
 404 -44 392 -67 385 -73 c 0
 373 -85 356 -92 342 -92 c 0
 315 -92 297 -67 304 -41 c 1
 323 17 338 80 356 139 c 1
 284 139 l 1
 236 -29 l 1
 227 -70 205 -92 172 -92 c 0
 143 -92 127 -70 133 -40 c 0
 134 -36 136 -29 138 -22 c 1
 184 139 l 1
 158 139 l 2
 133 139 123 141 114 148 c 0
 104 158 99 173 102 189 c 0
 106 205 118 222 135 231 c 0
 145 237 153 238 179 238 c 2
 212 238 l 1
 241 344 l 1
 222 344 l 2
 195 344 187 346 178 353 c 0
 167 363 163 379 166 394 c 0
 169 411 182 428 199 437 c 0
 209 443 216 444 243 444 c 2
 269 444 l 1
 317 612 l 1
 324 638 327 645 337 656 c 0
 350 668 366 675 381 675 c 0
 410 675 427 651 420 623 c 1
 404 562 387 504 370 444 c 1
 441 444 l 1
 489 612 l 1
 496 640 499 646 509 656 c 0
 522 668 538 675 553 675 c 0
 579 675 600 650 593 627 c 2
 587 605 l 1
 541 444 l 1
413 344 m 1
 342 344 l 1
 312 238 l 1
 384 238 l 1
 413 344 l 1
EndSplineSet
EndChar
StartChar: dollar
Encoding: 4 36 15
Width: 600
Flags: W
Fore
482 618 m 2
 477 592 l 1
 496 588 501 588 519 582 c 2
 532 577 l 2
 532 576 536 575 540 574 c 1
 552 579 560 581 569 581 c 0
 596 581 612 563 609 536 c 0
 608 528 607 524 605 515 c 2
 599 483 l 2
 593 457 589 447 580 438 c 0
 567 424 551 417 535 417 c 0
 508 417 492 432 492 459 c 0
 493 478 456 495 415 495 c 0
 355 495 311 470 303 433 c 0
 297 406 317 387 366 377 c 2
 428 363 l 2
 487 350 520 334 540 308 c 0
 562 281 568 242 559 199 c 0
 541 112 465 47 357 27 c 1
 339 -56 l 2
 333 -84 330 -92 320 -102 c 0
 308 -115 291 -123 276 -123 c 0
 259 -123 244 -114 238 -99 c 0
 234 -90 235 -81 240 -56 c 2
 258 27 l 1
 218 36 213 38 184 52 c 1
 165 38 155 34 141 34 c 0
 123 34 109 43 102 58 c 0
 99 67 99 76 104 101 c 2
 117 162 l 2
 123 189 127 198 136 208 c 0
 149 221 166 229 182 229 c 0
 195 229 207 223 215 215 c 1
 220 207 220 207 222 180 c 0
 224 149 271 124 326 124 c 0
 391 124 446 157 456 200 c 0
 463 235 443 254 389 265 c 2
 319 280 l 2
 224 300 182 354 199 435 c 0
 216 513 289 577 378 592 c 1
 383 618 l 2
 389 645 393 653 402 664 c 1
 415 676 431 684 447 684 c 0
 464 684 478 675 484 660 c 0
 488 651 488 644 482 618 c 2
EndSplineSet
EndChar
StartChar: percent
Encoding: 5 37 16
Width: 600
Flags: W
HStem: -15 65<333.685 435.029> 199 65<354.808 458.628> 338 65<267.338 350.839> 552 65<289.808 393.628>
VStem: 131 467<241 362>
Fore
359 617 m 0
 438 617 486 555 469 476 c 0
 453 401 377 338 301 338 c 0
 224 338 174 401 191 478 c 0
 207 554 283 617 359 617 c 0
345 552 m 0
 305 552 264 518 256 478 c 0
 247 437 274 403 314 403 c 0
 355 403 396 437 404 477 c 0
 413 519 387 552 345 552 c 0
561 331 m 1
 174 213 l 2
 167 211 157 209 153 209 c 0
 138 209 128 224 131 241 c 0
 135 257 144 265 168 272 c 2
 555 390 l 2
 568 394 570 394 576 394 c 0
 591 394 602 379 598 362 c 0
 595 346 585 337 561 331 c 1
424 264 m 0
 503 264 551 202 534 123 c 0
 518 48 442 -15 365 -15 c 0
 289 -15 239 48 256 125 c 0
 272 201 348 264 424 264 c 0
410 199 m 0
 370 199 329 165 321 125 c 0
 312 84 339 50 380 50 c 0
 420 50 461 84 469 124 c 0
 478 166 452 199 410 199 c 0
EndSplineSet
EndChar
StartChar: ampersand
Encoding: 6 38 17
Width: 600
Flags: W
HStem: -14 100<210.401 319.1> 450 100<337.678 429.22>
VStem: 106 450<144 180 220 229 144 229>
Fore
407 198 m 1
 448 280 l 1
 501 280 l 2
 528 280 536 278 544 270 c 0
 555 260 559 246 556 229 c 0
 550 203 527 182 502 180 c 1
 483 139 472 121 455 100 c 1
 463 100 l 2
 490 100 498 98 506 91 c 0
 517 81 522 66 519 50 c 0
 515 33 502 16 485 7 c 0
 476 2 463 0 442 0 c 2
 381 0 l 1
 373 15 l 1
 339 -6 307 -14 254 -14 c 0
 144 -14 85 48 106 144 c 0
 120 211 166 267 235 303 c 1
 218 349 215 368 222 399 c 0
 239 480 325 550 406 550 c 0
 430 550 449 545 472 533 c 1
 485 537 495 540 502 540 c 0
 527 540 544 515 539 490 c 0
 534 467 523 456 487 438 c 2
 441 416 l 1
 418 442 406 450 386 450 c 0
 357 450 328 428 322 400 c 0
 320 389 325 370 338 343 c 2
 407 198 l 1
333 100 m 1
 275 220 l 1
 236 204 213 177 206 144 c 0
 197 105 220 86 275 86 c 0
 300 86 312 89 333 100 c 1
EndSplineSet
EndChar
StartChar: quotesingle
Encoding: 7 39 18
Width: 600
Flags: W
VStem: 344 148<347 602>
Fore
364 602 m 1
 492 602 l 1
 407 348 l 1
 397 322 387 312 367 312 c 0
 348 312 341 322 344 347 c 1
 364 602 l 1
EndSplineSet
EndChar
StartChar: parenleft
Encoding: 8 40 19
Width: 600
Flags: W
VStem: 316 296<243 583>
Fore
571 632 m 0
 600 632 618 610 612 583 c 0
 609 571 606 565 593 549 c 0
 499 437 447 341 426 240 c 0
 404 138 416 42 461 -70 c 0
 468 -86 468 -92 466 -104 c 0
 460 -131 433 -153 404 -153 c 0
 380 -153 370 -142 351 -95 c 0
 304 18 292 133 316 243 c 0
 338 350 409 478 505 587 c 0
 535 623 549 632 571 632 c 0
EndSplineSet
EndChar
StartChar: parenright
Encoding: 9 41 20
Width: 600
Flags: W
VStem: 95 296<-104 236>
Fore
302 632 m 0
 326 632 337 621 356 574 c 0
 403 461 415 346 391 236 c 0
 368 129 298 1 202 -109 c 0
 171 -144 157 -153 135 -153 c 0
 106 -153 89 -131 95 -104 c 0
 97 -92 101 -86 114 -70 c 0
 208 42 259 138 281 239 c 0
 302 341 291 437 246 549 c 0
 239 565 238 571 241 583 c 0
 247 610 273 632 302 632 c 0
EndSplineSet
EndChar
StartChar: asterisk
Encoding: 10 42 21
Width: 600
Flags: W
HStem: 602 20G<424 440.5>
VStem: 179 434<418.068 466.269 452 452>
Fore
298 372 m 1
 218 400 l 2
 183 411 173 425 179 452 c 0
 185 479 212 502 237 502 c 0
 247 502 249 501 269 495 c 2
 349 467 l 1
 368 556 l 2
 373 581 378 592 387 601 c 0
 400 614 416 622 432 622 c 0
 449 622 464 613 470 598 c 0
 473 589 473 580 468 556 c 2
 449 467 l 1
 541 495 l 2
 563 501 567 502 576 502 c 0
 601 502 619 478 613 452 c 0
 608 426 590 411 552 400 c 2
 460 372 l 1
 497 301 l 2
 508 280 510 271 507 258 c 0
 501 231 473 208 446 208 c 0
 425 208 418 214 403 242 c 2
 367 314 l 1
 299 242 l 2
 273 214 262 208 242 208 c 0
 215 208 197 231 203 258 c 0
 206 271 211 279 231 301 c 1
 298 372 l 1
EndSplineSet
EndChar
StartChar: plus
Encoding: 11 43 22
Width: 600
Flags: W
HStem: 0 21G<291.5 308> 230 100<143.875 299 420 573.33>
Fore
399 230 m 1
 364 66 l 2
 358 39 355 31 345 21 c 0
 333 8 316 0 300 0 c 0
 283 0 268 9 262 24 c 0
 259 33 259 43 264 66 c 2
 299 230 l 1
 157 230 l 2
 133 230 121 232 114 239 c 0
 103 249 98 264 102 280 c 0
 105 297 118 314 135 323 c 0
 145 329 153 330 178 330 c 2
 320 330 l 1
 355 494 l 2
 361 520 365 530 375 539 c 1
 387 553 403 560 419 560 c 0
 436 560 451 551 457 536 c 0
 461 527 461 520 455 494 c 2
 420 330 l 1
 561 330 l 2
 589 330 597 328 605 321 c 0
 616 311 621 296 618 280 c 0
 614 263 601 246 584 237 c 0
 575 232 563 230 540 230 c 2
 399 230 l 1
EndSplineSet
EndChar
StartChar: comma
Encoding: 12 44 23
Width: 600
Flags: W
HStem: -158 292<144 247>
VStem: 119 260<-130 134>
Fore
247 134 m 1
 379 134 l 1
 182 -134 l 2
 170 -150 156 -158 144 -158 c 0
 127 -158 116 -145 119 -130 c 0
 121 -124 121 -122 126 -111 c 2
 247 134 l 1
EndSplineSet
EndChar
StartChar: hyphen
Encoding: 13 45 24
Width: 600
Flags: W
HStem: 229 100<143.527 573.371>
Fore
541 229 m 2
 157 229 l 2
 132 229 121 231 114 238 c 0
 103 248 98 263 101 279 c 0
 105 296 117 312 134 322 c 0
 145 328 153 329 178 329 c 2
 562 329 l 2
 588 329 598 327 606 320 c 0
 617 310 621 295 617 279 c 0
 614 262 601 245 584 236 c 0
 575 231 563 229 541 229 c 2
EndSplineSet
EndChar
StartChar: period
Encoding: 14 46 25
Width: 600
Flags: W
HStem: -15 132<262.426 288 288 358.859>
VStem: 236 150<11.7048 90.2952 51 51>
Fore
306 -15 m 2
 288 -15 l 2
 252 -15 228 15 236 51 c 0
 243 87 280 117 316 117 c 2
 334 117 l 2
 371 117 394 88 386 51 c 0
 378 14 343 -15 306 -15 c 2
EndSplineSet
EndChar
StartChar: slash
Encoding: 15 47 26
Width: 600
Flags: W
Fore
635 610 m 1
 170 -69 l 1
 148 -103 133 -113 109 -113 c 0
 83 -113 64 -90 69 -65 c 0
 71 -55 76 -45 89 -27 c 2
 554 651 l 1
 577 685 592 695 615 695 c 0
 642 695 660 672 655 647 c 0
 652 636 649 630 635 610 c 1
EndSplineSet
EndChar
StartChar: zero
Encoding: 16 48 27
Width: 600
Flags: W
HStem: -15 100<262.681 382.435> 538 100<350.187 469.936>
VStem: 139 454<264 359 264 359>
Fore
436 638 m 0
 586 638 623 501 593 359 c 2
 573 264 l 2
 543 120 446 -15 297 -15 c 0
 147 -15 109 122 139 264 c 2
 159 359 l 2
 190 503 287 638 436 638 c 0
261 366 m 2
 238 257 l 2
 216 153 247 85 318 85 c 0
 389 85 450 153 472 257 c 2
 495 366 l 2
 517 470 485 538 414 538 c 0
 343 538 283 470 261 366 c 2
EndSplineSet
EndChar
StartChar: one
Encoding: 17 49 28
Width: 600
Flags: W
HStem: 0 100<135.689 271 371 481.975> 618 20G<404.545 481.725>
VStem: 94 434<31.76 69.4157 50 50>
Fore
486 638 m 1
 371 100 l 1
 472 100 l 2
 499 100 507 98 515 91 c 0
 526 81 531 66 528 50 c 0
 524 33 512 17 494 7 c 0
 487 3 471 0 451 0 c 2
 149 0 l 2
 126 0 113 3 106 10 c 0
 95 19 90 35 94 50 c 0
 97 67 110 84 127 93 c 0
 137 99 144 100 170 100 c 2
 271 100 l 1
 358 509 l 1
 266 486 l 2
 246 481 243 480 233 480 c 0
 207 480 192 503 198 532 c 0
 204 561 220 573 262 583 c 2
 486 638 l 1
EndSplineSet
EndChar
StartChar: two
Encoding: 18 50 29
Width: 600
Flags: W
HStem: 0 100<228 429> 538 100<323.167 471.38>
Fore
228 100 m 1
 429 100 l 1
 440 136 460 154 491 154 c 0
 508 154 523 145 529 130 c 0
 532 121 532 112 527 88 c 2
 508 0 l 1
 54 0 l 1
 76 105 l 1
 274 244 296 260 350 301 c 0
 469 392 491 414 498 448 c 0
 509 499 467 538 402 538 c 0
 362 538 324 523 297 497 c 0
 284 485 283 483 265 451 c 0
 256 434 235 422 214 422 c 0
 187 422 168 444 174 470 c 0
 181 502 217 551 258 582 c 0
 305 618 367 638 426 638 c 0
 548 638 621 555 597 444 c 0
 584 379 551 341 433 251 c 0
 401 226 332 176 228 100 c 1
EndSplineSet
EndChar
StartChar: three
Encoding: 19 51 30
Width: 600
Flags: W
HStem: -15 100<174.769 406.844> 287 96<309.471 337 337 410.114> 538 100<318.448 488.274>
Fore
357 383 m 2
 397 383 l 2
 446 383 496 420 505 462 c 0
 515 509 478 538 409 538 c 0
 354 538 324 527 285 492 c 0
 274 483 259 477 245 477 c 0
 218 477 201 500 207 527 c 0
 219 585 330 638 437 638 c 0
 503 638 551 619 580 580 c 1
 606 549 614 505 606 464 c 0
 594 409 560 372 487 333 c 1
 555 296 581 246 568 182 c 0
 555 124 515 68 462 32 c 0
 411 -1 355 -15 268 -15 c 0
 145 -15 70 19 81 70 c 0
 87 98 114 120 142 120 c 0
 154 120 157 118 171 108 c 0
 193 91 222 85 286 85 c 0
 355 85 394 95 426 119 c 0
 447 135 463 160 468 183 c 0
 476 220 454 255 411 274 c 0
 392 283 380 285 337 287 c 0
 304 289 289 306 295 333 c 0
 301 362 327 383 357 383 c 2
EndSplineSet
EndChar
StartChar: four
Encoding: 20 52 31
Width: 600
Flags: W
HStem: 0 100<296.06 368 468 472.915> 138 100<248 376 498 533.852> 602 20G<431.741 579>
VStem: 104 475<138 622>
Fore
579 622 m 1
 498 238 l 1
 537 238 555 220 548 188 c 0
 541 156 517 139 476 138 c 1
 468 100 l 1
 507 100 525 82 519 50 c 0
 515 33 503 17 485 7 c 0
 478 3 462 0 441 0 c 2
 309 0 l 2
 286 0 273 3 266 10 c 0
 255 19 250 35 254 50 c 0
 257 67 270 84 287 93 c 0
 297 99 306 100 330 100 c 2
 368 100 l 1
 376 138 l 1
 104 138 l 1
 122 221 l 1
 448 622 l 1
 579 622 l 1
398 238 m 1
 449 480 l 1
 248 238 l 1
 398 238 l 1
EndSplineSet
EndChar
StartChar: five
Encoding: 21 53 32
Width: 600
Flags: W
HStem: -15 100<191.586 404.562> 324 100<338.393 447.134> 522 100<330 564.582>
Fore
330 522 m 1
 306 407 l 1
 344 418 379 424 408 424 c 0
 529 424 599 330 572 202 c 0
 560 144 530 92 485 53 c 0
 431 5 369 -15 275 -15 c 0
 155 -15 72 28 84 84 c 0
 90 111 117 133 144 133 c 0
 158 133 165 130 177 118 c 0
 202 93 230 85 295 85 c 0
 399 85 455 122 472 201 c 0
 487 275 453 324 386 324 c 0
 353 324 306 312 259 290 c 0
 244 284 238 282 229 282 c 0
 200 282 184 306 191 338 c 2
 251 622 l 1
 553 622 l 2
 580 622 588 620 597 613 c 1
 607 603 612 588 609 572 c 0
 605 555 592 538 575 529 c 0
 567 524 553 522 532 522 c 2
 330 522 l 1
EndSplineSet
EndChar
StartChar: six
Encoding: 22 54 33
Width: 600
Flags: W
HStem: -15 100<288.409 423.715> 294 100<344.857 453.477> 535 103<450.484 602.355>
VStem: 166 496<285 573>
Fore
575 189 m 0
 550 69 459 -15 328 -15 c 0
 245 -15 191 19 167 87 c 0
 152 135 150 213 166 285 c 0
 184 374 227 450 291 514 c 0
 376 596 467 638 559 638 c 0
 629 638 670 612 662 573 c 0
 656 545 628 522 600 522 c 0
 587 522 560 535 543 535 c 0
 437 535 326 447 277 324 c 1
 336 375 378 394 429 394 c 0
 534 394 599 302 575 189 c 0
262 209 m 1
 259 122 287 85 352 85 c 0
 415 85 462 125 475 190 c 0
 488 248 454 294 400 294 c 0
 357 294 300 258 262 209 c 1
EndSplineSet
EndChar
StartChar: seven
Encoding: 23 55 34
Width: 600
Flags: W
HStem: -1 21G<283.5 310> 522 100<286 514>
VStem: 187 453<492 622>
Fore
514 522 m 1
 286 522 l 1
 275 486 255 468 224 468 c 0
 207 468 192 477 187 492 c 0
 183 501 183 510 189 534 c 2
 207 622 l 1
 640 622 l 1
 619 523 l 1
 359 48 l 1
 339 12 323 -1 297 -1 c 0
 270 -1 250 21 256 47 c 0
 258 56 262 64 270 81 c 1
 514 522 l 1
EndSplineSet
EndChar
StartChar: eight
Encoding: 24 56 35
Width: 600
Flags: W
HStem: -15 100<244.948 400.435> 263 101<309.156 427.071> 538 100<335.898 483.013>
VStem: 118 487<165 457>
Fore
488 319 m 1
 543 279 565 227 552 165 c 0
 529 58 426 -15 296 -15 c 0
 168 -15 95 58 118 165 c 0
 131 227 175 279 248 319 c 1
 196 359 177 402 189 455 c 0
 210 557 320 638 436 638 c 0
 551 638 626 557 605 457 c 0
 593 402 556 359 488 319 c 1
414 538 m 0
 350 538 299 502 288 451 c 0
 277 400 314 364 377 364 c 0
 440 364 493 400 504 450 c 0
 515 502 478 538 414 538 c 0
356 263 m 0
 292 263 230 223 220 173 c 0
 209 122 250 85 318 85 c 0
 386 85 443 122 454 172 c 0
 464 223 422 263 356 263 c 0
EndSplineSet
EndChar
StartChar: nine
Encoding: 25 57 36
Width: 600
Flags: W
HStem: -15 103<176.336 328.393> 229 100<325.553 433.82> 538 100<355.152 488.337>
VStem: 117 496<50 338>
Fore
203 434 m 0
 229 553 321 638 451 638 c 0
 534 638 587 604 611 536 c 0
 627 489 628 409 613 338 c 0
 594 250 552 173 487 109 c 0
 403 27 312 -15 220 -15 c 0
 150 -15 108 11 117 50 c 0
 123 78 150 101 178 101 c 0
 191 101 219 88 236 88 c 0
 342 88 452 176 502 299 c 1
 443 248 401 229 351 229 c 0
 245 229 179 321 203 434 c 0
516 414 m 1
 519 501 491 538 426 538 c 0
 363 538 317 498 303 433 c 0
 291 375 324 329 378 329 c 0
 421 329 479 365 516 414 c 1
EndSplineSet
EndChar
StartChar: colon
Encoding: 26 58 37
Width: 600
Flags: W
HStem: -15 132<262.426 288 288 358.859> 304 133<331.562 356 356 426.859>
VStem: 236 218<51 370>
Fore
306 -15 m 2
 288 -15 l 2
 252 -15 228 15 236 51 c 0
 243 87 280 117 316 117 c 2
 334 117 l 2
 371 117 394 88 386 51 c 0
 378 14 343 -15 306 -15 c 2
374 304 m 2
 356 304 l 2
 320 304 296 334 304 370 c 0
 312 407 348 437 384 437 c 2
 402 437 l 2
 439 437 462 408 454 370 c 0
 446 333 411 304 374 304 c 2
EndSplineSet
EndChar
StartChar: semicolon
Encoding: 27 59 38
Width: 600
Flags: W
HStem: 304 133<306.576 403.239>
VStem: 119 311<-130 370>
Fore
247 134 m 1
 379 134 l 1
 182 -134 l 2
 170 -150 156 -158 144 -158 c 0
 127 -158 116 -145 119 -130 c 0
 121 -124 121 -122 126 -111 c 2
 247 134 l 1
369 437 m 0
 415 437 438 411 430 370 c 0
 421 330 386 304 341 304 c 0
 296 304 271 331 280 371 c 0
 288 410 324 437 369 437 c 0
EndSplineSet
EndChar
StartChar: less
Encoding: 28 60 39
Width: 600
Flags: W
HStem: 54 447<513 608>
Fore
310 279 m 1
 542 143 l 2
 563 131 569 119 565 100 c 0
 564 95 561 88 556 81 c 2
 555 79 l 2
 546 65 527 54 513 54 c 0
 505 54 495 57 485 63 c 2
 102 280 l 1
 577 492 l 2
 590 498 600 501 608 501 c 0
 622 501 636 490 639 476 c 2
 640 474 l 2
 641 468 642 461 641 455 c 0
 637 436 625 424 600 412 c 2
 310 279 l 1
EndSplineSet
EndChar
StartChar: equal
Encoding: 29 61 40
Width: 600
Flags: W
HStem: 138 100<124.087 137 137 554.098> 322 100<163.087 593.098>
Fore
198 422 m 2
 582 422 l 2
 609 422 616 420 625 413 c 0
 636 403 640 388 637 372 c 0
 633 355 621 338 604 329 c 0
 595 324 582 322 560 322 c 2
 176 322 l 2
 152 322 141 324 134 332 c 1
 122 341 118 356 121 372 c 0
 125 389 137 406 154 415 c 0
 164 421 173 422 198 422 c 2
159 238 m 2
 543 238 l 2
 570 238 577 236 586 229 c 0
 597 219 601 204 598 188 c 0
 594 171 582 154 565 145 c 0
 556 140 543 138 521 138 c 2
 137 138 l 2
 113 138 102 140 94 148 c 1
 83 157 79 172 82 188 c 0
 86 205 98 222 115 231 c 0
 125 237 134 238 159 238 c 2
EndSplineSet
EndChar
StartChar: greater
Encoding: 30 62 41
Width: 600
Flags: W
HStem: 53 447<109 204>
Fore
407 275 m 1
 176 412 l 2
 155 423 148 435 152 453 c 0
 154 459 157 466 162 473 c 2
 163 475 l 2
 171 488 190 500 204 500 c 0
 212 500 223 497 232 491 c 2
 616 274 l 1
 141 62 l 2
 128 56 116 53 109 53 c 0
 95 53 82 64 79 78 c 2
 78 80 l 2
 76 87 76 93 77 100 c 0
 81 118 93 130 118 142 c 2
 407 275 l 1
EndSplineSet
EndChar
StartChar: question
Encoding: 31 63 42
Width: 600
Flags: W
HStem: -15 132<264.623 291 291 360.859> 498 100<344.826 485.277>
VStem: 200 404<418 426 409 418>
Fore
202 460 m 2
 219 539 l 1
 324 585 371 598 435 598 c 0
 559 598 628 521 604 409 c 0
 587 328 534 281 401 228 c 1
 390 192 369 174 340 174 c 0
 323 174 308 183 302 198 c 0
 299 207 299 217 304 240 c 2
 316 296 l 1
 454 345 496 371 505 414 c 0
 516 464 479 498 415 498 c 0
 377 498 341 490 305 474 c 1
 302 460 l 2
 296 434 292 424 283 415 c 0
 270 402 253 394 238 394 c 0
 221 394 206 404 200 418 c 0
 197 426 197 437 202 460 c 2
308 -15 m 2
 291 -15 l 2
 254 -15 230 15 238 51 c 0
 245 87 282 117 319 117 c 2
 336 117 l 2
 373 117 396 88 388 51 c 0
 380 14 345 -15 308 -15 c 2
EndSplineSet
EndChar
StartChar: at
Encoding: 32 64 43
Width: 600
Flags: W
HStem: -152 78<220.85 383.006> 72 81<357.779 430.479> 541 79<348.608 476.306>
VStem: 109 468<154 429>
Fore
491 397 m 1
 498 429 l 2
 512 495 479 541 417 541 c 0
 333 541 250 445 222 317 c 2
 189 161 l 2
 173 85 177 23 201 -24 c 0
 217 -59 245 -74 289 -74 c 0
 333 -74 376 -62 399 -42 c 0
 416 -28 422 -25 434 -25 c 0
 456 -25 470 -43 465 -66 c 0
 455 -113 365 -152 270 -152 c 0
 188 -152 140 -119 113 -45 c 0
 95 9 93 81 109 154 c 2
 145 323 l 2
 181 495 303 620 433 620 c 0
 541 620 601 540 577 429 c 2
 517 148 l 1
 532 141 537 130 533 113 c 0
 527 85 506 72 469 72 c 2
 422 72 l 1
 423 75 l 1
 408 73 398 72 389 72 c 0
 304 72 248 143 266 226 c 0
 286 319 378 389 491 397 c 1
440 155 m 1
 474 316 l 1
 407 310 355 274 345 225 c 0
 336 184 366 153 414 153 c 0
 421 153 426 153 440 155 c 1
EndSplineSet
EndChar
StartChar: A
Encoding: 33 65 44
Width: 600
Flags: W
HStem: 0 100<32.0867 67 176 210.138 402.689 460 574 587.138> 158 100<273 430> 483 100<226.367 304>
Fore
450 158 m 1
 212 158 l 1
 176 100 l 1
 199 100 l 2
 226 100 234 98 242 91 c 0
 253 81 258 66 255 50 c 0
 251 33 238 16 221 7 c 0
 212 2 199 0 178 0 c 2
 45 0 l 2
 1 0 -17 17 -10 50 c 0
 -7 67 6 84 23 93 c 0
 33 99 42 100 67 100 c 1
 304 483 l 1
 241 483 l 2
 215 483 205 485 197 492 c 0
 186 502 181 517 184 533 c 0
 188 550 200 566 217 576 c 0
 228 582 235 583 262 583 c 2
 478 583 l 1
 574 100 l 1
 602 100 611 98 619 90 c 0
 630 81 635 66 632 50 c 0
 628 33 615 16 598 7 c 0
 589 2 576 0 555 0 c 2
 416 0 l 2
 392 0 381 3 373 10 c 0
 362 19 357 34 361 50 c 0
 364 67 377 84 394 93 c 0
 404 99 411 100 437 100 c 2
 460 100 l 1
 450 158 l 1
430 258 m 1
 393 450 l 1
 273 258 l 1
 430 258 l 1
EndSplineSet
EndChar
StartChar: B
Encoding: 34 66 45
Width: 600
Flags: W
HStem: 0 100<66.0605 115 215 480.386> 242 100<267 471.75> 483 100<168.713 197 297 505.509>
Fore
115 100 m 1
 197 483 l 1
 182 483 l 2
 157 483 146 485 139 492 c 0
 128 502 123 518 126 533 c 0
 130 550 144 567 159 576 c 0
 170 582 179 583 203 583 c 2
 456 583 l 2
 569 583 637 513 617 418 c 0
 607 372 581 339 530 305 c 1
 594 269 618 223 605 160 c 0
 585 64 492 0 374 0 c 2
 79 0 l 2
 56 0 43 3 36 10 c 0
 25 19 20 35 24 50 c 0
 27 67 40 84 57 93 c 0
 67 99 76 100 100 100 c 2
 115 100 l 1
267 342 m 1
 380 342 l 2
 452 342 507 373 517 419 c 0
 526 459 493 483 430 483 c 2
 297 483 l 1
 267 342 l 1
215 100 m 1
 390 100 l 2
 458 100 496 118 504 154 c 0
 509 178 497 204 475 220 c 0
 453 235 422 242 380 242 c 2
 245 242 l 1
 215 100 l 1
EndSplineSet
EndChar
StartChar: C
Encoding: 35 67 46
Width: 600
Flags: W
HStem: -14 100<247.614 457.913> 497 100<325.511 502.889>
Fore
567 563 m 2
 576 559 l 1
 593 577 606 583 623 583 c 0
 641 583 655 574 661 559 c 0
 665 550 664 542 659 517 c 2
 641 433 l 2
 636 408 631 397 622 388 c 0
 610 375 593 367 577 367 c 0
 564 367 551 373 545 381 c 0
 539 389 538 396 539 420 c 0
 539 444 532 457 507 473 c 0
 483 488 449 497 415 497 c 0
 313 497 222 420 200 315 c 2
 186 251 l 2
 165 151 228 86 348 86 c 0
 393 86 435 94 463 109 c 0
 475 115 475 115 508 143 c 0
 522 154 535 159 548 159 c 0
 575 159 593 136 587 109 c 0
 582 86 558 60 519 36 c 0
 468 4 396 -14 324 -14 c 0
 154 -14 54 97 86 249 c 2
 100 315 l 2
 134 475 278 597 432 597 c 0
 484 597 517 589 567 563 c 2
EndSplineSet
EndChar
StartChar: D
Encoding: 36 68 47
Width: 600
Flags: W
HStem: 0 100<38.1411 95 195 406.578> 483 100<168.367 177 277 467.822>
Fore
95 100 m 1
 177 483 l 1
 138 483 119 501 126 533 c 0
 130 550 143 567 159 576 c 0
 170 582 177 583 204 583 c 2
 416 583 l 2
 562 583 648 462 615 305 c 2
 605 258 l 2
 589 185 552 123 496 75 c 0
 436 23 371 0 284 0 c 2
 80 0 l 2
 56 0 44 3 36 10 c 0
 25 19 20 35 24 50 c 0
 30 82 57 100 95 100 c 1
195 100 m 1
 306 100 l 2
 366 100 402 112 440 144 c 1
 474 175 495 210 505 261 c 2
 515 307 l 2
 525 354 519 398 497 432 c 0
 474 467 440 483 387 483 c 2
 277 483 l 1
 195 100 l 1
EndSplineSet
EndChar
StartChar: E
Encoding: 37 69 48
Width: 600
Flags: W
HStem: 0 100<66.0605 115 215 471> 243 99<267 331> 483 100<168.341 197 297 531>
Fore
246 243 m 1
 215 100 l 1
 471 100 l 1
 482 152 l 2
 488 180 492 188 501 198 c 0
 514 212 531 219 547 219 c 0
 564 219 578 210 584 195 c 0
 588 186 588 177 582 152 c 2
 550 0 l 1
 79 0 l 2
 56 0 43 3 36 10 c 0
 25 19 20 34 24 50 c 0
 27 67 40 83 57 93 c 0
 67 99 76 100 100 100 c 2
 115 100 l 1
 197 483 l 1
 182 483 l 2
 157 483 146 485 139 492 c 0
 128 502 123 517 126 533 c 0
 130 550 143 567 159 576 c 0
 170 582 177 583 203 583 c 2
 652 583 l 1
 620 433 l 2
 614 405 610 397 601 387 c 0
 588 374 572 366 556 366 c 0
 539 366 525 375 518 390 c 0
 515 399 515 409 520 433 c 2
 531 483 l 1
 297 483 l 1
 267 342 l 1
 352 342 l 1
 353 349 l 2
 359 376 363 385 372 395 c 0
 385 408 401 416 416 416 c 0
 443 416 458 398 456 370 c 0
 455 361 454 358 452 349 c 2
 428 236 l 2
 423 210 419 200 410 191 c 0
 397 178 380 170 365 170 c 0
 348 170 333 179 327 194 c 0
 324 203 324 212 329 236 c 2
 331 243 l 1
 246 243 l 1
EndSplineSet
EndChar
StartChar: F
Encoding: 38 70 49
Width: 600
Flags: W
HStem: 0 100<66.0605 115 215 324.975> 243 99<267 331> 483 100<168.341 197 297 553>
Fore
246 243 m 1
 215 100 l 1
 315 100 l 2
 342 100 351 98 359 91 c 0
 369 81 374 66 371 50 c 0
 367 33 354 16 337 7 c 0
 330 3 314 0 294 0 c 2
 79 0 l 2
 56 0 43 3 36 10 c 0
 25 19 20 35 24 50 c 0
 27 67 40 84 57 93 c 0
 67 99 76 100 100 100 c 2
 115 100 l 1
 197 483 l 1
 182 483 l 2
 157 483 146 485 139 492 c 0
 128 502 123 517 126 533 c 0
 130 550 143 567 159 576 c 0
 170 582 177 583 203 583 c 2
 674 583 l 1
 642 432 l 2
 636 405 632 397 623 387 c 0
 610 374 594 366 578 366 c 0
 561 366 547 375 540 390 c 0
 537 398 537 409 542 432 c 2
 553 483 l 1
 297 483 l 1
 267 342 l 1
 352 342 l 1
 353 349 l 2
 358 374 363 385 372 394 c 0
 385 407 401 415 417 415 c 0
 434 415 448 406 454 391 c 0
 458 381 457 374 452 349 c 2
 428 236 l 2
 422 209 419 200 409 190 c 0
 397 177 380 169 365 169 c 0
 348 169 333 179 327 193 c 0
 324 202 324 213 329 236 c 2
 331 243 l 1
 246 243 l 1
EndSplineSet
EndChar
StartChar: G
Encoding: 39 71 50
Width: 600
Flags: W
HStem: -14 100<236.838 463.913> 180 100<375.087 488 588 626.899> 497 100<322.347 521.512>
Fore
588 180 m 1
 560 48 l 1
 461 1 406 -14 328 -14 c 0
 230 -14 151 15 113 65 c 0
 81 108 70 176 85 246 c 2
 100 317 l 2
 117 393 163 467 228 520 c 0
 292 572 362 597 444 597 c 0
 498 597 545 586 582 565 c 1
 599 589 611 597 630 597 c 0
 647 597 661 588 665 573 c 0
 669 563 668 555 663 531 c 2
 646 453 l 2
 640 425 638 418 628 408 c 0
 615 395 598 387 582 387 c 0
 569 387 557 393 550 402 c 0
 546 409 546 409 545 440 c 0
 542 475 497 497 424 497 c 0
 368 497 319 481 282 450 c 0
 242 417 211 367 200 317 c 2
 187 253 l 2
 174 195 180 156 206 130 c 0
 233 101 280 86 343 86 c 0
 391 86 432 94 474 111 c 1
 488 180 l 1
 388 180 l 2
 363 180 353 182 345 190 c 1
 334 199 329 214 333 230 c 0
 337 247 349 264 366 273 c 0
 376 279 385 280 410 280 c 2
 585 280 l 2
 612 280 620 278 629 271 c 0
 640 261 644 246 641 230 c 0
 636 205 618 188 588 180 c 1
EndSplineSet
EndChar
StartChar: H
Encoding: 40 72 51
Width: 600
Flags: W
HStem: 0 100<75.8746 116 216 242.138 381.06 430 530 547.138> 241 100<267 460> 483 100<298 345.392 483.527 512>
Fore
460 241 m 1
 246 241 l 1
 216 100 l 1
 231 100 l 2
 257 100 267 98 274 91 c 0
 285 81 290 66 287 50 c 0
 283 33 270 16 253 7 c 0
 244 2 231 0 210 0 c 2
 89 0 l 2
 65 0 53 3 45 9 c 0
 35 19 30 35 34 50 c 0
 37 67 50 84 67 93 c 0
 77 99 85 100 110 100 c 2
 116 100 l 1
 198 483 l 1
 165 486 150 504 156 533 c 0
 160 550 173 567 189 576 c 0
 200 582 208 583 233 583 c 2
 334 583 l 2
 361 583 369 581 377 574 c 0
 388 564 393 549 389 533 c 0
 386 516 373 499 356 490 c 0
 346 485 337 483 313 483 c 2
 298 483 l 1
 267 341 l 1
 481 341 l 1
 512 483 l 1
 497 483 l 2
 471 483 462 485 454 492 c 0
 443 502 438 517 441 533 c 0
 445 550 458 567 474 576 c 0
 485 582 493 583 518 583 c 2
 619 583 l 2
 646 583 654 581 663 574 c 0
 673 564 678 549 674 533 c 0
 668 504 645 486 612 483 c 1
 530 100 l 1
 536 100 l 2
 563 100 572 98 579 91 c 0
 590 81 595 66 592 50 c 0
 588 33 575 16 558 7 c 0
 549 2 536 0 515 0 c 2
 394 0 l 2
 370 0 359 3 351 9 c 0
 340 19 335 35 339 50 c 0
 342 67 355 84 372 93 c 0
 382 99 391 100 415 100 c 2
 430 100 l 1
 460 241 l 1
EndSplineSet
EndChar
StartChar: I
Encoding: 41 73 52
Width: 600
Flags: W
HStem: 0 100<135.689 271 371 514.087> 483 100<238.341 353 453 586.604>
Fore
453 483 m 5
 371 100 l 5
 472 100 l 2
 499 100 507 98 515 91 c 0
 527 81 531 66 528 50 c 0
 521 17 495 0 451 0 c 2
 149 0 l 2
 125 0 114 3 106 10 c 0
 95 19 90 35 94 50 c 0
 97 67 110 84 127 93 c 0
 137 99 144 100 170 100 c 2
 271 100 l 5
 353 483 l 5
 252 483 l 6
 227 483 216 485 209 492 c 4
 198 502 193 517 196 533 c 4
 200 550 213 567 229 576 c 4
 240 582 247 583 273 583 c 6
 575 583 l 6
 602 583 609 581 618 574 c 4
 630 564 634 549 630 533 c 4
 627 516 614 499 597 490 c 4
 588 485 577 483 554 483 c 6
 453 483 l 5
EndSplineSet
EndChar
StartChar: J
Encoding: 42 74 53
Width: 600
Flags: W
HStem: -14 100<198.755 370.264> 483 100<360.341 493 593 682.604>
Fore
593 483 m 1
 530 187 l 2
 516 121 491 83 435 42 c 0
 385 6 325 -14 266 -14 c 0
 209 -14 146 6 65 51 c 1
 99 213 l 2
 105 239 109 250 118 259 c 0
 131 272 148 280 164 280 c 0
 181 280 196 271 201 256 c 0
 206 247 205 238 199 213 c 2
 179 117 l 1
 223 95 255 86 289 86 c 0
 325 86 364 100 392 122 c 0
 417 143 422 152 432 198 c 2
 493 483 l 1
 374 483 l 2
 349 483 338 485 331 492 c 0
 320 502 315 517 318 533 c 0
 322 550 335 567 351 576 c 0
 362 582 369 583 395 583 c 2
 671 583 l 2
 698 583 706 581 714 574 c 0
 725 564 730 549 726 533 c 0
 723 516 710 499 693 490 c 0
 684 485 673 483 650 483 c 2
 593 483 l 1
EndSplineSet
EndChar
StartChar: K
Encoding: 43 75 54
Width: 600
Flags: W
HStem: 0 100<66.0605 115 215 259.975 525 566.975> 483 100<168.341 197 297 364.604 614 672.755>
Fore
454 532 m 0
 462 569 492 583 531 583 c 2
 631 583 l 2
 658 583 666 581 675 574 c 0
 685 564 690 549 686 533 c 0
 679 500 655 483 614 483 c 1
 405 330 l 1
 459 298 504 215 525 100 c 1
 557 100 l 2
 584 100 592 98 600 91 c 0
 611 81 616 66 613 50 c 0
 609 33 596 16 579 7 c 0
 572 3 556 0 536 0 c 2
 426 0 l 1
 409 143 366 240 309 259 c 1
 238 208 l 1
 215 100 l 1
 250 100 l 2
 277 100 285 98 293 91 c 0
 304 81 309 66 306 50 c 0
 302 33 289 16 272 7 c 0
 265 3 249 0 229 0 c 2
 79 0 l 2
 56 0 43 3 36 10 c 0
 25 19 20 35 24 50 c 0
 27 67 40 84 57 93 c 0
 67 99 76 100 100 100 c 2
 115 100 l 1
 197 483 l 1
 182 483 l 2
 157 483 146 485 139 492 c 0
 128 502 123 517 126 533 c 0
 130 550 143 567 159 576 c 0
 170 582 177 583 203 583 c 2
 353 583 l 2
 380 583 388 581 396 574 c 0
 407 564 412 549 408 533 c 0
 405 516 392 499 375 490 c 0
 366 485 355 483 332 483 c 2
 297 483 l 1
 265 334 l 1
 476 487 l 1
 456 495 449 509 454 532 c 0
EndSplineSet
EndChar
StartChar: L
Encoding: 44 76 55
Width: 600
Flags: W
HStem: 0 100<85.6887 177 277 492> 483 100<188.341 259 359 448.604>
Fore
359 483 m 1
 277 100 l 1
 492 100 l 1
 512 192 l 2
 518 219 521 228 531 238 c 0
 544 252 560 259 576 259 c 0
 593 259 607 250 614 235 c 0
 618 226 617 217 612 192 c 2
 571 0 l 1
 99 0 l 2
 76 0 63 3 56 10 c 0
 45 19 40 34 44 50 c 0
 47 67 60 84 77 93 c 0
 87 99 94 100 120 100 c 2
 177 100 l 1
 259 483 l 1
 202 483 l 2
 177 483 166 485 159 492 c 0
 148 502 143 517 146 533 c 0
 150 550 163 567 179 576 c 0
 190 582 197 583 223 583 c 2
 437 583 l 2
 464 583 471 581 480 574 c 0
 491 564 496 549 492 533 c 0
 489 516 476 499 459 490 c 0
 450 485 439 483 416 483 c 2
 359 483 l 1
EndSplineSet
EndChar
StartChar: M
Encoding: 45 77 56
Width: 600
Flags: W
HStem: 0 100<5.89288 63 163 207.975 413.689 483 583 587.975> 564 20G<170 193.5 548.667 685.5>
Fore
225 389 m 1
 163 100 l 1
 198 100 l 2
 225 100 233 98 242 91 c 0
 253 81 257 66 254 50 c 0
 250 33 238 17 220 7 c 0
 213 3 197 0 177 0 c 2
 48 0 l 2
 24 0 12 3 4 10 c 0
 -7 19 -12 34 -8 50 c 0
 -2 82 24 100 63 100 c 1
 145 483 l 1
 112 486 97 504 104 534 c 0
 107 550 120 567 137 577 c 0
 142 580 164 584 176 584 c 0
 211 584 252 583 289 583 c 1
 364 286 l 1
 562 583 l 1
 672 583 l 2
 699 583 707 581 716 574 c 0
 726 564 731 549 727 533 c 0
 721 504 698 486 665 483 c 1
 583 100 l 1
 622 100 640 82 634 50 c 0
 630 33 618 17 600 7 c 0
 593 3 577 0 557 0 c 2
 427 0 l 2
 404 0 391 3 384 10 c 0
 373 19 368 35 372 50 c 0
 375 67 388 84 405 93 c 0
 415 99 422 100 448 100 c 2
 483 100 l 1
 545 389 l 1
 380 138 l 1
 289 138 l 1
 225 389 l 1
EndSplineSet
EndChar
StartChar: N
Encoding: 46 78 57
Width: 600
Flags: W
HStem: 0 100<36.8929 94 194 238.975> 483 100<147.341 176 485.341 534 634 690.913>
Fore
257 394 m 1
 194 100 l 1
 229 100 l 2
 256 100 265 98 273 91 c 0
 284 81 288 66 285 50 c 0
 281 33 269 17 251 7 c 0
 244 3 228 0 208 0 c 2
 79 0 l 2
 55 0 43 3 35 10 c 0
 24 19 19 34 23 50 c 0
 29 82 55 100 94 100 c 1
 176 483 l 1
 161 483 l 2
 136 483 125 485 118 492 c 0
 107 502 102 517 105 533 c 0
 109 550 122 567 138 576 c 0
 149 582 156 583 182 583 c 2
 297 583 l 1
 472 191 l 1
 534 483 l 1
 499 483 l 2
 474 483 463 485 456 492 c 0
 445 502 440 517 443 533 c 0
 447 550 460 567 476 576 c 0
 487 582 494 583 520 583 c 2
 650 583 l 2
 677 583 684 581 693 574 c 0
 704 564 709 549 705 533 c 0
 698 501 674 483 634 483 c 1
 531 0 l 1
 432 0 l 1
 257 394 l 1
EndSplineSet
EndChar
StartChar: O
Encoding: 47 79 58
Width: 600
Flags: W
HStem: -14 100<246.904 397.589> 497 100<325.777 480.354>
Fore
427 597 m 0
 494 597 553 570 596 520 c 0
 646 460 660 383 640 287 c 0
 605 123 449 -14 297 -14 c 0
 143 -14 47 123 83 292 c 0
 119 460 273 597 427 597 c 0
406 497 m 0
 308 497 207 404 183 292 c 0
 159 179 220 86 318 86 c 0
 415 86 517 179 540 289 c 0
 565 404 505 497 406 497 c 0
EndSplineSet
EndChar
StartChar: P
Encoding: 48 80 59
Width: 600
Flags: W
HStem: 0 100<66.0605 115 215 323.975> 200 100<258 458.097> 483 100<168.341 197 297 486.258>
Fore
237 200 m 1
 215 100 l 1
 314 100 l 2
 341 100 349 98 357 91 c 0
 368 81 373 66 370 50 c 0
 366 33 353 16 336 7 c 0
 329 3 313 0 293 0 c 2
 79 0 l 2
 56 0 43 3 36 10 c 0
 25 19 20 35 24 50 c 0
 27 67 40 84 57 93 c 0
 67 99 76 100 100 100 c 2
 115 100 l 1
 197 483 l 1
 182 483 l 2
 157 483 146 485 139 492 c 0
 128 502 123 518 126 533 c 0
 130 550 143 567 159 576 c 0
 170 582 177 583 203 583 c 2
 436 583 l 2
 563 583 636 505 613 394 c 0
 603 348 575 301 536 266 c 0
 481 217 428 200 335 200 c 2
 237 200 l 1
297 483 m 1
 258 300 l 1
 376 300 l 2
 445 300 494 335 506 391 c 0
 518 448 484 483 415 483 c 2
 297 483 l 1
EndSplineSet
EndChar
StartChar: Q
Encoding: 49 81 60
Width: 600
Flags: W
HStem: -145 100<375.973 472.243> -117 92<268.001 330.289> -7 92<267.194 400.464> 497 100<325.777 477.173>
Fore
270 -6 m 1x70
 261 -30 l 1
 285 -26 298 -25 313 -25 c 0x70
 339 -25 364 -29 394 -38 c 0
 416 -44 422 -45 433 -45 c 0
 448 -45 458 -42 480 -30 c 0
 506 -15 512 -13 523 -13 c 0
 552 -13 570 -35 564 -63 c 0
 559 -84 546 -98 515 -114 c 0
 474 -136 444 -145 413 -145 c 0xb0
 388 -145 384 -144 340 -125 c 0
 330 -121 308 -117 294 -117 c 0
 273 -117 209 -127 164 -138 c 0
 151 -141 141 -143 135 -143 c 0
 109 -143 92 -119 98 -91 c 0
 101 -76 107 -68 126 -53 c 2
 200 7 l 1
 135 50 109 77 91 124 c 0
 74 173 70 231 83 292 c 0
 119 460 273 597 427 597 c 0
 580 597 677 460 641 294 c 0
 618 183 542 84 435 27 c 0
 392 4 344 -7 288 -7 c 0
 286 -7 278 -7 270 -6 c 1x70
406 497 m 0
 308 497 207 404 183 291 c 0
 159 179 220 85 318 85 c 0
 415 85 517 178 540 288 c 0
 565 404 505 497 406 497 c 0
EndSplineSet
EndChar
StartChar: R
Encoding: 50 82 61
Width: 600
Flags: W
HStem: 0 100<66.0605 115 215 259.975 561 583.975> 222 100<262 337> 483 100<168.341 197 297 482.683>
Fore
241 222 m 1
 215 100 l 1
 250 100 l 2
 277 100 286 98 294 91 c 0
 304 81 309 66 306 50 c 0
 302 33 289 16 272 7 c 0
 265 3 249 0 229 0 c 2
 79 0 l 2
 56 0 43 3 36 10 c 0
 25 19 20 35 24 50 c 0
 27 67 40 84 57 93 c 0
 67 99 76 100 100 100 c 2
 115 100 l 1
 197 483 l 1
 182 483 l 2
 157 483 146 485 139 492 c 0
 128 502 123 517 126 533 c 0
 130 550 143 567 159 576 c 0
 170 582 177 583 203 583 c 2
 426 583 l 2
 556 583 630 510 608 405 c 0
 595 342 549 294 468 254 c 1
 506 213 533 167 561 100 c 1
 574 100 l 2
 599 100 610 98 618 91 c 0
 628 82 633 66 630 50 c 0
 626 33 613 16 596 7 c 0
 589 3 573 0 553 0 c 2
 474 0 l 1
 445 97 376 207 337 222 c 1
 241 222 l 1
262 322 m 1
 338 322 l 2
 422 322 492 358 503 408 c 0
 512 451 473 483 409 483 c 2
 297 483 l 1
 262 322 l 1
EndSplineSet
EndChar
StartChar: S
Encoding: 51 83 62
Width: 600
Flags: W
HStem: -14 100<228.79 415.813> 497 100<320.769 484.338>
Fore
630 531 m 2
 611 443 l 2
 605 415 602 407 592 397 c 0
 580 384 563 376 548 376 c 0
 534 376 521 382 515 390 c 0
 510 398 510 398 509 430 c 0
 509 470 467 497 405 497 c 0
 342 497 285 464 275 421 c 0
 271 400 281 377 301 366 c 0
 319 356 323 354 395 340 c 0
 479 324 514 310 540 285 c 0
 573 253 583 212 572 160 c 0
 550 56 443 -14 306 -14 c 0
 252 -14 202 -1 158 25 c 1
 137 5 129 1 113 1 c 0
 78 1 67 22 76 67 c 2
 90 133 l 2
 96 158 100 169 109 179 c 0
 122 192 138 199 154 199 c 0
 168 199 180 194 187 185 c 0
 193 178 193 178 195 151 c 0
 197 115 254 86 320 86 c 0
 394 86 459 119 468 162 c 0
 473 183 463 203 444 215 c 0
 425 226 410 230 344 242 c 0
 282 253 252 263 224 281 c 0
 179 310 159 363 171 420 c 0
 193 521 302 597 426 597 c 0
 477 597 519 586 549 564 c 1
 564 589 575 597 595 597 c 0
 612 597 627 588 632 574 c 0
 636 565 635 557 630 531 c 2
EndSplineSet
EndChar
StartChar: T
Encoding: 52 84 63
Width: 600
Flags: W
HStem: 0 100<170.689 270 370 445.975> 483 100<245 352 452 561>
Fore
452 483 m 1
 370 100 l 1
 436 100 l 2
 463 100 471 98 479 91 c 0
 490 81 495 66 492 50 c 0
 488 33 475 16 458 7 c 0
 451 3 435 0 415 0 c 2
 184 0 l 2
 161 0 149 3 141 10 c 0
 130 19 125 35 129 50 c 0
 132 67 145 84 162 93 c 0
 172 99 179 100 205 100 c 2
 270 100 l 1
 352 483 l 1
 245 483 l 1
 225 390 l 2
 219 363 215 355 206 345 c 0
 194 332 177 324 161 324 c 0
 144 324 129 333 123 348 c 0
 120 357 120 367 125 390 c 2
 166 583 l 1
 682 583 l 1
 641 390 l 2
 635 362 632 355 622 345 c 0
 610 332 593 324 577 324 c 0
 560 324 545 334 539 348 c 0
 536 357 536 367 541 390 c 2
 561 483 l 1
 452 483 l 1
EndSplineSet
EndChar
StartChar: U
Encoding: 53 85 64
Width: 600
Flags: W
HStem: -14 100<246.258 400.077> 483 100<165.527 174 274 341.604 483.341 532 632 688.913>
Fore
632 483 m 1
 573 205 l 2
 557 134 519 78 452 35 c 0
 402 2 352 -14 297 -14 c 0
 243 -14 198 2 162 35 c 0
 116 78 99 134 115 205 c 2
 174 483 l 1
 134 484 116 501 123 533 c 0
 127 550 140 567 156 576 c 0
 167 582 175 583 200 583 c 2
 330 583 l 2
 358 583 365 582 374 574 c 0
 384 564 389 549 385 533 c 0
 382 516 369 499 352 490 c 0
 343 485 332 483 309 483 c 2
 274 483 l 1
 213 196 l 2
 200 135 247 86 318 86 c 0
 389 86 458 135 471 196 c 2
 532 483 l 1
 497 483 l 2
 471 483 461 485 454 492 c 0
 443 502 438 517 441 533 c 0
 445 550 458 567 474 576 c 0
 485 582 492 583 518 583 c 2
 648 583 l 2
 675 583 682 581 692 574 c 0
 703 564 707 549 703 533 c 0
 696 501 672 483 632 483 c 1
EndSplineSet
EndChar
StartChar: V
Encoding: 54 86 65
Width: 600
Flags: W
HStem: 0 21G<244.901 360.754> 483 100<134.341 150 262 313.392 512.341 550 656 690.357>
Fore
334 144 m 1
 550 483 l 1
 526 483 l 2
 499 483 491 485 482 492 c 1
 472 502 467 517 470 533 c 0
 474 550 487 567 503 576 c 0
 514 582 521 583 547 583 c 2
 679 583 l 2
 705 583 714 581 722 574 c 0
 733 564 738 549 734 533 c 0
 730 513 712 493 694 487 c 0
 684 484 677 483 656 483 c 1
 348 0 l 1
 249 0 l 1
 150 483 l 1
 130 483 122 484 114 487 c 0
 98 493 88 513 92 533 c 0
 96 550 109 567 125 576 c 0
 136 582 143 583 169 583 c 2
 302 583 l 2
 328 583 337 581 346 574 c 0
 356 564 361 549 357 533 c 0
 354 516 341 499 324 490 c 0
 314 485 305 483 281 483 c 2
 262 483 l 1
 334 144 l 1
EndSplineSet
EndChar
StartChar: W
Encoding: 55 87 66
Width: 600
Flags: W
HStem: 0 21G<98 219.83 390.545 509.749> 483 100<242 323.119 502.341 569>
Fore
359 277 m 1
 209 0 l 1
 98 0 l 1
 139 483 l 1
 110 487 97 503 103 531 c 0
 107 550 119 566 136 576 c 0
 147 582 154 583 180 583 c 2
 311 583 l 2
 339 583 346 581 355 574 c 0
 366 564 371 549 367 533 c 0
 364 516 351 499 334 490 c 0
 324 485 314 483 290 483 c 2
 242 483 l 1
 220 211 l 1
 344 437 l 1
 448 437 l 1
 476 211 l 1
 569 483 l 1
 516 483 l 2
 491 483 480 485 473 492 c 0
 462 502 457 517 460 533 c 0
 464 550 477 567 493 576 c 0
 504 582 511 583 537 583 c 2
 668 583 l 2
 695 583 703 581 712 574 c 0
 722 564 727 549 723 533 c 0
 718 506 697 488 666 483 c 1
 503 0 l 1
 393 0 l 1
 359 277 l 1
EndSplineSet
EndChar
StartChar: X
Encoding: 56 88 67
Width: 600
Flags: W
HStem: 0 100<34.8 90 552 556.138> 483 100<624 677.293>
Fore
132 533 m 0
 140 568 172 583 209 583 c 2
 300 583 l 2
 328 583 335 581 344 574 c 0
 355 564 360 549 356 533 c 0
 352 511 340 498 308 484 c 1
 380 375 l 1
 496 484 l 1
 471 498 464 511 468 533 c 0
 471 548 483 564 498 573 c 0
 507 580 524 583 546 583 c 2
 636 583 l 2
 663 583 670 581 679 574 c 0
 691 564 695 549 691 533 c 0
 685 502 659 484 624 483 c 1
 427 297 l 1
 552 100 l 1
 590 99 607 81 601 50 c 0
 597 33 584 16 567 7 c 0
 558 2 545 0 524 0 c 2
 413 0 l 2
 369 0 351 17 358 50 c 0
 364 80 388 98 423 100 c 1
 348 220 l 1
 220 100 l 1
 254 98 270 80 264 50 c 0
 260 33 247 16 230 7 c 0
 221 2 208 0 187 0 c 2
 76 0 l 2
 52 0 41 3 33 9 c 0
 22 19 17 34 21 50 c 0
 27 81 53 100 90 100 c 1
 298 298 l 1
 180 483 l 1
 143 485 126 503 132 533 c 0
EndSplineSet
EndChar
StartChar: Y
Encoding: 57 89 68
Width: 600
Flags: W
HStem: 0 100<170.715 271 371 446.915> 483 100<148.831 188 617 677.297>
Fore
134 533 m 0
 142 569 173 583 212 583 c 2
 301 583 l 2
 328 583 336 581 345 574 c 0
 355 564 360 549 356 533 c 0
 351 510 336 495 308 484 c 1
 374 348 l 1
 497 484 l 1
 472 494 462 510 467 533 c 0
 471 550 484 567 500 576 c 0
 511 582 520 583 545 583 c 2
 637 583 l 2
 664 583 672 581 680 574 c 0
 692 564 696 549 692 533 c 0
 686 502 653 479 619 483 c 2
 617 483 l 1
 402 245 l 1
 371 100 l 1
 436 100 l 2
 464 100 472 98 480 91 c 0
 491 81 496 66 493 50 c 0
 489 33 476 16 459 7 c 0
 452 3 436 0 415 0 c 2
 185 0 l 2
 161 0 149 3 141 10 c 0
 130 19 125 34 129 50 c 0
 132 67 145 84 162 93 c 0
 172 99 179 100 206 100 c 2
 271 100 l 1
 302 245 l 1
 188 483 l 1
 147 483 127 501 134 533 c 0
EndSplineSet
EndChar
StartChar: Z
Encoding: 58 90 69
Width: 600
Flags: W
HStem: 0 100<222 448> 483 100<299 478>
Fore
222 100 m 1
 448 100 l 1
 464 172 l 2
 469 197 473 208 482 218 c 0
 495 230 512 238 528 238 c 0
 545 238 560 229 565 214 c 0
 570 205 569 198 564 172 c 2
 527 0 l 1
 73 0 l 1
 94 100 l 1
 478 483 l 1
 299 483 l 1
 284 413 l 2
 278 386 274 377 265 368 c 0
 252 355 236 347 220 347 c 0
 203 347 189 356 182 371 c 0
 179 380 178 388 184 413 c 2
 220 583 l 1
 628 583 l 1
 607 486 l 1
 222 100 l 1
EndSplineSet
EndChar
StartChar: bracketleft
Encoding: 59 91 70
Width: 600
Flags: W
HStem: -148 100<340 410.371> 527 100<462 552.654>
VStem: 219 378<-148 577>
Fore
462 527 m 1
 340 -48 l 1
 399 -48 l 2
 426 -48 433 -50 442 -57 c 0
 453 -67 458 -82 454 -98 c 0
 451 -115 438 -131 421 -141 c 0
 412 -146 400 -148 378 -148 c 2
 219 -148 l 1
 383 627 l 1
 541 627 l 2
 568 627 576 625 585 618 c 0
 596 608 600 593 597 577 c 0
 593 560 580 543 564 534 c 0
 554 529 542 527 520 527 c 2
 462 527 l 1
EndSplineSet
EndChar
StartChar: backslash
Encoding: 60 92 71
Width: 600
Flags: W
VStem: 221 282<-65 647>
Fore
322 651 m 1
 499 -27 l 2
 504 -45 505 -55 503 -65 c 0
 498 -90 469 -113 443 -113 c 0
 419 -113 409 -103 400 -69 c 2
 225 610 l 1
 219 630 218 636 221 647 c 0
 226 672 254 695 281 695 c 0
 304 695 315 685 322 651 c 1
EndSplineSet
EndChar
StartChar: bracketright
Encoding: 61 93 72
Width: 600
Flags: W
HStem: -148 100<148.902 240> 527 100<291.629 362>
VStem: 105 378<-98 627>
Fore
240 -48 m 1
 362 527 l 1
 303 527 l 2
 276 527 268 529 260 536 c 0
 249 546 244 561 248 577 c 0
 251 594 264 610 281 620 c 0
 290 625 302 627 324 627 c 2
 483 627 l 1
 319 -148 l 1
 161 -148 l 2
 134 -148 126 -146 116 -139 c 0
 106 -129 102 -114 105 -98 c 0
 109 -81 121 -64 138 -55 c 0
 147 -50 160 -48 182 -48 c 2
 240 -48 l 1
EndSplineSet
EndChar
StartChar: asciicircum
Encoding: 62 94 73
Width: 600
Flags: W
HStem: 325 327<202 438>
VStem: 163 434<348 355 375 390 375 375>
Fore
404 494 m 1
 258 356 l 2
 230 330 222 325 202 325 c 0
 175 325 157 348 163 375 c 0
 166 390 172 398 194 419 c 2
 438 652 l 1
 584 419 l 2
 598 398 600 390 597 375 c 0
 591 348 563 325 536 325 c 0
 517 325 509 330 493 355 c 2
 404 494 l 1
EndSplineSet
EndChar
StartChar: underscore
Encoding: 63 95 74
Width: 600
Flags: W
HStem: -125 50<-28 585>
Fore
596 -75 m 1
 585 -125 l 1
 -39 -125 l 1
 -28 -75 l 1
 596 -75 l 1
EndSplineSet
EndChar
StartChar: grave
Encoding: 64 96 75
Width: 600
Flags: W
HStem: 496 200<310 418>
VStem: 265 198<532 660>
Fore
339 680 m 2
 448 569 l 2
 461 556 466 545 463 532 c 0
 459 513 438 496 418 496 c 0
 408 496 402 500 390 512 c 2
 281 624 l 1
 266 637 263 647 265 660 c 0
 270 680 289 696 310 696 c 0
 321 696 325 693 339 680 c 2
EndSplineSet
EndChar
StartChar: a
Encoding: 65 97 76
Width: 600
Flags: W
HStem: -16 100<178.408 348.975> 196 92<226.812 385.287> 350 100<280.977 446.982>
Fore
388 0 m 1
 393 23 l 1
 340 -2 278 -16 219 -16 c 0
 120 -16 52 45 67 119 c 0
 74 150 96 185 126 212 c 0
 182 262 256 288 345 288 c 0
 377 288 408 285 447 278 c 1
 452 301 l 2
 459 335 433 350 369 350 c 0
 336 350 298 345 250 333 c 0
 232 329 218 327 209 327 c 0
 181 327 164 349 170 378 c 0
 175 399 188 413 209 420 c 0
 261 437 338 450 388 450 c 4
 511 450 573 395 553 302 c 2
 510 100 l 1
 526 100 l 2
 553 100 562 98 570 91 c 0
 580 81 585 66 582 50 c 0
 578 33 565 16 548 7 c 0
 540 2 526 0 505 0 c 2
 388 0 l 1
418 135 m 1
 428 185 l 1
 390 192 354 196 320 196 c 0
 252 196 182 161 174 123 c 0
 169 101 199 84 242 84 c 0
 296 84 355 101 418 135 c 1
EndSplineSet
EndChar
StartChar: b
Encoding: 66 98 77
Width: 600
Flags: W
HStem: -14 100<260.509 430.169> 0 100<44.8746 95> 351 100<310.67 478.615> 604 20G<179 307>
Fore
307 624 m 1x70
 259 401 l 1
 309 435 360 451 420 451 c 0
 495 451 546 430 583 386 c 0
 620 342 631 284 617 218 c 0
 604 153 567 96 512 51 c 0
 456 7 396 -14 322 -14 c 0xb0
 263 -14 226 -1 181 35 c 1
 174 0 l 1
 58 0 l 2
 34 0 22 3 14 9 c 0
 4 19 -1 34 3 50 c 0
 6 67 19 84 36 93 c 0
 46 99 54 100 79 100 c 2
 95 100 l 1
 185 524 l 1
 169 524 l 2
 143 524 134 526 125 533 c 0
 115 543 111 558 114 574 c 0
 118 591 130 608 147 617 c 0
 157 623 167 624 191 624 c 2
 307 624 l 1x70
341 86 m 0
 428 86 501 142 518 219 c 0
 525 252 517 286 498 311 c 1
 475 339 446 351 398 351 c 0
 349 351 313 339 279 311 c 0
 249 286 228 253 221 220 c 0
 204 141 253 86 341 86 c 0
EndSplineSet
EndChar
StartChar: c
Encoding: 67 99 78
Width: 600
Flags: W
HStem: -16 100<236.051 439.249> 350 100<291.877 479.105>
Fore
384 350 m 0
 289 350 216 292 198 207 c 0
 181 125 231 84 348 84 c 0
 388 84 430 89 456 97 c 0
 476 103 482 107 512 128 c 0
 523 136 533 140 545 140 c 0
 572 140 590 117 584 89 c 0
 578 63 550 37 504 16 c 0
 459 -4 393 -16 320 -16 c 0
 223 -16 165 5 126 53 c 0
 95 93 85 146 98 207 c 0
 128 350 255 450 406 450 c 0
 463 450 509 440 543 420 c 1
 554 441 567 450 588 450 c 0
 621 450 631 430 622 384 c 2
 605 307 l 2
 600 281 596 271 587 262 c 0
 574 249 557 241 541 241 c 0
 528 241 515 247 508 255 c 1
 501 261 501 267 500 289 c 0
 500 307 496 316 485 325 c 0
 462 341 428 350 384 350 c 0
EndSplineSet
EndChar
StartChar: d
Encoding: 68 100 79
Width: 600
Flags: W
HStem: -14 100<219.937 385.979> 351 100<264.165 438.623> 604 20G<535 664>
Fore
664 624 m 1
 552 100 l 1
 568 100 l 2
 595 100 604 98 612 91 c 0
 622 81 627 66 624 50 c 0
 620 33 607 16 590 7 c 0
 581 2 570 0 547 0 c 2
 431 0 l 1
 438 35 l 1
 378 -1 336 -14 277 -14 c 0
 202 -14 150 7 114 51 c 0
 77 96 66 153 80 219 c 0
 93 284 130 342 185 386 c 0
 240 430 301 451 377 451 c 0
 437 451 480 435 516 401 c 1
 543 525 l 1
 527 525 l 2
 501 525 491 527 483 534 c 0
 473 544 468 559 471 575 c 0
 475 591 487 608 504 617 c 0
 514 623 522 624 548 624 c 2
 664 624 l 1
356 351 m 0
 308 351 272 339 238 311 c 0
 208 286 187 252 180 219 c 0
 164 144 210 86 300 86 c 0
 348 86 385 99 419 126 c 0
 449 151 470 185 477 217 c 0
 485 253 478 286 458 311 c 0
 435 339 406 351 356 351 c 0
EndSplineSet
EndChar
StartChar: e
Encoding: 69 101 80
Width: 600
Flags: W
HStem: -16 100<224.313 420.458> 172 88<200 494> 350 100<273.106 451.871>
Fore
587 172 m 1
 179 172 l 1
 189 112 236 84 324 84 c 0
 370 84 396 88 493 112 c 0
 505 115 518 117 527 117 c 0
 554 117 570 95 564 67 c 0
 560 47 546 33 520 22 c 0
 470 2 365 -16 294 -16 c 0
 139 -16 50 80 79 216 c 0
 107 348 241 450 387 450 c 0
 536 450 624 349 595 211 c 2
 587 172 l 1
200 260 m 1
 494 260 l 1
 490 315 439 350 366 350 c 0
 293 350 227 314 200 260 c 1
EndSplineSet
EndChar
StartChar: f
Encoding: 70 102 81
Width: 600
Flags: W
HStem: 0 100<127.689 220 320 468.975> 337 100<210.367 271 392 554.371> 523 100<416.59 562.163>
Fore
371 337 m 1
 320 100 l 1
 459 100 l 2
 486 100 495 98 503 91 c 0
 513 81 518 66 515 50 c 0
 511 33 499 17 481 7 c 0
 474 3 458 0 438 0 c 2
 141 0 l 2
 118 0 105 3 97 10 c 0
 87 19 82 35 86 50 c 0
 89 67 102 84 119 93 c 0
 129 99 136 100 162 100 c 2
 220 100 l 1
 271 337 l 1
 224 337 l 2
 200 337 188 339 181 347 c 1
 170 356 165 371 168 387 c 0
 172 404 184 421 201 430 c 0
 212 436 219 437 246 437 c 2
 292 437 l 1
 300 474 l 2
 319 566 405 623 524 623 c 0
 566 623 628 616 658 607 c 0
 684 600 695 583 690 560 c 0
 684 531 658 509 632 509 c 0
 626 509 616 510 605 512 c 0
 572 518 525 523 494 523 c 0
 437 523 407 507 400 474 c 2
 392 437 l 1
 543 437 l 2
 570 437 577 435 586 428 c 0
 597 418 602 403 598 387 c 0
 595 370 582 354 565 344 c 0
 556 339 544 337 522 337 c 2
 371 337 l 1
EndSplineSet
EndChar
StartChar: g
Encoding: 71 103 82
Width: 600
Flags: W
HStem: -205 100<149.901 363.127> -14 100<218.816 365.764> 351 100<267.524 416.977>
Fore
495 401 m 1
 503 437 l 1
 619 437 l 2
 646 437 654 435 663 428 c 0
 673 418 678 403 674 387 c 0
 671 370 658 353 641 344 c 0
 632 339 621 337 598 337 c 2
 582 337 l 1
 506 -20 l 2
 483 -126 384 -205 275 -205 c 2
 163 -205 l 2
 138 -205 128 -203 121 -195 c 1
 109 -186 105 -171 108 -155 c 0
 112 -138 124 -121 141 -112 c 0
 151 -106 159 -105 185 -105 c 2
 294 -105 l 2
 351 -105 395 -72 406 -20 c 2
 417 35 l 1
 364 1 318 -14 266 -14 c 0
 132 -14 51 86 79 218 c 0
 108 351 231 451 365 451 c 0
 419 451 463 434 495 401 c 1
346 351 m 0
 270 351 195 292 180 219 c 0
 164 145 213 86 289 86 c 0
 365 86 441 145 456 217 c 0
 472 292 424 351 346 351 c 0
EndSplineSet
EndChar
StartChar: h
Encoding: 72 104 83
Width: 600
Flags: W
HStem: 0 100<77.3753 116 216 233.865 390.649 430 530 547.138> 350 100<337.277 442.248> 604 20G<200 328>
Fore
328 624 m 1
 278 389 l 1
 326 430 376 450 428 450 c 0
 534 450 591 384 569 284 c 2
 530 100 l 1
 536 100 l 2
 563 100 572 98 580 91 c 0
 590 81 595 66 592 50 c 0
 588 33 575 16 558 7 c 0
 549 2 536 0 515 0 c 2
 403 0 l 2
 379 0 367 3 359 9 c 0
 348 19 343 34 347 50 c 0
 350 67 363 83 380 93 c 0
 390 98 399 100 424 100 c 2
 430 100 l 1
 467 271 l 2
 474 305 472 317 458 331 c 0
 444 345 426 350 395 350 c 0
 348 350 324 338 255 283 c 1
 216 100 l 1
 222 100 l 2
 250 100 258 98 266 91 c 0
 277 81 282 66 279 50 c 0
 275 33 263 17 245 7 c 0
 236 2 222 0 201 0 c 2
 89 0 l 2
 65 0 54 3 46 9 c 0
 35 19 30 35 34 50 c 0
 37 67 50 84 67 93 c 0
 77 98 85 100 110 100 c 2
 116 100 l 1
 206 524 l 1
 190 524 l 2
 164 524 155 526 146 533 c 0
 136 543 132 559 135 574 c 0
 139 591 151 608 168 617 c 0
 178 622 188 624 212 624 c 2
 328 624 l 1
EndSplineSet
EndChar
StartChar: i
Encoding: 73 105 84
Width: 600
Flags: W
HStem: 0 100<114.689 271 371 502.975> 337 100<229.553 322> 518 105<350 446>
VStem: 73 476<31.3304 69.4157 50 50>
Fore
443 437 m 1
 371 100 l 1
 493 100 l 2
 520 100 528 98 536 91 c 0
 547 81 552 66 549 50 c 0
 545 33 533 17 515 7 c 0
 508 3 492 0 472 0 c 2
 128 0 l 2
 105 0 92 3 85 10 c 0
 74 19 69 34 73 50 c 0
 76 67 89 84 106 93 c 0
 116 99 123 100 149 100 c 2
 271 100 l 1
 322 337 l 1
 244 337 l 2
 219 337 207 339 200 347 c 1
 189 356 184 371 187 387 c 0
 191 404 203 421 220 430 c 0
 231 436 239 437 265 437 c 2
 443 437 l 1
468 623 m 1
 446 518 l 1
 328 518 l 1
 350 623 l 1
 468 623 l 1
EndSplineSet
EndChar
StartChar: j
Encoding: 74 106 85
Width: 600
Flags: W
HStem: -205 100<126.087 341.127> 337 100<244.341 460> 518 105<443 540>
VStem: 84 497<-155 437>
Fore
460 337 m 1
 258 337 l 2
 233 337 222 339 215 347 c 1
 204 356 199 372 202 387 c 0
 206 404 218 421 235 430 c 0
 246 436 253 437 279 437 c 2
 581 437 l 1
 484 -20 l 2
 461 -125 362 -205 253 -205 c 2
 139 -205 l 2
 114 -205 104 -203 97 -195 c 1
 85 -186 81 -170 84 -155 c 0
 88 -138 101 -121 117 -112 c 0
 127 -106 136 -105 161 -105 c 2
 272 -105 l 2
 329 -105 373 -72 384 -20 c 2
 460 337 l 1
562 623 m 1
 540 518 l 1
 421 518 l 1
 443 623 l 1
 562 623 l 1
EndSplineSet
EndChar
StartChar: k
Encoding: 75 107 86
Width: 600
Flags: W
HStem: 0 100<85.8746 136 492 537.098> 337 100<501 561.604> 604 20G<220 348>
Fore
250 164 m 1
 215 0 l 1
 99 0 l 2
 55 0 37 17 44 50 c 0
 47 67 60 84 77 93 c 0
 87 99 95 100 120 100 c 2
 136 100 l 1
 226 524 l 1
 210 524 l 2
 184 524 175 526 166 533 c 0
 156 543 152 558 155 574 c 0
 159 591 171 608 188 617 c 0
 198 623 208 624 232 624 c 2
 348 624 l 1
 276 287 l 1
 368 350 l 1
 359 364 357 373 360 387 c 0
 364 404 376 420 393 430 c 0
 402 435 414 437 438 437 c 2
 550 437 l 2
 575 437 585 435 594 428 c 0
 605 418 609 403 605 387 c 0
 602 370 589 354 572 344 c 0
 563 339 552 337 529 337 c 2
 501 337 l 1
 362 241 l 1
 492 100 l 1
 525 100 l 2
 553 100 561 98 569 91 c 0
 580 81 585 66 582 50 c 0
 578 33 566 17 548 7 c 0
 539 2 526 0 504 0 c 2
 386 0 l 2
 342 0 324 17 331 50 c 0
 334 64 340 74 354 87 c 1
 271 178 l 1
 250 164 l 1
EndSplineSet
EndChar
StartChar: l
Encoding: 76 108 87
Width: 600
Flags: W
HStem: 0 100<114.689 271 371 502.975> 524 100<269.299 361>
VStem: 73 476<31.76 69.4157 50 50>
Fore
483 624 m 1
 371 100 l 1
 493 100 l 2
 520 100 528 98 536 91 c 0
 547 81 552 66 549 50 c 0
 545 33 533 17 515 7 c 0
 508 3 492 0 472 0 c 2
 128 0 l 2
 105 0 92 3 85 10 c 0
 74 19 69 35 73 50 c 0
 76 67 89 84 106 93 c 0
 116 99 123 100 149 100 c 2
 271 100 l 1
 361 524 l 1
 283 524 l 2
 258 524 247 526 240 534 c 1
 227 543 224 558 227 574 c 0
 231 592 243 608 260 617 c 0
 270 623 280 624 305 624 c 2
 483 624 l 1
EndSplineSet
EndChar
StartChar: m
Encoding: 77 109 88
Width: 600
Flags: W
HStem: 0 100<5.84644 62 162 168.138 584 620.087> 350 100<252.856 340.414 449.826 567>
Fore
63 387 m 0
 70 421 101 437 141 437 c 2
 234 437 l 1
 229 413 l 1
 270 441 292 450 322 450 c 0
 361 450 390 434 413 401 c 1
 451 435 487 450 528 450 c 0
 603 450 647 394 631 319 c 2
 584 100 l 1
 622 100 640 82 634 50 c 0
 627 17 601 0 557 0 c 2
 463 0 l 1
 529 311 l 2
 535 340 528 350 502 350 c 0
 476 350 458 341 417 305 c 1
 373 100 l 1
 411 100 429 81 423 50 c 0
 419 33 407 17 389 7 c 0
 380 2 367 0 346 0 c 2
 252 0 l 1
 318 311 l 2
 324 339 316 350 291 350 c 0
 264 350 243 339 206 305 c 1
 162 100 l 1
 201 100 219 82 213 50 c 0
 209 33 197 17 179 7 c 0
 170 2 157 0 136 0 c 2
 48 0 l 2
 24 0 12 3 4 10 c 0
 -7 19 -12 35 -8 50 c 0
 -2 82 24 100 62 100 c 1
 113 337 l 1
 75 338 57 356 63 387 c 0
EndSplineSet
EndChar
StartChar: n
Encoding: 78 110 89
Width: 600
Flags: W
HStem: 0 100<77.3753 116 216 233.138 373.893 431 531 537.138> 350 100<335.544 460.801>
Fore
116 387 m 0
 124 423 155 437 194 437 c 2
 288 437 l 1
 278 389 l 1
 335 435 373 450 428 450 c 0
 528 450 593 392 570 282 c 2
 531 100 l 1
 570 100 588 82 582 50 c 0
 578 33 565 16 548 7 c 0
 539 2 526 0 505 0 c 2
 416 0 l 2
 371 0 353 17 360 50 c 0
 366 82 392 100 431 100 c 1
 469 278 l 2
 480 327 456 350 394 350 c 0
 348 350 313 333 255 282 c 1
 216 100 l 1
 222 100 l 2
 249 100 257 98 265 91 c 0
 276 81 281 66 278 50 c 0
 274 33 262 17 244 7 c 0
 235 2 222 0 201 0 c 2
 89 0 l 2
 65 0 54 3 45 10 c 0
 35 19 30 35 34 50 c 0
 37 67 50 84 67 93 c 0
 77 98 85 100 110 100 c 2
 116 100 l 1
 167 337 l 1
 128 338 109 355 116 387 c 0
EndSplineSet
EndChar
StartChar: o
Encoding: 79 111 90
Width: 600
Flags: W
HStem: -16 100<237.909 408.108> 350 100<284.947 455.779>
Fore
399 450 m 0
 540 450 632 346 604 217 c 0
 576 87 441 -16 297 -16 c 0
 153 -16 60 87 88 217 c 0
 116 349 251 450 399 450 c 0
376 350 m 0
 285 350 204 293 188 217 c 0
 172 142 229 84 318 84 c 0
 407 84 488 142 504 217 c 0
 520 291 463 350 376 350 c 0
EndSplineSet
EndChar
StartChar: p
Encoding: 80 112 91
Width: 600
Flags: W
HStem: -205 100<1.27255 52 152 221.098> 10 100<262.213 437.427> 350 100<318.379 479.858>
Fore
188 66 m 1
 152 -105 l 1
 210 -105 l 2
 236 -105 245 -107 254 -114 c 0
 265 -124 268 -139 265 -155 c 0
 261 -172 249 -188 232 -198 c 0
 223 -203 210 -205 188 -205 c 2
 14 -205 l 2
 -11 -205 -21 -203 -29 -195 c 0
 -40 -186 -44 -171 -41 -155 c 0
 -37 -138 -25 -121 -8 -112 c 0
 2 -106 12 -105 36 -105 c 2
 52 -105 l 1
 146 337 l 1
 130 337 l 2
 104 337 94 339 86 346 c 0
 76 356 71 371 74 387 c 0
 78 404 90 421 107 430 c 0
 117 435 127 437 151 437 c 2
 267 437 l 1
 257 392 l 1
 315 434 361 450 423 450 c 0
 563 450 646 353 619 224 c 0
 592 101 470 10 331 10 c 0
 272 10 232 26 188 66 c 1
397 350 m 0
 355 350 320 341 290 321 c 0
 257 300 230 263 223 231 c 0
 208 160 258 110 346 110 c 0
 432 110 505 160 520 230 c 0
 527 263 516 300 491 321 c 0
 469 341 438 350 397 350 c 0
EndSplineSet
EndChar
StartChar: q
Encoding: 81 113 92
Width: 600
Flags: W
HStem: -205 100<317.437 329 329 409 509 536.098> 10 100<221.117 383.58> 350 100<264.062 440.823>
Fore
409 -105 m 1
 445 66 l 1
 385 26 336 10 277 10 c 0
 138 10 54 101 81 224 c 0
 108 354 233 450 373 450 c 0
 436 450 474 434 514 392 c 1
 524 437 l 1
 640 437 l 2
 667 437 675 435 684 428 c 0
 694 418 699 403 695 387 c 0
 692 370 679 353 662 344 c 0
 653 339 642 337 619 337 c 2
 603 337 l 1
 509 -105 l 1
 525 -105 l 2
 552 -105 560 -107 569 -114 c 0
 579 -124 583 -139 580 -155 c 0
 576 -172 564 -188 547 -198 c 0
 538 -203 525 -205 503 -205 c 2
 329 -205 l 2
 304 -205 294 -203 286 -195 c 0
 275 -185 271 -171 274 -155 c 0
 278 -138 290 -121 307 -112 c 0
 316 -107 327 -105 351 -105 c 2
 409 -105 l 1
355 350 m 0
 314 350 279 340 249 321 c 0
 216 299 189 263 182 230 c 0
 175 197 186 161 211 139 c 0
 232 120 263 110 305 110 c 0
 347 110 384 120 413 139 c 0
 446 161 473 197 480 229 c 0
 495 300 444 350 355 350 c 0
EndSplineSet
EndChar
StartChar: r
Encoding: 82 114 93
Width: 600
Flags: W
HStem: 0 100<106.689 199 299 448.915> 337 100<173.862 250> 349 100<453.926 548.02>
Fore
371 437 m 1xc0
 357 372 l 1
 450 432 491 449 540 449 c 0
 575 449 605 437 630 411 c 0
 648 394 652 382 648 364 c 0
 642 336 615 313 588 313 c 0
 574 313 565 318 552 331 c 0
 540 344 531 349 517 349 c 0xa0
 485 349 442 325 331 247 c 1
 299 100 l 1
 438 100 l 2
 466 100 474 98 482 91 c 0
 493 81 498 66 495 50 c 0
 491 33 478 16 461 7 c 0
 454 3 438 0 417 0 c 2
 120 0 l 2
 97 0 84 3 76 10 c 0
 66 19 61 35 65 50 c 0
 68 67 81 84 98 93 c 0
 108 99 115 100 141 100 c 2
 199 100 l 1
 250 337 l 1
 215 337 l 2
 190 337 179 339 172 347 c 1
 161 356 156 371 159 387 c 0
 166 418 192 437 236 437 c 2
 371 437 l 1xc0
EndSplineSet
EndChar
StartChar: s
Encoding: 83 115 94
Width: 600
Flags: W
HStem: -16 100<221.969 423.555> 350 100<280.262 462.046>
Fore
516 281 m 0
 490 281 480 298 472 321 c 1
 448 341 417 350 375 350 c 0
 324 350 273 333 269 315 c 0
 267 306 275 297 290 291 c 0
 303 286 309 285 371 276 c 0
 444 266 481 255 508 238 c 0
 546 214 563 171 554 125 c 0
 536 43 430 -16 301 -16 c 0
 244 -16 195 -6 159 13 c 1
 146 4 137 1 124 1 c 0
 106 1 92 9 85 25 c 0
 82 34 82 43 87 67 c 2
 94 100 l 2
 100 127 104 136 114 146 c 0
 127 160 142 167 159 167 c 0
 185 167 199 153 201 123 c 1
 225 97 264 84 318 84 c 0
 382 84 439 104 444 127 c 0
 447 140 437 154 417 162 c 0
 402 169 382 173 329 179 c 0
 192 194 142 234 159 313 c 0
 176 393 274 450 394 450 c 0
 443 450 482 442 517 424 c 1
 529 443 540 450 555 450 c 0
 587 450 597 430 588 384 c 2
 580 347 l 2
 574 321 570 311 561 301 c 0
 548 289 531 281 516 281 c 0
EndSplineSet
EndChar
StartChar: t
Encoding: 84 116 95
Width: 600
Flags: W
HStem: -16 100<245.522 430.56> 337 100<137.341 186 307 499.371> 571 20G<282 298.5>
VStem: 95 451<78 387>
Fore
286 337 m 1
 244 141 l 2
 240 120 240 111 244 104 c 0
 253 91 280 84 318 84 c 0
 371 84 421 95 471 118 c 0
 490 127 497 129 508 129 c 0
 535 129 552 106 546 78 c 0
 540 54 526 41 484 24 c 0
 430 1 348 -16 296 -16 c 0
 182 -16 122 37 140 122 c 2
 186 337 l 1
 151 337 l 2
 126 337 115 339 107 347 c 0
 97 356 92 372 95 387 c 0
 99 404 111 421 128 430 c 0
 139 436 146 437 172 437 c 2
 207 437 l 1
 226 525 l 2
 231 551 235 561 245 571 c 0
 257 583 274 591 290 591 c 0
 307 591 322 582 328 567 c 0
 332 558 331 551 326 525 c 2
 307 437 l 1
 488 437 l 2
 515 437 522 435 532 428 c 1
 542 418 547 403 543 387 c 0
 540 370 527 353 510 344 c 0
 501 339 489 337 467 337 c 2
 286 337 l 1
EndSplineSet
EndChar
StartChar: u
Encoding: 85 117 96
Width: 600
Flags: W
HStem: -13 100<236.631 360.744> 337 100<137.527 167 433.713 482>
Fore
270 -13 m 0
 168 -13 105 46 128 156 c 2
 167 337 l 1
 140 337 l 2
 107 337 89 358 95 387 c 0
 99 404 111 421 128 430 c 0
 139 436 147 437 172 437 c 2
 288 437 l 1
 229 159 l 2
 218 110 241 87 301 87 c 0
 351 87 379 100 443 155 c 1
 482 337 l 1
 447 337 l 2
 422 337 416 336 404 347 c 24
 392 358 388 372 391 387 c 0
 395 404 407 421 424 430 c 0
 435 436 444 437 468 437 c 2
 603 437 l 1
 531 100 l 1
 570 100 588 82 582 50 c 0
 578 33 566 17 548 7 c 0
 539 2 526 0 505 0 c 2
 410 0 l 1
 420 48 l 1
 360 1 325 -13 270 -13 c 0
EndSplineSet
EndChar
StartChar: v
Encoding: 86 118 97
Width: 600
Flags: W
HStem: 0 21G<241.362 365.184> 337 100<125.881 152 265 302.604 458.881 481 590 638.604>
Fore
328 122 m 1
 481 337 l 1
 471 337 l 2
 446 337 435 339 428 346 c 0
 417 356 412 371 415 387 c 0
 419 404 431 421 448 430 c 0
 458 435 468 437 492 437 c 2
 627 437 l 2
 653 437 662 435 671 428 c 0
 681 418 686 403 682 387 c 0
 679 370 666 353 649 344 c 0
 640 339 629 337 606 337 c 2
 590 337 l 1
 351 0 l 1
 247 0 l 1
 152 337 l 1
 138 337 l 2
 113 337 102 339 95 346 c 0
 84 356 79 371 82 387 c 0
 86 404 98 421 115 430 c 0
 125 435 135 437 159 437 c 2
 291 437 l 2
 317 437 326 435 335 428 c 0
 345 418 350 403 346 387 c 0
 343 370 330 353 313 344 c 0
 304 339 293 337 270 337 c 2
 265 337 l 1
 328 122 l 1
EndSplineSet
EndChar
StartChar: w
Encoding: 87 119 98
Width: 600
Flags: W
HStem: 0 21G<138.231 244.713 368.354 473.231> 338 99<232 264.342 471.702 520>
VStem: 126 106<261.5 338>
Fore
457 387 m 0
 464 417 489 437 534 437 c 2
 627 437 l 2
 653 437 662 435 670 428 c 0
 681 418 686 403 682 387 c 0
 676 358 653 340 620 338 c 1
 464 0 l 1
 372 0 l 1
 339 181 l 1
 233 0 l 1
 139 0 l 1
 126 338 l 1
 92 340 76 358 82 387 c 0
 90 423 121 437 159 437 c 2
 251 437 l 2
 277 437 286 435 295 428 c 0
 305 418 310 403 306 387 c 0
 303 370 290 354 274 345 c 0
 265 340 257 338 232 338 c 1
 238 185 l 1
 332 343 l 1
 420 343 l 1
 447 185 l 1
 520 338 l 1
 513 338 l 2
 487 338 477 340 470 347 c 0
 459 356 454 372 457 387 c 0
EndSplineSet
EndChar
StartChar: x
Encoding: 88 120 99
Width: 600
Flags: W
HStem: 0 437<455 493 513 534 493 513>
Fore
416 386 m 0
 424 423 455 437 493 437 c 2
 584 437 l 2
 610 437 619 435 628 428 c 0
 639 418 644 403 640 387 c 0
 634 358 611 340 577 337 c 1
 421 227 l 1
 546 100 l 1
 580 98 596 80 590 50 c 0
 586 33 572 16 556 7 c 0
 547 2 534 0 513 0 c 2
 401 0 l 2
 376 0 365 3 356 10 c 0
 345 20 341 34 345 51 c 0
 350 74 369 93 395 100 c 1
 333 161 l 1
 247 100 l 1
 273 88 280 75 275 51 c 0
 268 17 242 0 198 0 c 2
 87 0 l 2
 43 0 25 17 32 50 c 0
 38 80 62 98 96 100 c 1
 268 228 l 1
 164 337 l 1
 131 340 116 358 122 387 c 0
 130 423 161 437 199 437 c 2
 291 437 l 2
 317 437 326 435 335 427 c 0
 345 418 350 403 346 388 c 0
 343 370 330 353 311 342 c 1
 361 293 l 1
 433 343 l 1
 417 356 412 369 416 386 c 0
EndSplineSet
EndChar
StartChar: y
Encoding: 89 121 100
Width: 600
Flags: W
HStem: -205 100<31.8812 165 275 291.098> 337 100<118.01 142 256 311.448 450.831 490>
Fore
436 387 m 0
 444 423 475 437 514 437 c 2
 606 437 l 2
 632 437 641 435 649 428 c 0
 661 418 665 403 661 387 c 0
 655 358 632 340 599 337 c 1
 275 -105 l 1
 280 -105 l 2
 306 -105 315 -107 324 -114 c 0
 334 -124 338 -139 335 -155 c 0
 331 -172 319 -188 302 -198 c 0
 293 -203 280 -205 258 -205 c 2
 43 -205 l 2
 18 -205 13 -206 1 -195 c 24
 -11 -184 -15 -171 -12 -155 c 0
 -8 -138 4 -121 21 -112 c 0
 31 -107 41 -105 65 -105 c 2
 165 -105 l 1
 243 3 l 1
 142 337 l 1
 111 341 97 359 103 387 c 0
 111 422 143 437 180 437 c 2
 270 437 l 2
 296 437 305 435 314 428 c 0
 324 418 329 403 325 387 c 0
 319 356 294 338 256 337 c 1
 322 114 l 1
 490 337 l 1
 449 337 429 355 436 387 c 0
EndSplineSet
EndChar
StartChar: z
Encoding: 90 122 101
Width: 600
Flags: W
HStem: 0 100<265 440> 337 100<269 418>
Fore
265 100 m 1
 440 100 l 1
 450 135 472 154 502 154 c 0
 519 154 534 145 540 130 c 0
 544 121 543 114 538 88 c 2
 519 0 l 1
 85 0 l 1
 103 83 l 1
 418 337 l 1
 269 337 l 1
 267 328 l 2
 261 301 257 293 248 283 c 0
 235 270 219 262 203 262 c 0
 186 262 171 271 165 286 c 0
 162 295 162 305 167 328 c 2
 190 437 l 1
 599 437 l 1
 582 356 l 1
 265 100 l 1
EndSplineSet
EndChar
StartChar: braceleft
Encoding: 91 123 102
Width: 600
Flags: W
HStem: 522 101<457.625 539.086>
VStem: 218 337<240 573>
Fore
451 485 m 2
 418 328 l 2
 409 285 399 268 370 240 c 1
 388 211 389 194 378 142 c 2
 345 -15 l 2
 339 -42 345 -50 373 -52 c 0
 402 -54 417 -75 411 -103 c 0
 405 -133 378 -153 345 -153 c 0
 275 -153 228 -93 243 -22 c 2
 280 151 l 2
 286 179 282 186 256 189 c 0
 225 193 212 210 218 240 c 0
 224 269 245 287 278 290 c 0
 304 293 312 301 318 328 c 2
 353 492 l 2
 368 563 440 623 509 623 c 0
 543 623 561 603 555 573 c 0
 549 545 524 524 495 522 c 0
 467 521 457 512 451 485 c 2
EndSplineSet
EndChar
StartChar: bar
Encoding: 92 124 103
Width: 600
Flags: W
HStem: 602 20G<424 440.5>
VStem: 230 240<-129 598>
Fore
468 556 m 6
 332 -87 l 6
 326 -112 322 -122 313 -132 c 4
 300 -145 283 -153 267 -153 c 4
 250 -153 236 -144 230 -129 c 4
 226 -121 227 -110 232 -87 c 6
 368 556 l 6
 374 582 378 592 387 602 c 4
 400 614 416 622 432 622 c 4
 449 622 464 613 470 598 c 4
 473 589 473 580 468 556 c 6
EndSplineSet
EndChar
StartChar: braceright
Encoding: 93 125 104
Width: 600
Flags: W
HStem: -153 101<160.714 241.531> 603 20G<337.5 389>
VStem: 145 337<-103 230>
Fore
249 -15 m 2
 282 142 l 2
 291 185 301 202 330 230 c 1
 312 259 311 276 322 328 c 2
 355 485 l 2
 361 512 355 520 327 522 c 0
 298 524 283 545 289 573 c 0
 295 603 321 623 354 623 c 0
 424 623 472 563 457 492 c 2
 420 319 l 2
 414 291 418 284 444 281 c 0
 475 277 488 260 482 230 c 0
 476 201 455 183 422 180 c 0
 396 177 388 169 382 142 c 2
 347 -22 l 2
 332 -93 259 -153 190 -153 c 0
 156 -153 139 -133 145 -103 c 0
 151 -75 176 -54 205 -52 c 0
 233 -51 243 -42 249 -15 c 2
EndSplineSet
EndChar
StartChar: asciitilde
Encoding: 94 126 105
Width: 600
Flags: W
HStem: 179 105<422.695 482.871> 281 104<238.237 298.838>
VStem: 116 489<252 254 307 314 252 314>
Fore
565 364 m 0xa0
 592 364 610 341 605 314 c 0
 600 294 590 280 548 241 c 0
 502 197 468 179 429 179 c 0xa0
 390 179 357 200 308 254 c 0
 291 272 280 281 272 281 c 0
 262 281 250 272 216 239 c 0
 183 207 174 201 156 201 c 0
 129 201 110 225 116 252 c 0
 120 271 134 290 169 322 c 0
 218 367 254 385 295 385 c 0x60
 337 385 361 370 415 307 c 1
 430 292 440 284 449 284 c 0
 460 284 476 297 508 330 c 0
 534 357 545 364 565 364 c 0xa0
EndSplineSet
EndChar
StartChar: exclamdown
Encoding: 96 161 107
Width: 600
Flags: W
HStem: 294 132<329.141 354 354 424.719>
VStem: 189 263<-147 360>
Fore
198 -114 m 1
 290 183 l 2
 299 214 321 232 349 232 c 0
 377 232 392 213 389 183 c 2
 355 -114 l 1
 353 -127 351 -141 350 -147 c 0
 340 -193 299 -227 252 -227 c 0
 206 -227 179 -193 189 -147 c 0
 190 -140 194 -126 198 -114 c 1
383 426 m 2
 400 426 l 2
 437 426 459 397 452 360 c 0
 444 323 408 294 371 294 c 2
 354 294 l 2
 317 294 294 323 302 360 c 0
 309 397 346 426 383 426 c 2
EndSplineSet
EndChar
StartChar: cent
Encoding: 97 162 108
Width: 600
Flags: W
VStem: 149 442<312 333 441 483 312 483>
Fore
372 99 m 1
 356 22 l 2
 350 -5 346 -13 337 -23 c 0
 324 -36 308 -44 292 -44 c 0
 275 -44 261 -35 254 -20 c 0
 250 -12 251 -1 256 22 c 2
 273 103 l 1
 175 128 127 209 149 312 c 0
 170 409 257 493 361 517 c 1
 377 594 l 2
 383 621 387 630 397 640 c 0
 410 654 426 661 442 661 c 0
 458 661 474 652 479 637 c 0
 483 628 483 620 477 594 c 2
 463 527 l 1
 493 522 513 515 531 503 c 1
 541 506 546 507 552 507 c 0
 570 507 584 498 591 483 c 0
 595 474 594 467 589 441 c 2
 580 399 l 2
 574 372 570 364 561 354 c 0
 548 341 532 333 516 333 c 0
 504 333 490 339 484 346 c 1
 478 354 478 354 477 384 c 0
 476 414 456 427 411 427 c 0
 332 427 263 377 249 310 c 0
 236 247 280 197 352 197 c 0
 389 197 425 208 465 233 c 0
 478 241 489 245 501 245 c 0
 527 245 546 221 540 194 c 0
 531 152 463 114 372 99 c 1
EndSplineSet
EndChar
StartChar: sterling
Encoding: 98 163 109
Width: 600
Flags: W
HStem: 0 100<268 471> 243 100<137.527 216 321 399.119> 444 21G<492.5 515.5> 498 100<344.26 456.383>
Fore
366 243 m 2
 321 243 l 1
 319 231 317 221 316 216 c 0
 307 172 294 142 268 100 c 1
 471 100 l 1
 482 130 502 146 530 146 c 0
 561 146 576 124 569 90 c 0
 557 32 512 0 442 0 c 2
 121 0 l 2
 98 0 86 3 78 10 c 0
 67 19 62 35 66 51 c 0
 72 78 90 93 126 100 c 0
 152 105 165 113 178 132 c 0
 196 157 209 188 217 224 c 0
 217 227 219 235 220 243 c 1
 151 243 l 2
 126 243 115 245 108 252 c 0
 97 262 92 277 95 293 c 0
 99 310 112 327 128 336 c 0
 139 342 147 343 172 343 c 2
 216 343 l 1
 212 379 212 403 218 432 c 0
 238 529 325 598 426 598 c 0
 504 598 573 546 562 495 c 0
 556 467 529 444 502 444 c 0
 483 444 479 447 461 472 c 0
 449 490 431 498 404 498 c 0
 363 498 326 472 319 437 c 0
 314 416 314 414 319 343 c 1
 387 343 l 2
 414 343 422 341 431 334 c 0
 442 324 447 309 443 293 c 0
 440 276 427 260 410 250 c 0
 400 245 390 243 366 243 c 2
EndSplineSet
EndChar
StartChar: currency
Encoding: 99 164 110
Width: 600
Flags: W
HStem: 97 100<288.227 380.701> 388 100<342.157 437.581>
Fore
213 388 m 1
 198 408 166 438 173 469 c 0
 178 496 206 519 234 519 c 0
 251 519 257 515 276 493 c 2
 301 462 l 1
 342 482 368 488 404 488 c 0
 440 488 462 481 495 461 c 1
 532 491 l 2
 559 513 568 517 585 517 c 0
 613 517 631 494 625 466 c 0
 621 449 616 442 589 420 c 2
 551 388 l 1
 563 351 564 327 556 292 c 0
 549 257 538 233 510 196 c 1
 535 162 l 2
 552 141 555 132 552 116 c 0
 546 88 517 64 489 64 c 0
 472 64 465 68 448 90 c 2
 421 122 l 1
 381 103 356 97 321 97 c 0
 285 97 263 103 230 123 c 1
 190 91 l 2
 162 68 155 64 138 64 c 0
 110 64 91 87 97 115 c 0
 101 132 107 139 133 162 c 2
 173 196 l 1
 162 233 161 257 168 292 c 0
 176 328 187 352 213 388 c 1
382 388 m 0
 330 388 280 346 268 293 c 0
 257 241 291 197 342 197 c 0
 393 197 445 241 456 292 c 0
 468 346 435 388 382 388 c 0
EndSplineSet
EndChar
StartChar: yen
Encoding: 100 165 111
Width: 600
Flags: W
HStem: 0 100<189.901 271 371 460.087> 135 56<158.728 279 391 511.082> 225 56<178.047 285 435 529.953>
Fore
375 348 m 1
 498 481 l 1
 474 488 463 506 468 530 c 0
 471 547 484 564 501 573 c 0
 511 579 519 580 545 580 c 2
 636 580 l 2
 664 580 671 578 679 571 c 0
 690 561 695 546 692 530 c 0
 688 513 676 497 659 487 c 0
 651 483 625 480 616 480 c 1
 435 281 l 1
 507 281 l 2
 527 281 536 271 532 253 c 0
 528 235 515 225 495 225 c 2
 398 225 l 1
 391 191 l 1
 488 191 l 2
 508 191 516 181 513 163 c 0
 509 145 496 135 476 135 c 2
 379 135 l 1
 371 100 l 1
 418 100 l 2
 445 100 453 98 461 91 c 0
 473 81 477 66 474 50 c 0
 467 17 441 0 397 0 c 2
 203 0 l 2
 180 0 167 3 160 10 c 0
 149 19 144 35 148 50 c 0
 151 67 164 84 181 93 c 0
 191 99 199 100 225 100 c 2
 271 100 l 1
 279 135 l 1
 182 135 l 2
 162 135 153 145 157 163 c 0
 160 181 174 191 194 191 c 2
 291 191 l 1
 298 225 l 1
 201 225 l 2
 181 225 172 235 176 253 c 0
 180 271 192 281 213 281 c 2
 285 281 l 1
 189 481 l 1
 187 480 185 480 184 480 c 0
 149 477 127 499 134 530 c 0
 137 547 150 564 167 573 c 0
 177 579 184 580 210 580 c 2
 302 580 l 2
 331 580 338 578 347 570 c 0
 358 560 362 546 359 530 c 0
 354 506 333 486 309 482 c 1
 375 348 l 1
EndSplineSet
EndChar
StartChar: brokenbar
Encoding: 101 166 112
Width: 600
Flags: W
HStem: 602 20G<424 445.5>
VStem: 230 242<-129 577>
Fore
468 556 m 2
 425 353 l 2
 419 326 416 318 406 308 c 0
 394 295 377 287 361 287 c 0
 344 287 329 296 323 311 c 0
 320 319 320 330 325 353 c 2
 368 556 l 2
 373 581 378 592 387 601 c 0
 400 614 416 622 432 622 c 0
 459 622 474 605 472 577 c 0
 470 566 470 564 468 556 c 2
375 116 m 2
 332 -87 l 2
 326 -112 322 -122 313 -132 c 0
 300 -145 283 -153 267 -153 c 0
 250 -153 236 -144 230 -129 c 0
 226 -121 227 -110 232 -87 c 2
 275 116 l 2
 280 142 284 152 293 162 c 0
 306 174 323 182 339 182 c 0
 356 182 371 173 377 158 c 0
 380 149 380 140 375 116 c 2
EndSplineSet
EndChar
StartChar: section
Encoding: 102 167 113
Width: 600
Flags: W
HStem: -170 88<152 354.845> 493 90<331.857 536>
Fore
536 493 m 1
 392 493 l 2
 353 493 317 469 311 440 c 0
 305 415 333 383 397 342 c 2
 478 291 l 2
 581 226 605 191 591 129 c 0
 578 68 532 25 464 10 c 1
 465 -7 464 -16 461 -28 c 0
 454 -63 434 -94 403 -123 c 0
 366 -156 329 -170 276 -170 c 2
 45 -170 l 1
 72 -43 l 2
 80 -6 98 12 128 12 c 0
 144 12 156 4 161 -9 c 0
 165 -16 164 -22 160 -43 c 2
 152 -82 l 1
 297 -82 l 2
 333 -82 369 -57 375 -29 c 0
 380 -3 353 29 291 69 c 2
 198 130 l 2
 111 187 84 226 96 283 c 0
 109 342 154 384 222 402 c 1
 221 414 221 420 224 432 c 0
 232 469 255 507 288 535 c 0
 326 569 365 583 418 583 c 2
 643 583 l 1
 616 456 l 2
 611 433 609 427 600 419 c 0
 590 408 574 401 560 401 c 0
 545 401 532 409 526 421 c 0
 524 428 524 437 528 456 c 2
 536 493 l 1
416 214 m 2
 330 271 l 2
 300 290 291 297 261 326 c 1
 222 326 199 314 194 292 c 0
 189 266 210 239 262 205 c 2
 352 147 l 1
 398 114 412 103 426 88 c 1
 443 88 l 1
 468 89 490 102 494 121 c 0
 499 144 471 178 416 214 c 2
EndSplineSet
EndChar
StartChar: dieresis
Encoding: 103 168 114
Width: 600
Flags: W
HStem: 534 120<283.989 360.076 491.989 568.076>
VStem: 262 328<561 593 594 627 593 594>
Fore
335 654 m 0
 369 654 389 627 382 593 c 0
 375 561 343 534 310 534 c 0
 277 534 255 561 262 594 c 0
 269 627 302 654 335 654 c 0
543 654 m 0
 577 654 597 627 590 593 c 0
 583 561 551 534 518 534 c 0
 485 534 463 561 470 594 c 0
 477 627 510 654 543 654 c 0
EndSplineSet
EndChar
StartChar: copyright
Encoding: 104 169 115
Width: 600
Flags: W
HStem: -15 73<219.611 411.548> 118 71<277.901 414.272> 395 71<314.227 432.992> 525 73<310.08 501.958>
Fore
192 269 m 2
 200 305 l 2
 219 397 301 466 390 466 c 0
 418 466 440 461 465 447 c 1
 473 459 483 466 497 466 c 0
 517 466 527 451 522 428 c 1
 509 368 l 1
 503 340 487 324 465 324 c 0
 444 324 436 335 437 360 c 0
 438 379 411 395 377 395 c 0
 326 395 282 357 271 304 c 2
 263 270 l 2
 253 221 284 189 343 189 c 0
 382 189 396 194 424 218 c 0
 433 225 443 229 452 229 c 0
 471 229 484 212 480 193 c 0
 472 154 398 118 327 118 c 0
 231 118 174 182 192 269 c 2
426 598 m 0
 596 598 704 461 668 292 c 0
 632 121 466 -15 293 -15 c 0
 128 -15 19 124 55 292 c 0
 91 461 257 598 426 598 c 0
412 525 m 0
 282 525 155 421 128 292 c 0
 101 164 183 58 309 58 c 0
 441 58 567 161 595 292 c 0
 622 421 540 525 412 525 c 0
EndSplineSet
EndChar
StartChar: ordfeminine
Encoding: 105 170 116
Width: 600
Flags: W
HStem: 182 77<175.34 523.031> 273 79<289.443 369.955> 284 78<509 550.129> 417 70<304.001 429.013> 517 78<371.399 457.463>
VStem: 172 386<227 259 295 323 227 323>
Fore
414 284 m 1xbc
 417 295 l 1
 373 279 343 273 304 273 c 0xdc
 233 273 185 316 196 369 c 0
 201 390 217 415 238 434 c 0
 278 470 329 487 396 487 c 0
 416 487 428 486 456 482 c 1
 458 490 l 2
 462 509 447 517 406 517 c 0
 383 517 358 514 325 506 c 0
 313 503 301 501 295 501 c 0
 274 501 261 519 266 541 c 0
 269 557 281 569 297 575 c 0
 334 587 383 595 418 595 c 0
 507 595 550 557 536 490 c 2
 509 362 l 1
 515 362 l 2
 550 362 563 350 558 323 c 0
 552 298 532 284 499 284 c 2
 414 284 l 1xbc
435 383 m 1
 441 410 l 1
 410 416 396 417 377 417 c 0
 335 417 293 397 288 374 c 0
 286 361 302 352 327 352 c 0
 359 352 406 365 435 383 c 1
471 182 m 2
 215 182 l 2
 171 182 164 189 172 227 c 0
 178 252 190 259 231 259 c 2
 486 259 l 2
 522 259 536 247 530 221 c 0
 524 195 505 182 471 182 c 2
EndSplineSet
EndChar
StartChar: guillemotleft
Encoding: 106 171 117
Width: 600
Flags: W
HStem: 20 395<313 398>
Fore
221 218 m 1
 342 77 l 2
 351 67 355 59 353 50 c 0
 349 34 331 20 313 20 c 0
 304 20 300 22 288 33 c 2
 79 218 l 1
 366 402 l 2
 383 413 388 415 398 415 c 0
 415 415 427 401 424 385 c 0
 422 376 416 368 402 358 c 1
 221 218 l 1
450 218 m 1
 571 77 l 2
 580 67 584 59 582 50 c 0
 578 34 560 20 542 20 c 0
 533 20 529 22 517 33 c 2
 308 218 l 1
 595 402 l 2
 612 413 617 415 627 415 c 0
 644 415 656 401 653 385 c 0
 651 376 645 368 631 358 c 1
 450 218 l 1
EndSplineSet
EndChar
StartChar: logicalnot
Encoding: 107 172 118
Width: 600
Flags: W
HStem: 345 100<167.901 438>
VStem: 126 434<395 438 438 445 395 445>
Fore
560 445 m 1
 503 181 l 2
 498 154 494 146 485 136 c 0
 472 123 455 115 439 115 c 0
 422 115 407 124 402 139 c 0
 398 148 399 158 403 181 c 2
 438 345 l 1
 181 345 l 2
 157 345 146 347 138 355 c 1
 127 364 123 380 126 395 c 0
 130 412 142 429 159 438 c 0
 169 444 177 445 203 445 c 2
 560 445 l 1
EndSplineSet
EndChar
StartChar: registered
Encoding: 109 174 120
Width: 600
Flags: W
HStem: -15 73<219.611 411.548> 126 71<193.478 239 311 339.625> 387 71<249.127 279 351 421.721> 525 73<310.726 502.092>
Fore
321 246 m 1
 311 197 l 1
 337 197 350 184 345 162 c 0
 341 139 322 126 294 126 c 2
 226 126 l 2
 197 126 184 139 188 162 c 0
 193 184 211 197 239 197 c 1
 279 387 l 1
 251 388 239 401 244 423 c 0
 249 446 267 458 296 458 c 2
 389 458 l 2
 464 458 507 415 494 354 c 0
 486 317 455 283 415 266 c 1
 434 244 439 235 453 197 c 1
 475 195 486 182 481 162 c 0
 477 139 458 126 430 126 c 2
 390 126 l 1
 388 175 362 233 336 246 c 1
 321 246 l 1
336 316 m 1
 361 316 l 2
 392 316 419 333 423 355 c 0
 427 374 409 387 376 387 c 2
 351 387 l 1
 336 316 l 1
427 598 m 0
 595 598 704 461 668 292 c 0
 632 121 466 -15 293 -15 c 0
 128 -15 19 124 55 292 c 0
 91 460 258 598 427 598 c 0
412 525 m 0
 283 525 155 420 128 292 c 0
 101 164 183 58 309 58 c 0
 441 58 567 161 595 292 c 0
 622 420 540 525 412 525 c 0
EndSplineSet
EndChar
StartChar: macron
Encoding: 110 175 121
Width: 600
Flags: W
HStem: 546 80<258.142 591.059>
VStem: 250 350<568.729 604.367 586 586>
Fore
311 626 m 2
 555 626 l 2
 578 626 589 623 595 615 c 0
 599 608 601 594 600 586 c 0
 594 561 571 546 538 546 c 2
 294 546 l 2
 269 546 261 548 255 558 c 0
 250 566 248 578 250 586 c 0
 255 611 277 626 311 626 c 2
EndSplineSet
EndChar
StartChar: degree
Encoding: 111 176 122
Width: 600
Flags: W
HStem: 243 61<304.159 435.177> 535 61<343.227 474.522>
VStem: 214 350<323 420 420 517 420 420>
Fore
427 596 m 0
 524 596 585 517 564 420 c 0
 543 321 449 243 350 243 c 0
 256 243 194 323 214 420 c 0
 235 517 330 596 427 596 c 0
414 535 m 0
 351 535 289 483 275 420 c 0
 262 357 303 304 364 304 c 0
 428 304 490 356 503 420 c 0
 517 483 477 535 414 535 c 0
EndSplineSet
EndChar
StartChar: plusminus
Encoding: 112 177 123
Width: 600
Flags: W
HStem: 0 100<94.8746 524.371> 330 100<164.875 320 441 595.057> 604 20G<425 441.5>
Fore
420 330 m 1
 399 230 l 2
 393 203 389 195 380 185 c 0
 368 172 351 164 335 164 c 0
 318 164 303 174 297 188 c 0
 294 197 294 207 299 230 c 2
 320 330 l 1
 178 330 l 2
 154 330 143 332 135 340 c 1
 124 349 120 365 123 380 c 0
 126 397 140 414 156 423 c 0
 166 429 174 430 199 430 c 2
 341 430 l 1
 369 558 l 2
 374 584 378 594 388 603 c 1
 400 616 417 624 433 624 c 0
 450 624 465 615 471 600 c 0
 475 591 474 584 469 558 c 2
 441 430 l 1
 582 430 l 2
 610 430 618 428 626 421 c 0
 637 411 642 396 639 380 c 0
 635 363 623 346 606 337 c 0
 597 332 584 330 561 330 c 2
 420 330 l 1
129 100 m 2
 513 100 l 2
 540 100 548 98 556 91 c 0
 567 81 572 66 569 50 c 0
 565 33 552 16 535 7 c 0
 526 2 514 0 492 0 c 2
 108 0 l 2
 84 0 72 2 65 10 c 1
 54 19 49 35 53 50 c 0
 56 67 70 84 86 93 c 0
 96 99 104 100 129 100 c 2
EndSplineSet
EndChar
StartChar: twosuperior
Encoding: 113 178 124
Width: 600
Flags: W
HStem: 247 67<320 429> 570 67<373.385 462.73>
VStem: 202 333<247 517>
Fore
320 314 m 1
 429 314 l 1
 436 335 450 346 469 346 c 0
 492 346 500 332 493 303 c 2
 482 247 l 1
 202 247 l 1
 216 315 l 1
 435 469 463 492 469 520 c 0
 474 548 451 570 414 570 c 0
 391 570 369 562 353 546 c 0
 347 540 346 539 336 520 c 0
 329 508 314 500 301 500 c 0
 282 500 270 515 274 533 c 0
 279 553 301 583 326 602 c 0
 356 624 393 637 429 637 c 0
 504 637 550 586 535 517 c 0
 524 466 495 439 320 314 c 1
EndSplineSet
EndChar
StartChar: threesuperior
Encoding: 114 179 125
Width: 600
Flags: W
HStem: 238 67<268.529 432.347> 418 66<352.568 375 375 407.414> 570 67<354.031 472.128>
VStem: 219 322<292 529>
Fore
389 484 m 2
 414 484 l 2
 441 484 469 505 474 528 c 0
 480 554 458 570 420 570 c 0
 387 570 371 564 347 543 c 0
 340 537 330 533 321 533 c 0
 303 533 292 549 296 567 c 0
 303 604 371 637 437 637 c 0
 510 637 555 591 541 529 c 0
 535 498 511 469 477 450 c 2
 477 450 474 449 473 448 c 1
 510 427 526 393 517 355 c 0
 510 322 485 287 453 266 c 0
 423 247 386 238 336 238 c 0
 258 238 212 259 219 292 c 0
 223 311 241 326 259 326 c 0
 267 326 271 325 280 318 c 0
 292 308 310 305 348 305 c 0
 408 305 444 323 451 357 c 0
 455 378 442 399 418 411 c 0
 407 416 403 417 375 418 c 0
 354 420 344 432 348 451 c 0
 352 470 370 484 389 484 c 2
EndSplineSet
EndChar
StartChar: acute
Encoding: 115 180 126
Width: 600
Flags: W
HStem: 496 200<392 586>
VStem: 363 252<532 659>
Fore
585 624 m 1
 428 512 l 2
 410 500 402 496 392 496 c 0
 372 496 359 513 363 532 c 0
 366 545 375 556 394 569 c 2
 551 680 l 2
 569 693 575 696 586 696 c 0
 607 696 620 680 615 659 c 0
 613 647 604 637 585 624 c 1
EndSplineSet
EndChar
StartChar: paragraph
Encoding: 117 182 127
Width: 600
Flags: W
HStem: -174 78<141.469 250 448 521.918> 505 78<455 499 575 664.375>
Fore
575 505 m 1
 448 -96 l 1
 484 -96 l 2
 521 -96 535 -109 529 -135 c 0
 524 -161 503 -174 467 -174 c 2
 374 -174 l 2
 353 -174 345 -165 341 -140 c 1
 324 -168 315 -174 291 -174 c 2
 154 -174 l 2
 119 -174 104 -161 109 -135 c 0
 112 -122 123 -109 135 -102 c 0
 144 -97 150 -96 171 -96 c 2
 250 -96 l 1
 309 185 l 1
 183 198 107 272 126 361 c 2
 136 407 l 2
 156 504 287 583 429 583 c 2
 626 583 l 2
 662 583 677 570 672 544 c 0
 666 518 646 505 609 505 c 2
 575 505 l 1
327 266 m 1
 376 500 l 1
 306 486 258 450 248 405 c 2
 239 361 l 2
 229 316 263 280 327 266 c 1
499 505 m 1
 455 505 l 1
 328 -96 l 1
 339 -102 343 -108 345 -124 c 1
 352 -109 359 -102 372 -96 c 1
 499 505 l 1
EndSplineSet
EndChar
StartChar: periodcentered
Encoding: 118 183 128
Width: 600
Flags: W
HStem: 214 132<311.719 336 336 407.719>
VStem: 285 150<240.705 319.295 280 280>
Fore
354 214 m 2
 336 214 l 2
 300 214 277 244 285 280 c 0
 292 316 329 346 365 346 c 2
 383 346 l 2
 420 346 442 317 435 280 c 0
 427 243 391 214 354 214 c 2
EndSplineSet
EndChar
StartChar: cedilla
Encoding: 119 184 129
Width: 600
Flags: W
HStem: -229 70<226.943 306.803> -20 20G<257.686 332>
VStem: 145 234<-177.49 -166 -134 -132 -166 -132>
Fore
251 -229 m 0
 213 -229 136 -209 145 -166 c 0
 149 -147 168 -131 187 -131 c 0
 195 -131 198 -132 214 -142 c 0
 230 -152 250 -159 267 -159 c 0
 290 -159 305 -150 309 -134 c 0
 313 -113 297 -100 263 -100 c 0
 258 -100 254 -100 240 -102 c 1
 262 0 l 1
 332 0 l 1
 323 -41 l 1
 372 -52 390 -81 379 -132 c 0
 367 -189 313 -229 251 -229 c 0
EndSplineSet
EndChar
StartChar: onesuperior
Encoding: 120 185 130
Width: 600
Flags: W
HStem: 247 67<229.929 334 401 489.428> 618 20G<387.647 465.741>
VStem: 226 268<252.807 308.965 281 281>
Fore
470 638 m 1
 401 314 l 1
 458 314 l 2
 487 314 498 303 494 281 c 0
 489 259 472 247 444 247 c 2
 263 247 l 2
 235 247 221 259 226 281 c 0
 230 303 247 314 277 314 c 2
 334 314 l 1
 384 551 l 1
 334 539 l 2
 322 536 319 535 313 535 c 0
 296 535 285 551 289 570 c 0
 293 589 304 597 330 604 c 2
 470 638 l 1
EndSplineSet
EndChar
StartChar: ordmasculine
Encoding: 121 186 131
Width: 600
Flags: W
HStem: 182 77<200.312 520.016> 273 78<320.619 431.066> 517 78<348.754 465.059>
VStem: 169 393<221 428>
Fore
427 595 m 0
 522 595 582 521 562 428 c 0
 544 343 452 273 359 273 c 0
 265 273 204 343 222 430 c 0
 242 520 334 595 427 595 c 0
411 517 m 0
 362 517 311 477 301 430 c 0
 292 388 328 351 376 351 c 0
 424 351 474 388 483 430 c 0
 493 477 460 517 411 517 c 0
467 182 m 2
 213 182 l 2
 178 182 163 195 169 221 c 0
 172 233 181 246 194 253 c 0
 203 258 208 259 229 259 c 2
 483 259 l 2
 519 259 533 247 527 221 c 0
 521 195 502 182 467 182 c 2
EndSplineSet
EndChar
StartChar: guillemotright
Encoding: 122 187 132
Width: 600
Flags: W
HStem: 20 395<299 384>
Fore
476 217 m 1
 355 358 l 2
 346 368 343 376 345 385 c 0
 348 401 366 415 384 415 c 0
 393 415 398 413 409 402 c 2
 617 217 l 1
 331 33 l 2
 315 22 309 20 299 20 c 0
 282 20 270 34 274 50 c 0
 276 59 281 67 295 77 c 1
 476 217 l 1
246 217 m 1
 125 358 l 2
 116 368 113 376 115 385 c 0
 118 401 136 415 154 415 c 0
 163 415 168 413 179 402 c 2
 387 217 l 1
 101 33 l 2
 85 22 79 20 69 20 c 0
 52 20 40 34 44 50 c 0
 46 59 51 67 65 77 c 1
 246 217 l 1
EndSplineSet
EndChar
StartChar: onequarter
Encoding: 123 188 133
Width: 600
Flags: W
HStem: 0 67<473.986 539 606 631.596> 83 67<478 543 624 649.596> 247 67<29.929 134 201 278.264> 567 20G<567.5 583.5> 618 20G<187.647 265.741>
Fore
270 638 m 1
 201 314 l 1
 258 314 l 2
 287 314 298 303 294 281 c 0
 289 259 272 247 244 247 c 2
 63 247 l 2
 35 247 21 259 26 281 c 0
 30 303 47 314 77 314 c 2
 134 314 l 1
 184 551 l 1
 134 539 l 2
 122 536 119 535 113 535 c 0
 96 535 85 551 89 570 c 0
 93 589 104 597 130 604 c 2
 270 638 l 1
585 528 m 2
 229 77 l 2
 214 58 204 51 190 51 c 0
 172 51 159 67 163 84 c 0
 164 90 169 99 178 110 c 1
 534 561 l 2
 550 581 560 587 575 587 c 0
 592 587 605 571 602 555 c 0
 600 548 596 541 585 528 c 2
673 380 m 1
 624 150 l 1
 647 149 658 137 654 117 c 0
 650 97 634 84 610 83 c 1
 606 67 l 1
 629 66 640 54 636 34 c 0
 632 12 613 0 585 0 c 2
 506 0 l 2
 478 0 466 12 470 34 c 0
 475 56 491 67 520 67 c 2
 539 67 l 1
 543 83 l 1
 380 83 l 1
 391 138 l 1
 589 380 l 1
 673 380 l 1
557 150 m 1
 584 279 l 1
 478 150 l 1
 557 150 l 1
EndSplineSet
Ligature2: "'frac' Diagonal Fractions lookup 3" one slash four
Ligature2: "'frac' Diagonal Fractions lookup 3" one fraction four
EndChar
StartChar: onehalf
Encoding: 124 189 134
Width: 600
Flags: W
HStem: 0 67<467 576> 247 67<29.929 134 201 278.264> 323 67<521.001 610.576> 567 20G<567.5 583.5> 618 20G<187.647 265.741>
Fore
270 638 m 1
 201 314 l 1
 258 314 l 2
 287 314 298 303 294 281 c 0
 289 259 272 247 244 247 c 2
 63 247 l 2
 35 247 21 259 26 281 c 0
 30 303 47 314 77 314 c 2
 134 314 l 1
 184 551 l 1
 134 539 l 2
 122 536 119 535 113 535 c 0
 96 535 85 551 89 570 c 0
 93 589 104 597 130 604 c 2
 270 638 l 1
585 528 m 2
 229 77 l 2
 214 58 204 51 190 51 c 0
 172 51 159 67 163 84 c 0
 164 90 169 99 178 110 c 1
 534 561 l 2
 550 581 560 587 575 587 c 0
 592 587 605 571 602 555 c 0
 600 548 596 541 585 528 c 2
467 67 m 1
 576 67 l 1
 584 88 597 99 616 99 c 0
 639 99 647 85 641 56 c 2
 629 0 l 1
 349 0 l 1
 363 68 l 1
 582 222 610 245 616 273 c 0
 622 301 599 323 562 323 c 0
 539 323 517 315 501 299 c 0
 494 293 493 292 483 273 c 0
 476 261 462 253 449 253 c 0
 430 253 418 268 422 286 c 0
 426 306 448 336 473 355 c 0
 503 377 541 390 577 390 c 0
 652 390 697 339 682 270 c 0
 672 219 643 192 467 67 c 1
EndSplineSet
Ligature2: "'frac' Diagonal Fractions lookup 3" one slash two
Ligature2: "'frac' Diagonal Fractions lookup 3" one fraction two
EndChar
StartChar: threequarters
Encoding: 125 190 135
Width: 600
Flags: W
HStem: 0 67<474.344 540 607 632.596> 83 67<478 544 625 650.596> 238 67<68.5292 232.347> 418 66<152.568 175 175 207.414> 570 67<154.031 272.128>
Fore
189 484 m 2
 214 484 l 2
 241 484 269 505 274 528 c 0
 280 554 258 570 220 570 c 0
 187 570 171 564 147 543 c 0
 140 537 130 533 121 533 c 0
 103 533 92 549 96 567 c 0
 103 604 171 637 237 637 c 0
 310 637 355 591 341 529 c 0
 335 498 311 469 277 450 c 2
 277 450 274 449 273 448 c 1
 310 427 326 393 317 355 c 0
 310 322 285 287 253 266 c 0
 223 247 186 238 136 238 c 0
 58 238 12 259 19 292 c 0
 23 311 41 326 59 326 c 0
 67 326 71 325 80 318 c 0
 92 308 110 305 148 305 c 0
 208 305 244 323 251 357 c 0
 255 378 242 399 218 411 c 0
 207 416 203 417 175 418 c 0
 154 420 144 432 148 451 c 0
 152 470 170 484 189 484 c 2
586 528 m 2
 229 77 l 2
 214 58 204 51 190 51 c 0
 172 51 159 66 163 84 c 0
 164 91 168 97 178 110 c 2
 535 561 l 2
 550 581 560 587 575 587 c 0
 592 587 605 571 602 555 c 0
 601 549 595 539 586 528 c 2
674 380 m 1
 625 150 l 1
 648 149 659 137 655 117 c 0
 651 97 635 84 611 83 c 1
 607 67 l 1
 630 66 641 54 637 34 c 0
 633 12 614 0 586 0 c 2
 507 0 l 2
 479 0 466 12 470 34 c 0
 475 56 491 67 521 67 c 2
 540 67 l 1
 544 83 l 1
 380 83 l 1
 391 138 l 1
 590 380 l 1
 674 380 l 1
558 150 m 1
 585 279 l 1
 478 150 l 1
 558 150 l 1
EndSplineSet
Ligature2: "'frac' Diagonal Fractions lookup 3" three slash four
Ligature2: "'frac' Diagonal Fractions lookup 3" three fraction four
EndChar
StartChar: questiondown
Encoding: 126 191 136
Width: 600
Flags: W
HStem: -227 100<193.723 333.731> 254 132<318.141 343 343 413.016>
VStem: 75 404<-55 -47 -47 -38>
Fore
477 -89 m 2
 460 -168 l 1
 353 -215 308 -227 244 -227 c 0
 120 -227 51 -150 75 -38 c 0
 92 43 145 90 277 143 c 1
 289 179 310 197 339 197 c 0
 356 197 371 188 377 173 c 0
 380 164 380 154 375 131 c 2
 363 75 l 1
 225 26 183 0 174 -43 c 0
 163 -93 200 -127 264 -127 c 0
 302 -127 338 -119 374 -103 c 1
 377 -89 l 2
 383 -62 387 -54 396 -44 c 0
 408 -31 426 -23 441 -23 c 0
 458 -23 473 -33 479 -47 c 0
 482 -55 482 -66 477 -89 c 2
371 386 m 2
 388 386 l 2
 425 386 449 356 441 320 c 0
 433 284 397 254 360 254 c 2
 343 254 l 2
 306 254 283 283 291 320 c 0
 299 357 334 386 371 386 c 2
EndSplineSet
EndChar
StartChar: Agrave
Encoding: 127 192 137
Width: 600
Flags: W
HStem: 0 100<32.0867 67 176 210.138 402.689 460 574 587.138> 158 100<273 430> 483 100<226.367 304>
Fore
450 158 m 1
 212 158 l 1
 176 100 l 1
 199 100 l 2
 226 100 234 98 242 91 c 0
 253 81 258 66 255 50 c 0
 251 33 238 16 221 7 c 0
 212 2 199 0 178 0 c 2
 45 0 l 2
 1 0 -17 17 -10 50 c 0
 -7 67 6 84 23 93 c 0
 33 99 42 100 67 100 c 1
 304 483 l 1
 241 483 l 2
 215 483 205 485 197 492 c 0
 186 502 181 517 184 533 c 0
 188 550 200 566 217 576 c 0
 228 582 235 583 262 583 c 2
 478 583 l 1
 574 100 l 1
 602 100 611 98 619 90 c 0
 630 81 635 66 632 50 c 0
 628 33 615 16 598 7 c 0
 589 2 576 0 555 0 c 2
 416 0 l 2
 392 0 381 3 373 10 c 0
 362 19 357 34 361 50 c 0
 364 67 377 84 394 93 c 0
 404 99 411 100 437 100 c 2
 460 100 l 1
 450 158 l 1
430 258 m 1
 393 450 l 1
 273 258 l 1
 430 258 l 1
385 824 m 2
 494 712 l 2
 508 699 512 688 510 676 c 0
 506 657 485 640 465 640 c 0
 456 640 447 645 436 656 c 2
 327 767 l 2
 313 781 309 790 312 803 c 0
 316 823 335 839 356 839 c 0
 366 839 373 835 385 824 c 2
EndSplineSet
EndChar
StartChar: Aacute
Encoding: 128 193 138
Width: 600
Flags: W
HStem: 0 100<32.0867 67 176 210.138 402.689 460 574 587.138> 158 100<273 430> 483 100<226.367 304>
Fore
450 158 m 1
 212 158 l 1
 176 100 l 1
 199 100 l 2
 226 100 234 98 242 91 c 0
 253 81 258 66 255 50 c 0
 251 33 238 16 221 7 c 0
 212 2 199 0 178 0 c 2
 45 0 l 2
 1 0 -17 17 -10 50 c 0
 -7 67 6 84 23 93 c 0
 33 99 42 100 67 100 c 1
 304 483 l 1
 241 483 l 2
 215 483 205 485 197 492 c 0
 186 502 181 517 184 533 c 0
 188 550 200 566 217 576 c 0
 228 582 235 583 262 583 c 2
 478 583 l 1
 574 100 l 1
 602 100 611 98 619 90 c 0
 630 81 635 66 632 50 c 0
 628 33 615 16 598 7 c 0
 589 2 576 0 555 0 c 2
 416 0 l 2
 392 0 381 3 373 10 c 0
 362 19 357 34 361 50 c 0
 364 67 377 84 394 93 c 0
 404 99 411 100 437 100 c 2
 460 100 l 1
 450 158 l 1
430 258 m 1
 393 450 l 1
 273 258 l 1
 430 258 l 1
573 767 m 1
 416 656 l 2
 401 645 390 640 381 640 c 0
 361 640 348 657 352 676 c 0
 354 688 364 700 382 712 c 1
 539 824 l 2
 555 835 564 839 574 839 c 0
 595 839 608 823 604 803 c 0
 601 790 593 780 573 767 c 1
EndSplineSet
EndChar
StartChar: Acircumflex
Encoding: 129 194 139
Width: 600
Flags: W
HStem: 0 100<32.0867 67 176 210.138 402.689 460 574 587.138> 158 100<273 430> 483 100<226.367 304>
Fore
450 158 m 1
 212 158 l 1
 176 100 l 1
 199 100 l 2
 226 100 234 98 242 91 c 0
 253 81 258 66 255 50 c 0
 251 33 238 16 221 7 c 0
 212 2 199 0 178 0 c 2
 45 0 l 2
 1 0 -17 17 -10 50 c 0
 -7 67 6 84 23 93 c 0
 33 99 42 100 67 100 c 1
 304 483 l 1
 241 483 l 2
 215 483 205 485 197 492 c 0
 186 502 181 517 184 533 c 0
 188 550 200 566 217 576 c 0
 228 582 235 583 262 583 c 2
 478 583 l 1
 574 100 l 1
 602 100 611 98 619 90 c 0
 630 81 635 66 632 50 c 0
 628 33 615 16 598 7 c 0
 589 2 576 0 555 0 c 2
 416 0 l 2
 392 0 381 3 373 10 c 0
 362 19 357 34 361 50 c 0
 364 67 377 84 394 93 c 0
 404 99 411 100 437 100 c 2
 460 100 l 1
 450 158 l 1
430 258 m 1
 393 450 l 1
 273 258 l 1
 430 258 l 1
443 750 m 1
 310 653 l 2
 296 643 288 640 279 640 c 0
 260 640 248 657 251 675 c 0
 254 689 257 692 283 711 c 2
 462 839 l 1
 586 711 l 1
 594 702 606 693 602 675 c 0
 599 657 579 640 561 640 c 0
 551 640 544 644 535 653 c 2
 443 750 l 1
EndSplineSet
EndChar
StartChar: Atilde
Encoding: 130 195 140
Width: 600
Flags: W
HStem: 0 100<32.0867 67 176 210.138 402.689 460 574 587.138> 158 100<273 430> 483 100<226.367 304> 667 69<482.263 548.858> 730 69<324.465 396.333>
Fore
450 158 m 1xe0
 212 158 l 1
 176 100 l 1
 199 100 l 2
 226 100 234 98 242 91 c 0
 253 81 258 66 255 50 c 0
 251 33 238 16 221 7 c 0
 212 2 199 0 178 0 c 2
 45 0 l 2
 1 0 -17 17 -10 50 c 0
 -7 67 6 84 23 93 c 0
 33 99 42 100 67 100 c 1
 304 483 l 1
 241 483 l 2
 215 483 205 485 197 492 c 0
 186 502 181 517 184 533 c 0
 188 550 200 566 217 576 c 0
 228 582 235 583 262 583 c 2
 478 583 l 1
 574 100 l 1
 602 100 611 98 619 90 c 0
 630 81 635 66 632 50 c 0
 628 33 615 16 598 7 c 0
 589 2 576 0 555 0 c 2
 416 0 l 2
 392 0 381 3 373 10 c 0
 362 19 357 34 361 50 c 0
 364 67 377 84 394 93 c 0
 404 99 411 100 437 100 c 2
 460 100 l 1
 450 158 l 1xe0
430 258 m 1
 393 450 l 1
 273 258 l 1
 430 258 l 1
606 799 m 0xe8
 623 799 635 785 632 771 c 0
 629 756 618 741 591 715 c 0
 557 681 530 667 501 667 c 0xf0
 479 667 449 681 411 709 c 0
 387 726 379 730 365 730 c 0
 347 730 338 723 301 685 c 0
 290 675 281 670 271 670 c 0
 254 670 243 683 247 700 c 0
 250 714 264 733 285 754 c 0
 316 783 349 799 378 799 c 0xe8
 401 799 417 792 460 762 c 0
 489 742 501 736 512 736 c 0xf0
 527 736 532 739 560 769 c 0
 579 789 594 799 606 799 c 0xe8
EndSplineSet
EndChar
StartChar: Adieresis
Encoding: 131 196 141
Width: 600
Flags: W
HStem: 0 100<32.0867 67 176 210.138 402.689 460 574 587.138> 158 100<273 430> 483 100<226.367 304> 678 120<298.36 374.06 506.36 582.06>
Fore
450 158 m 1
 212 158 l 1
 176 100 l 1
 199 100 l 2
 226 100 234 98 242 91 c 0
 253 81 258 66 255 50 c 0
 251 33 238 16 221 7 c 0
 212 2 199 0 178 0 c 2
 45 0 l 2
 1 0 -17 17 -10 50 c 0
 -7 67 6 84 23 93 c 0
 33 99 42 100 67 100 c 1
 304 483 l 1
 241 483 l 2
 215 483 205 485 197 492 c 0
 186 502 181 517 184 533 c 0
 188 550 200 566 217 576 c 0
 228 582 235 583 262 583 c 2
 478 583 l 1
 574 100 l 1
 602 100 611 98 619 90 c 0
 630 81 635 66 632 50 c 0
 628 33 615 16 598 7 c 0
 589 2 576 0 555 0 c 2
 416 0 l 2
 392 0 381 3 373 10 c 0
 362 19 357 34 361 50 c 0
 364 67 377 84 394 93 c 0
 404 99 411 100 437 100 c 2
 460 100 l 1
 450 158 l 1
430 258 m 1
 393 450 l 1
 273 258 l 1
 430 258 l 1
349 798 m 0
 383 798 403 771 396 737 c 0
 389 705 356 678 323 678 c 0
 290 678 269 705 276 738 c 0
 283 771 316 798 349 798 c 0
557 798 m 0
 591 798 611 771 604 737 c 0
 597 705 564 678 531 678 c 0
 498 678 477 705 484 738 c 0
 491 771 524 798 557 798 c 0
EndSplineSet
EndChar
StartChar: Aring
Encoding: 132 197 142
Width: 600
Flags: W
HStem: 0 100<32.0867 67 176 210.138 402.689 460 574 587.138> 158 100<273 430> 483 100<226.367 304> 630 54<382.149 483.211> 818 53<402.824 501.678>
Fore
450 158 m 1
 212 158 l 1
 176 100 l 1
 199 100 l 2
 226 100 234 98 242 91 c 0
 253 81 258 66 255 50 c 0
 251 33 238 16 221 7 c 0
 212 2 199 0 178 0 c 2
 45 0 l 2
 1 0 -17 17 -10 50 c 0
 -7 67 6 84 23 93 c 0
 33 99 42 100 67 100 c 1
 304 483 l 1
 241 483 l 2
 215 483 205 485 197 492 c 0
 186 502 181 517 184 533 c 0
 188 550 200 566 217 576 c 0
 228 582 235 583 262 583 c 2
 478 583 l 1
 574 100 l 1
 602 100 611 98 619 90 c 0
 630 81 635 66 632 50 c 0
 628 33 615 16 598 7 c 0
 589 2 576 0 555 0 c 2
 416 0 l 2
 392 0 381 3 373 10 c 0
 362 19 357 34 361 50 c 0
 364 67 377 84 394 93 c 0
 404 99 411 100 437 100 c 2
 460 100 l 1
 450 158 l 1
430 258 m 1
 393 450 l 1
 273 258 l 1
 430 258 l 1
468 871 m 0
 536 871 579 816 565 749 c 0
 552 685 483 630 417 630 c 0
 350 630 306 685 320 751 c 0
 333 816 401 871 468 871 c 0
457 818 m 0
 419 818 380 787 373 751 c 0
 365 715 390 684 428 684 c 0
 465 684 505 715 512 750 c 0
 520 787 495 818 457 818 c 0
EndSplineSet
EndChar
StartChar: AE
Encoding: 133 198 143
Width: 600
Flags: W
HStem: 0 100<33.0605 74 233.975 288 388 535> 483 100<243.341 271 470 596>
Fore
74 100 m 1
 271 483 l 1
 257 483 l 2
 232 483 221 485 214 492 c 0
 203 502 198 518 201 533 c 0
 205 550 218 567 234 576 c 0
 245 582 252 583 278 583 c 2
 717 583 l 1
 682 418 l 2
 676 391 672 383 663 373 c 0
 651 360 634 352 618 352 c 0
 601 352 587 361 580 376 c 0
 577 384 577 395 582 418 c 2
 596 483 l 1
 470 483 l 1
 440 342 l 1
 459 342 l 1
 468 377 490 397 520 397 c 0
 537 397 552 388 558 373 c 0
 562 364 562 357 556 331 c 2
 540 253 l 2
 534 226 530 218 521 208 c 0
 508 195 492 187 476 187 c 0
 446 187 431 208 438 243 c 1
 419 243 l 1
 388 100 l 1
 535 100 l 1
 540 123 l 2
 545 148 550 158 559 168 c 0
 571 181 588 189 604 189 c 0
 621 189 636 180 642 165 c 0
 646 156 645 148 640 123 c 2
 614 0 l 1
 265 0 l 2
 231 0 213 20 220 52 c 0
 226 79 252 100 280 100 c 2
 288 100 l 1
 301 158 l 1
 208 158 l 1
 178 100 l 1
 203 96 215 79 209 53 c 0
 202 19 177 0 141 0 c 2
 46 0 l 2
 2 0 -16 17 -9 50 c 0
 -6 67 7 84 24 93 c 0
 34 99 43 100 67 100 c 2
 74 100 l 1
322 259 m 1
 367 471 l 1
 258 259 l 1
 322 259 l 1
EndSplineSet
EndChar
StartChar: Ccedilla
Encoding: 134 199 144
Width: 600
Flags: W
HStem: -229 70<230.387 312.128> 497 100<325.305 502.889>
Fore
258 -229 m 0
 218 -229 140 -211 150 -166 c 0
 154 -147 173 -131 192 -131 c 0
 200 -131 202 -132 219 -142 c 0
 234 -153 255 -159 272 -159 c 0
 295 -159 310 -150 314 -134 c 0
 318 -113 302 -100 271 -100 c 0
 267 -100 263 -100 245 -102 c 1
 265 -9 l 1
 209 3 177 16 146 43 c 0
 91 92 68 167 86 249 c 2
 100 315 l 2
 134 475 277 597 432 597 c 0
 484 597 517 589 567 563 c 2
 576 559 l 1
 593 577 606 583 623 583 c 0
 641 583 655 574 661 559 c 0
 665 550 664 542 659 517 c 2
 641 433 l 2
 636 408 631 397 622 388 c 0
 610 375 593 367 577 367 c 0
 564 367 551 373 545 381 c 0
 539 389 538 396 538 420 c 0
 539 444 532 457 507 473 c 0
 483 488 449 497 415 497 c 0
 313 497 222 421 200 315 c 2
 186 251 l 2
 165 151 228 86 347 86 c 0
 393 86 435 94 463 109 c 0
 475 115 475 115 508 143 c 0
 522 154 535 159 548 159 c 0
 575 159 593 136 587 108 c 0
 581 82 545 48 496 23 c 0
 451 1 404 -10 334 -14 c 1
 328 -42 l 1
 377 -52 395 -81 384 -132 c 0
 372 -188 318 -229 258 -229 c 0
EndSplineSet
EndChar
StartChar: Egrave
Encoding: 135 200 145
Width: 600
Flags: W
HStem: 0 100<66.0605 115 215 471> 243 99<267 331> 483 100<168.341 197 297 531>
Fore
246 243 m 1
 215 100 l 1
 471 100 l 1
 482 152 l 2
 488 180 492 188 501 198 c 0
 514 212 531 219 547 219 c 0
 564 219 578 210 584 195 c 0
 588 186 588 177 582 152 c 2
 550 0 l 1
 79 0 l 2
 56 0 43 3 36 10 c 0
 25 19 20 34 24 50 c 0
 27 67 40 83 57 93 c 0
 67 99 76 100 100 100 c 2
 115 100 l 1
 197 483 l 1
 182 483 l 2
 157 483 146 485 139 492 c 0
 128 502 123 517 126 533 c 0
 130 550 143 567 159 576 c 0
 170 582 177 583 203 583 c 2
 652 583 l 1
 620 433 l 2
 614 405 610 397 601 387 c 0
 588 374 572 366 556 366 c 0
 539 366 525 375 518 390 c 0
 515 399 515 409 520 433 c 2
 531 483 l 1
 297 483 l 1
 267 342 l 1
 352 342 l 1
 353 349 l 2
 359 376 363 385 372 395 c 0
 385 408 401 416 416 416 c 0
 443 416 458 398 456 370 c 0
 455 361 454 358 452 349 c 2
 428 236 l 2
 423 210 419 200 410 191 c 0
 397 178 380 170 365 170 c 0
 348 170 333 179 327 194 c 0
 324 203 324 212 329 236 c 2
 331 243 l 1
 246 243 l 1
386 824 m 2
 495 712 l 2
 509 699 513 688 511 676 c 0
 507 657 486 640 466 640 c 0
 457 640 448 645 437 656 c 2
 328 767 l 2
 314 781 310 790 313 803 c 0
 317 823 336 839 357 839 c 0
 367 839 374 835 386 824 c 2
EndSplineSet
EndChar
StartChar: Eacute
Encoding: 136 201 146
Width: 600
Flags: W
HStem: 0 100<66.0605 115 215 471> 243 99<267 331> 483 100<168.341 197 297 531>
Fore
246 243 m 1
 215 100 l 1
 471 100 l 1
 482 152 l 2
 488 180 492 188 501 198 c 0
 514 212 531 219 547 219 c 0
 564 219 578 210 584 195 c 0
 588 186 588 177 582 152 c 2
 550 0 l 1
 79 0 l 2
 56 0 43 3 36 10 c 0
 25 19 20 34 24 50 c 0
 27 67 40 83 57 93 c 0
 67 99 76 100 100 100 c 2
 115 100 l 1
 197 483 l 1
 182 483 l 2
 157 483 146 485 139 492 c 0
 128 502 123 517 126 533 c 0
 130 550 143 567 159 576 c 0
 170 582 177 583 203 583 c 2
 652 583 l 1
 620 433 l 2
 614 405 610 397 601 387 c 0
 588 374 572 366 556 366 c 0
 539 366 525 375 518 390 c 0
 515 399 515 409 520 433 c 2
 531 483 l 1
 297 483 l 1
 267 342 l 1
 352 342 l 1
 353 349 l 2
 359 376 363 385 372 395 c 0
 385 408 401 416 416 416 c 0
 443 416 458 398 456 370 c 0
 455 361 454 358 452 349 c 2
 428 236 l 2
 423 210 419 200 410 191 c 0
 397 178 380 170 365 170 c 0
 348 170 333 179 327 194 c 0
 324 203 324 212 329 236 c 2
 331 243 l 1
 246 243 l 1
580 767 m 1
 423 656 l 2
 408 645 397 640 388 640 c 0
 368 640 355 657 359 676 c 0
 361 688 371 700 389 712 c 1
 546 824 l 2
 562 835 571 839 581 839 c 0
 602 839 615 823 611 803 c 0
 608 790 600 780 580 767 c 1
EndSplineSet
EndChar
StartChar: Ecircumflex
Encoding: 137 202 147
Width: 600
Flags: W
HStem: 0 100<66.0605 115 215 471> 243 99<267 331> 483 100<168.341 197 297 531>
Fore
246 243 m 1
 215 100 l 1
 471 100 l 1
 482 152 l 2
 488 180 492 188 501 198 c 0
 514 212 531 219 547 219 c 0
 564 219 578 210 584 195 c 0
 588 186 588 177 582 152 c 2
 550 0 l 1
 79 0 l 2
 56 0 43 3 36 10 c 0
 25 19 20 34 24 50 c 0
 27 67 40 83 57 93 c 0
 67 99 76 100 100 100 c 2
 115 100 l 1
 197 483 l 1
 182 483 l 2
 157 483 146 485 139 492 c 0
 128 502 123 517 126 533 c 0
 130 550 143 567 159 576 c 0
 170 582 177 583 203 583 c 2
 652 583 l 1
 620 433 l 2
 614 405 610 397 601 387 c 0
 588 374 572 366 556 366 c 0
 539 366 525 375 518 390 c 0
 515 399 515 409 520 433 c 2
 531 483 l 1
 297 483 l 1
 267 342 l 1
 352 342 l 1
 353 349 l 2
 359 376 363 385 372 395 c 0
 385 408 401 416 416 416 c 0
 443 416 458 398 456 370 c 0
 455 361 454 358 452 349 c 2
 428 236 l 2
 423 210 419 200 410 191 c 0
 397 178 380 170 365 170 c 0
 348 170 333 179 327 194 c 0
 324 203 324 212 329 236 c 2
 331 243 l 1
 246 243 l 1
451 750 m 1
 318 653 l 2
 304 643 296 640 287 640 c 0
 268 640 256 657 259 675 c 0
 262 689 265 692 291 711 c 2
 470 839 l 1
 594 711 l 1
 602 702 614 693 610 675 c 0
 607 657 587 640 569 640 c 0
 559 640 552 644 543 653 c 2
 451 750 l 1
EndSplineSet
EndChar
StartChar: Edieresis
Encoding: 138 203 148
Width: 600
Flags: W
HStem: 0 100<66.0605 115 215 471> 243 99<267 331> 483 100<168.341 197 297 531> 678 120<306.36 382.06 514.36 590.06>
Fore
246 243 m 1
 215 100 l 1
 471 100 l 1
 482 152 l 2
 488 180 492 188 501 198 c 0
 514 212 531 219 547 219 c 0
 564 219 578 210 584 195 c 0
 588 186 588 177 582 152 c 2
 550 0 l 1
 79 0 l 2
 56 0 43 3 36 10 c 0
 25 19 20 34 24 50 c 0
 27 67 40 83 57 93 c 0
 67 99 76 100 100 100 c 2
 115 100 l 1
 197 483 l 1
 182 483 l 2
 157 483 146 485 139 492 c 0
 128 502 123 517 126 533 c 0
 130 550 143 567 159 576 c 0
 170 582 177 583 203 583 c 2
 652 583 l 1
 620 433 l 2
 614 405 610 397 601 387 c 0
 588 374 572 366 556 366 c 0
 539 366 525 375 518 390 c 0
 515 399 515 409 520 433 c 2
 531 483 l 1
 297 483 l 1
 267 342 l 1
 352 342 l 1
 353 349 l 2
 359 376 363 385 372 395 c 0
 385 408 401 416 416 416 c 0
 443 416 458 398 456 370 c 0
 455 361 454 358 452 349 c 2
 428 236 l 2
 423 210 419 200 410 191 c 0
 397 178 380 170 365 170 c 0
 348 170 333 179 327 194 c 0
 324 203 324 212 329 236 c 2
 331 243 l 1
 246 243 l 1
357 798 m 0
 391 798 411 771 404 737 c 0
 397 705 364 678 331 678 c 0
 298 678 277 705 284 738 c 0
 291 771 324 798 357 798 c 0
565 798 m 0
 599 798 619 771 612 737 c 0
 605 705 572 678 539 678 c 0
 506 678 485 705 492 738 c 0
 499 771 532 798 565 798 c 0
EndSplineSet
EndChar
StartChar: Igrave
Encoding: 139 204 149
Width: 600
Flags: W
HStem: 0 100<135.689 271 371 514.087> 483 100<238.341 353 453 586.604>
Fore
453 483 m 1
 371 100 l 1
 472 100 l 2
 499 100 507 98 515 91 c 0
 527 81 531 66 528 50 c 0
 521 17 495 0 451 0 c 2
 149 0 l 2
 125 0 114 3 106 10 c 0
 95 19 90 35 94 50 c 0
 97 67 110 84 127 93 c 0
 137 99 144 100 170 100 c 2
 271 100 l 1
 353 483 l 1
 252 483 l 2
 227 483 216 485 209 492 c 0
 198 502 193 517 196 533 c 0
 200 550 213 567 229 576 c 0
 240 582 247 583 273 583 c 2
 575 583 l 2
 602 583 609 581 618 574 c 0
 630 564 634 549 630 533 c 0
 627 516 614 499 597 490 c 0
 588 485 577 483 554 483 c 2
 453 483 l 1
395 824 m 2
 504 712 l 2
 518 699 522 688 520 676 c 0
 516 657 495 640 475 640 c 0
 466 640 457 645 446 656 c 2
 337 767 l 2
 323 781 319 790 322 803 c 0
 326 823 345 839 366 839 c 0
 376 839 383 835 395 824 c 2
EndSplineSet
EndChar
StartChar: Iacute
Encoding: 140 205 150
Width: 600
Flags: W
HStem: 0 100<135.689 271 371 514.087> 483 100<238.341 353 453 586.604>
Fore
453 483 m 1
 371 100 l 1
 472 100 l 2
 499 100 507 98 515 91 c 0
 527 81 531 66 528 50 c 0
 521 17 495 0 451 0 c 2
 149 0 l 2
 125 0 114 3 106 10 c 0
 95 19 90 35 94 50 c 0
 97 67 110 84 127 93 c 0
 137 99 144 100 170 100 c 2
 271 100 l 1
 353 483 l 1
 252 483 l 2
 227 483 216 485 209 492 c 0
 198 502 193 517 196 533 c 0
 200 550 213 567 229 576 c 0
 240 582 247 583 273 583 c 2
 575 583 l 2
 602 583 609 581 618 574 c 0
 630 564 634 549 630 533 c 0
 627 516 614 499 597 490 c 0
 588 485 577 483 554 483 c 2
 453 483 l 1
615 767 m 1
 458 656 l 2
 443 645 432 640 423 640 c 0
 403 640 390 657 394 676 c 0
 396 688 406 700 424 712 c 1
 581 824 l 2
 597 835 606 839 616 839 c 0
 637 839 650 823 646 803 c 0
 643 790 635 780 615 767 c 1
EndSplineSet
EndChar
StartChar: Icircumflex
Encoding: 141 206 151
Width: 600
Flags: W
HStem: 0 100<135.689 271 371 514.087> 483 100<238.341 353 453 586.604>
Fore
453 483 m 1
 371 100 l 1
 472 100 l 2
 499 100 507 98 515 91 c 0
 527 81 531 66 528 50 c 0
 521 17 495 0 451 0 c 2
 149 0 l 2
 125 0 114 3 106 10 c 0
 95 19 90 35 94 50 c 0
 97 67 110 84 127 93 c 0
 137 99 144 100 170 100 c 2
 271 100 l 1
 353 483 l 1
 252 483 l 2
 227 483 216 485 209 492 c 0
 198 502 193 517 196 533 c 0
 200 550 213 567 229 576 c 0
 240 582 247 583 273 583 c 2
 575 583 l 2
 602 583 609 581 618 574 c 0
 630 564 634 549 630 533 c 0
 627 516 614 499 597 490 c 0
 588 485 577 483 554 483 c 2
 453 483 l 1
459 750 m 1
 326 653 l 2
 312 643 304 640 295 640 c 0
 276 640 264 657 267 675 c 0
 270 689 273 692 299 711 c 2
 478 839 l 1
 602 711 l 1
 610 702 622 693 618 675 c 0
 615 657 595 640 577 640 c 0
 567 640 560 644 551 653 c 2
 459 750 l 1
EndSplineSet
EndChar
StartChar: Idieresis
Encoding: 142 207 152
Width: 600
Flags: W
HStem: 0 100<135.689 271 371 514.087> 483 100<238.341 353 453 586.604> 678 120<315.36 391.06 523.36 599.06>
Fore
453 483 m 1
 371 100 l 1
 472 100 l 2
 499 100 507 98 515 91 c 0
 527 81 531 66 528 50 c 0
 521 17 495 0 451 0 c 2
 149 0 l 2
 125 0 114 3 106 10 c 0
 95 19 90 35 94 50 c 0
 97 67 110 84 127 93 c 0
 137 99 144 100 170 100 c 2
 271 100 l 1
 353 483 l 1
 252 483 l 2
 227 483 216 485 209 492 c 0
 198 502 193 517 196 533 c 0
 200 550 213 567 229 576 c 0
 240 582 247 583 273 583 c 2
 575 583 l 2
 602 583 609 581 618 574 c 0
 630 564 634 549 630 533 c 0
 627 516 614 499 597 490 c 0
 588 485 577 483 554 483 c 2
 453 483 l 1
366 798 m 0
 400 798 420 771 413 737 c 0
 406 705 373 678 340 678 c 0
 307 678 286 705 293 738 c 0
 300 771 333 798 366 798 c 0
574 798 m 0
 608 798 628 771 621 737 c 0
 614 705 581 678 548 678 c 0
 515 678 494 705 501 738 c 0
 508 771 541 798 574 798 c 0
EndSplineSet
EndChar
StartChar: Eth
Encoding: 143 208 153
Width: 600
Flags: W
HStem: 0 100<38.1411 95 195 406.578> 243 100<104.367 126 247 362.331> 483 100<168.367 177 277 467.822>
Fore
126 243 m 1
 118 243 l 2
 95 243 82 246 75 253 c 0
 64 262 59 277 62 293 c 0
 66 310 79 327 95 336 c 0
 106 342 113 343 140 343 c 2
 147 343 l 1
 177 483 l 1
 138 483 119 501 126 533 c 0
 130 550 143 567 159 576 c 0
 170 582 177 583 204 583 c 2
 416 583 l 2
 562 583 648 462 615 305 c 2
 605 258 l 2
 589 185 552 123 496 75 c 0
 436 23 371 0 284 0 c 2
 79 0 l 2
 56 0 44 3 36 10 c 0
 25 19 20 35 24 50 c 0
 30 82 57 100 95 100 c 1
 126 243 l 1
226 243 m 1
 195 100 l 1
 306 100 l 2
 366 100 402 112 440 144 c 1
 474 175 495 210 505 261 c 2
 515 307 l 2
 525 354 519 398 497 432 c 0
 474 467 440 483 387 483 c 2
 277 483 l 1
 247 343 l 1
 321 343 l 2
 348 343 355 341 364 334 c 0
 376 324 380 309 376 293 c 0
 369 260 344 243 300 243 c 2
 226 243 l 1
EndSplineSet
EndChar
StartChar: Ntilde
Encoding: 144 209 154
Width: 600
Flags: W
HStem: 0 100<36.8929 94 194 238.975> 483 100<147.341 176 485.341 534 634 690.913> 667 69<498.464 564.645> 730 69<339.543 412.289>
Fore
257 394 m 1xc0
 194 100 l 1
 229 100 l 2
 256 100 265 98 273 91 c 0
 284 81 288 66 285 50 c 0
 281 33 269 17 251 7 c 0
 244 3 228 0 208 0 c 2
 79 0 l 2
 55 0 43 3 35 10 c 0
 24 19 19 34 23 50 c 0
 29 82 55 100 94 100 c 1
 176 483 l 1
 161 483 l 2
 136 483 125 485 118 492 c 0
 107 502 102 517 105 533 c 0
 109 550 122 567 138 576 c 0
 149 582 156 583 182 583 c 2
 297 583 l 1
 472 191 l 1
 534 483 l 1
 499 483 l 2
 474 483 463 485 456 492 c 0
 445 502 440 517 443 533 c 0
 447 550 460 567 476 576 c 0
 487 582 494 583 520 583 c 2
 650 583 l 2
 677 583 684 581 693 574 c 0
 704 564 709 549 705 533 c 0
 698 501 674 483 634 483 c 1
 531 0 l 1
 432 0 l 1
 257 394 l 1xc0
621 799 m 1xd0
 640 797 651 786 648 771 c 0
 645 756 634 741 607 715 c 0
 573 681 546 667 517 667 c 0xe0
 495 667 465 681 427 709 c 0
 404 727 395 730 381 730 c 0
 363 730 354 724 315 684 c 0
 306 675 297 670 287 670 c 0
 270 670 259 683 263 700 c 0
 266 714 279 732 300 753 c 0
 331 783 364 799 393 799 c 0xd0
 417 799 432 792 476 762 c 0
 504 743 517 736 528 736 c 0xe0
 543 736 548 740 577 770 c 0
 594 789 608 798 621 799 c 1xd0
EndSplineSet
EndChar
StartChar: Ograve
Encoding: 145 210 155
Width: 600
Flags: W
HStem: -14 100<246.904 397.589> 497 100<325.777 480.354>
Fore
427 597 m 0
 494 597 553 570 596 520 c 0
 646 460 660 383 640 287 c 0
 605 123 449 -14 297 -14 c 0
 143 -14 47 123 83 292 c 0
 119 460 273 597 427 597 c 0
406 497 m 0
 308 497 207 404 183 292 c 0
 159 179 220 86 318 86 c 0
 415 86 517 179 540 289 c 0
 565 404 505 497 406 497 c 0
398 824 m 2
 507 712 l 2
 521 699 525 688 523 676 c 0
 519 657 498 640 478 640 c 0
 469 640 460 645 449 656 c 2
 340 767 l 2
 326 781 322 790 325 803 c 0
 329 823 348 839 369 839 c 0
 379 839 386 835 398 824 c 2
EndSplineSet
EndChar
StartChar: Oacute
Encoding: 146 211 156
Width: 600
Flags: W
HStem: -14 100<246.904 397.589> 497 100<325.777 480.354>
Fore
427 597 m 0
 494 597 553 570 596 520 c 0
 646 460 660 383 640 287 c 0
 605 123 449 -14 297 -14 c 0
 143 -14 47 123 83 292 c 0
 119 460 273 597 427 597 c 0
406 497 m 0
 308 497 207 404 183 292 c 0
 159 179 220 86 318 86 c 0
 415 86 517 179 540 289 c 0
 565 404 505 497 406 497 c 0
586 767 m 1
 429 656 l 2
 414 645 403 640 394 640 c 0
 374 640 361 657 365 676 c 0
 367 688 377 700 395 712 c 1
 552 824 l 2
 568 835 577 839 587 839 c 0
 608 839 621 823 617 803 c 0
 614 790 606 780 586 767 c 1
EndSplineSet
EndChar
StartChar: Ocircumflex
Encoding: 147 212 157
Width: 600
Flags: W
HStem: -14 100<246.904 397.589> 497 100<325.777 480.354>
Fore
427 597 m 0
 494 597 553 570 596 520 c 0
 646 460 660 383 640 287 c 0
 605 123 449 -14 297 -14 c 0
 143 -14 47 123 83 292 c 0
 119 460 273 597 427 597 c 0
406 497 m 0
 308 497 207 404 183 292 c 0
 159 179 220 86 318 86 c 0
 415 86 517 179 540 289 c 0
 565 404 505 497 406 497 c 0
459 750 m 1
 326 653 l 2
 312 643 304 640 295 640 c 0
 276 640 264 657 267 675 c 0
 270 689 273 692 299 711 c 2
 478 839 l 1
 602 711 l 1
 610 702 622 693 618 675 c 0
 615 657 595 640 577 640 c 0
 567 640 560 644 551 653 c 2
 459 750 l 1
EndSplineSet
EndChar
StartChar: Otilde
Encoding: 148 213 158
Width: 600
Flags: W
HStem: -14 100<246.904 397.589> 497 100<325.777 480.354> 667 69<506.263 572.858> 730 69<348.465 420.333>
Fore
427 597 m 0xc0
 494 597 553 570 596 520 c 0
 646 460 660 383 640 287 c 0
 605 123 449 -14 297 -14 c 0
 143 -14 47 123 83 292 c 0
 119 460 273 597 427 597 c 0xc0
406 497 m 0
 308 497 207 404 183 292 c 0
 159 179 220 86 318 86 c 0
 415 86 517 179 540 289 c 0
 565 404 505 497 406 497 c 0
630 799 m 0xd0
 647 799 659 785 656 771 c 0
 653 756 642 741 615 715 c 0
 581 681 554 667 525 667 c 0xe0
 503 667 473 681 435 709 c 0
 411 726 403 730 389 730 c 0
 371 730 362 723 325 685 c 0
 314 675 305 670 295 670 c 0
 278 670 267 683 271 700 c 0
 274 714 288 733 309 754 c 0
 340 783 373 799 402 799 c 0xd0
 425 799 441 792 484 762 c 0
 513 742 525 736 536 736 c 0xe0
 551 736 556 739 584 769 c 0
 603 789 618 799 630 799 c 0xd0
EndSplineSet
EndChar
StartChar: Odieresis
Encoding: 149 214 159
Width: 600
Flags: W
HStem: -14 100<246.904 397.589> 497 100<325.777 480.354> 678 120<315.36 391.06 523.36 599.06>
Fore
427 597 m 0
 494 597 553 570 596 520 c 0
 646 460 660 383 640 287 c 0
 605 123 449 -14 297 -14 c 0
 143 -14 47 123 83 292 c 0
 119 460 273 597 427 597 c 0
406 497 m 0
 308 497 207 404 183 292 c 0
 159 179 220 86 318 86 c 0
 415 86 517 179 540 289 c 0
 565 404 505 497 406 497 c 0
366 798 m 0
 400 798 420 771 413 737 c 0
 406 705 373 678 340 678 c 0
 307 678 286 705 293 738 c 0
 300 771 333 798 366 798 c 0
574 798 m 0
 608 798 628 771 621 737 c 0
 614 705 581 678 548 678 c 0
 515 678 494 705 501 738 c 0
 508 771 541 798 574 798 c 0
EndSplineSet
EndChar
StartChar: multiply
Encoding: 150 215 160
Width: 600
Flags: W
HStem: 80 400<167 252 167 252>
VStem: 128 463<131 430>
Fore
344 209 m 1
 220 106 l 2
 194 86 183 80 167 80 c 0
 140 80 122 103 128 131 c 0
 131 147 138 156 164 177 c 2
 289 280 l 1
 207 383 l 2
 191 405 188 413 191 430 c 0
 197 457 225 480 252 480 c 0
 268 480 277 474 294 454 c 2
 375 351 l 1
 500 454 l 2
 526 475 535 480 552 480 c 0
 579 480 597 457 591 430 c 0
 588 414 580 404 555 383 c 2
 431 280 l 1
 512 177 l 2
 527 157 531 146 528 130 c 0
 522 103 494 80 467 80 c 0
 450 80 442 85 426 106 c 2
 344 209 l 1
EndSplineSet
EndChar
StartChar: Oslash
Encoding: 151 216 161
Width: 600
Flags: W
HStem: -14 100<267.067 398.006> 497 100<325.015 480.238> 618 20G<668.5 691>
Fore
165 28 m 1
 96 -40 l 2
 71 -65 62 -70 43 -70 c 0
 16 -70 -1 -49 4 -23 c 0
 7 -10 13 -2 34 19 c 2
 107 92 l 1
 74 151 65 214 82 292 c 0
 118 460 272 597 427 597 c 0
 479 597 524 581 566 549 c 1
 624 607 l 2
 648 632 659 638 678 638 c 0
 704 638 721 616 715 590 c 0
 713 577 707 569 686 548 c 2
 621 483 l 1
 650 429 656 364 641 291 c 0
 605 123 451 -14 297 -14 c 0
 248 -14 202 1 165 28 c 1
537 400 m 1
 244 107 l 1
 266 93 291 86 318 86 c 0
 415 86 517 179 541 290 c 0
 549 328 547 369 537 400 c 1
189 174 m 1
 487 471 l 1
 462 488 436 497 405 497 c 0
 307 497 206 404 182 292 c 0
 173 248 175 211 189 174 c 1
EndSplineSet
EndChar
StartChar: Ugrave
Encoding: 152 217 162
Width: 600
Flags: W
HStem: -14 100<246.258 400.077> 483 100<165.527 174 274 341.604 483.341 532 632 688.913>
Fore
632 483 m 1
 573 205 l 2
 557 134 519 78 452 35 c 0
 402 2 352 -14 297 -14 c 0
 243 -14 198 2 162 35 c 0
 116 78 99 134 115 205 c 2
 174 483 l 1
 134 484 116 501 123 533 c 0
 127 550 140 567 156 576 c 0
 167 582 175 583 200 583 c 2
 330 583 l 2
 358 583 365 582 374 574 c 0
 384 564 389 549 385 533 c 0
 382 516 369 499 352 490 c 0
 343 485 332 483 309 483 c 2
 274 483 l 1
 213 196 l 2
 200 135 247 86 318 86 c 0
 389 86 458 135 471 196 c 2
 532 483 l 1
 497 483 l 2
 471 483 461 485 454 492 c 0
 443 502 438 517 441 533 c 0
 445 550 458 567 474 576 c 0
 485 582 492 583 518 583 c 2
 648 583 l 2
 675 583 682 581 692 574 c 0
 703 564 707 549 703 533 c 0
 696 501 672 483 632 483 c 1
398 824 m 2
 507 712 l 2
 521 699 525 688 523 676 c 0
 519 657 498 640 478 640 c 0
 469 640 460 645 449 656 c 2
 340 767 l 2
 326 781 322 790 325 803 c 0
 329 823 348 839 369 839 c 0
 379 839 386 835 398 824 c 2
EndSplineSet
EndChar
StartChar: Uacute
Encoding: 153 218 163
Width: 600
Flags: W
HStem: -14 100<246.258 400.077> 483 100<165.527 174 274 341.604 483.341 532 632 688.913>
Fore
632 483 m 1
 573 205 l 2
 557 134 519 78 452 35 c 0
 402 2 352 -14 297 -14 c 0
 243 -14 198 2 162 35 c 0
 116 78 99 134 115 205 c 2
 174 483 l 1
 134 484 116 501 123 533 c 0
 127 550 140 567 156 576 c 0
 167 582 175 583 200 583 c 2
 330 583 l 2
 358 583 365 582 374 574 c 0
 384 564 389 549 385 533 c 0
 382 516 369 499 352 490 c 0
 343 485 332 483 309 483 c 2
 274 483 l 1
 213 196 l 2
 200 135 247 86 318 86 c 0
 389 86 458 135 471 196 c 2
 532 483 l 1
 497 483 l 2
 471 483 461 485 454 492 c 0
 443 502 438 517 441 533 c 0
 445 550 458 567 474 576 c 0
 485 582 492 583 518 583 c 2
 648 583 l 2
 675 583 682 581 692 574 c 0
 703 564 707 549 703 533 c 0
 696 501 672 483 632 483 c 1
586 767 m 1
 429 656 l 2
 414 645 403 640 394 640 c 0
 374 640 361 657 365 676 c 0
 367 688 377 700 395 712 c 1
 552 824 l 2
 568 835 577 839 587 839 c 0
 608 839 621 823 617 803 c 0
 614 790 606 780 586 767 c 1
EndSplineSet
EndChar
StartChar: Ucircumflex
Encoding: 154 219 164
Width: 600
Flags: W
HStem: -14 100<246.258 400.077> 483 100<165.527 174 274 341.604 483.341 532 632 688.913>
Fore
632 483 m 1
 573 205 l 2
 557 134 519 78 452 35 c 0
 402 2 352 -14 297 -14 c 0
 243 -14 198 2 162 35 c 0
 116 78 99 134 115 205 c 2
 174 483 l 1
 134 484 116 501 123 533 c 0
 127 550 140 567 156 576 c 0
 167 582 175 583 200 583 c 2
 330 583 l 2
 358 583 365 582 374 574 c 0
 384 564 389 549 385 533 c 0
 382 516 369 499 352 490 c 0
 343 485 332 483 309 483 c 2
 274 483 l 1
 213 196 l 2
 200 135 247 86 318 86 c 0
 389 86 458 135 471 196 c 2
 532 483 l 1
 497 483 l 2
 471 483 461 485 454 492 c 0
 443 502 438 517 441 533 c 0
 445 550 458 567 474 576 c 0
 485 582 492 583 518 583 c 2
 648 583 l 2
 675 583 682 581 692 574 c 0
 703 564 707 549 703 533 c 0
 696 501 672 483 632 483 c 1
459 750 m 1
 326 653 l 2
 312 643 304 640 295 640 c 0
 276 640 264 657 267 675 c 0
 270 689 273 692 299 711 c 2
 478 839 l 1
 602 711 l 1
 610 702 622 693 618 675 c 0
 615 657 595 640 577 640 c 0
 567 640 560 644 551 653 c 2
 459 750 l 1
EndSplineSet
EndChar
StartChar: Udieresis
Encoding: 155 220 165
Width: 600
Flags: W
HStem: -14 100<246.258 400.077> 483 100<165.527 174 274 341.604 483.341 532 632 688.913> 678 120<315.36 391.06 523.36 599.06>
Fore
632 483 m 1
 573 205 l 2
 557 134 519 78 452 35 c 0
 402 2 352 -14 297 -14 c 0
 243 -14 198 2 162 35 c 0
 116 78 99 134 115 205 c 2
 174 483 l 1
 134 484 116 501 123 533 c 0
 127 550 140 567 156 576 c 0
 167 582 175 583 200 583 c 2
 330 583 l 2
 358 583 365 582 374 574 c 0
 384 564 389 549 385 533 c 0
 382 516 369 499 352 490 c 0
 343 485 332 483 309 483 c 2
 274 483 l 1
 213 196 l 2
 200 135 247 86 318 86 c 0
 389 86 458 135 471 196 c 2
 532 483 l 1
 497 483 l 2
 471 483 461 485 454 492 c 0
 443 502 438 517 441 533 c 0
 445 550 458 567 474 576 c 0
 485 582 492 583 518 583 c 2
 648 583 l 2
 675 583 682 581 692 574 c 0
 703 564 707 549 703 533 c 0
 696 501 672 483 632 483 c 1
366 798 m 0
 400 798 420 771 413 737 c 0
 406 705 373 678 340 678 c 0
 307 678 286 705 293 738 c 0
 300 771 333 798 366 798 c 0
574 798 m 0
 608 798 628 771 621 737 c 0
 614 705 581 678 548 678 c 0
 515 678 494 705 501 738 c 0
 508 771 541 798 574 798 c 0
EndSplineSet
EndChar
StartChar: Yacute
Encoding: 156 221 166
Width: 600
Flags: W
HStem: 0 100<170.715 271 371 446.915> 483 100<148.831 188 617 677.297>
Fore
134 533 m 0
 142 569 173 583 212 583 c 2
 301 583 l 2
 328 583 336 581 345 574 c 0
 355 564 360 549 356 533 c 0
 351 510 336 495 308 484 c 1
 374 348 l 1
 497 484 l 1
 472 494 462 510 467 533 c 0
 471 550 484 567 500 576 c 0
 511 582 520 583 545 583 c 2
 637 583 l 2
 664 583 672 581 680 574 c 0
 692 564 696 549 692 533 c 0
 686 502 653 479 619 483 c 2
 617 483 l 1
 402 245 l 1
 371 100 l 1
 436 100 l 2
 464 100 472 98 480 91 c 0
 491 81 496 66 493 50 c 0
 489 33 476 16 459 7 c 0
 452 3 436 0 415 0 c 2
 185 0 l 2
 161 0 149 3 141 10 c 0
 130 19 125 34 129 50 c 0
 132 67 145 84 162 93 c 0
 172 99 179 100 206 100 c 2
 271 100 l 1
 302 245 l 1
 188 483 l 1
 147 483 127 501 134 533 c 0
589 767 m 1
 432 656 l 2
 417 645 406 640 397 640 c 0
 377 640 364 657 368 676 c 0
 370 688 380 700 398 712 c 1
 555 824 l 2
 571 835 580 839 590 839 c 0
 611 839 624 823 620 803 c 0
 617 790 609 780 589 767 c 1
EndSplineSet
EndChar
StartChar: Thorn
Encoding: 157 222 167
Width: 600
Flags: W
HStem: 0 100<67.0605 116 216 324.975> 140 100<246 465.836> 343 100<289 478.058> 483 100<171.135 198 298 430.94>
Fore
225 140 m 1
 216 100 l 1
 315 100 l 2
 342 100 350 98 358 91 c 0
 369 81 374 66 371 50 c 0
 367 33 354 16 337 7 c 0
 330 3 314 0 294 0 c 2
 80 0 l 2
 57 0 44 3 37 10 c 0
 26 19 21 35 25 50 c 0
 28 67 41 84 58 93 c 0
 68 99 77 100 101 100 c 2
 116 100 l 1
 198 483 l 1
 183 483 l 2
 156 483 148 485 140 492 c 0
 129 502 124 517 127 533 c 0
 131 550 144 567 160 576 c 0
 169 581 183 583 204 583 c 2
 418 583 l 2
 442 583 453 580 461 574 c 0
 472 564 477 549 473 533 c 0
 470 516 457 499 440 490 c 0
 430 484 421 483 397 483 c 2
 298 483 l 1
 289 443 l 1
 387 443 l 2
 489 443 538 427 569 382 c 0
 586 358 592 325 585 292 c 0
 578 259 558 225 531 201 c 0
 480 156 425 140 323 140 c 2
 225 140 l 1
246 240 m 1
 377 240 l 2
 443 240 475 255 483 291 c 0
 491 328 466 343 399 343 c 2
 268 343 l 1
 246 240 l 1
EndSplineSet
EndChar
StartChar: germandbls
Encoding: 158 223 168
Width: 600
Flags: W
HStem: -16 100<336.5 437.423> 0 100<65.8746 116> 523 100<315.563 433.041>
Fore
116 100 m 1x60
 197 478 l 2
 215 563 299 623 400 623 c 0
 501 623 563 551 543 456 c 0
 535 419 522 397 489 365 c 1
 556 320 582 249 564 165 c 0
 541 57 464 -16 371 -16 c 0
 302 -16 262 31 276 97 c 0
 283 134 307 156 338 156 c 0
 351 156 364 151 370 142 c 0
 375 135 375 134 376 113 c 0
 376 94 384 84 400 84 c 0xa0
 428 84 454 116 464 164 c 0
 472 200 464 234 443 259 c 0
 422 285 393 297 342 303 c 0
 306 307 292 323 298 353 c 0
 304 381 327 399 361 402 c 0
 388 405 397 407 409 415 c 0
 427 425 440 442 444 459 c 0
 451 496 425 523 379 523 c 0
 332 523 302 502 293 461 c 2
 216 100 l 1
 243 95 255 78 249 51 c 0
 241 16 217 0 172 0 c 2
 79 0 l 2
 55 0 43 3 35 9 c 0
 25 19 20 35 24 50 c 0
 27 67 41 84 57 93 c 0
 67 99 75 100 100 100 c 2
 116 100 l 1x60
EndSplineSet
EndChar
StartChar: agrave
Encoding: 159 224 169
Width: 600
Flags: W
HStem: -16 100<178.408 348.975> 196 92<226.812 385.287> 350 100<280.977 446.982>
Fore
388 0 m 1
 393 23 l 1
 340 -2 278 -16 219 -16 c 0
 120 -16 52 45 67 119 c 0
 74 150 96 185 126 212 c 0
 182 262 256 288 345 288 c 0
 377 288 408 285 447 278 c 1
 452 301 l 2
 459 335 433 350 369 350 c 0
 336 350 298 345 250 333 c 0
 232 329 218 327 209 327 c 0
 181 327 164 349 170 378 c 0
 175 399 188 413 209 420 c 0
 261 437 338 450 388 450 c 0
 511 450 573 395 553 302 c 2
 510 100 l 1
 526 100 l 2
 553 100 562 98 570 91 c 0
 580 81 585 66 582 50 c 0
 578 33 565 16 548 7 c 0
 540 2 526 0 505 0 c 2
 388 0 l 1
418 135 m 1
 428 185 l 1
 390 192 354 196 320 196 c 0
 252 196 182 161 174 123 c 0
 169 101 199 84 242 84 c 0
 296 84 355 101 418 135 c 1
351 680 m 2
 460 569 l 2
 473 556 478 545 475 532 c 0
 471 513 450 496 430 496 c 0
 420 496 414 500 402 512 c 2
 293 624 l 1
 278 637 275 647 277 660 c 0
 282 680 301 696 322 696 c 0
 333 696 337 693 351 680 c 2
EndSplineSet
EndChar
StartChar: aacute
Encoding: 160 225 170
Width: 600
Flags: W
HStem: -16 100<178.408 348.975> 196 92<226.812 385.287> 350 100<280.977 446.982>
Fore
388 0 m 1
 393 23 l 1
 340 -2 278 -16 219 -16 c 0
 120 -16 52 45 67 119 c 0
 74 150 96 185 126 212 c 0
 182 262 256 288 345 288 c 0
 377 288 408 285 447 278 c 1
 452 301 l 2
 459 335 433 350 369 350 c 0
 336 350 298 345 250 333 c 0
 232 329 218 327 209 327 c 0
 181 327 164 349 170 378 c 0
 175 399 188 413 209 420 c 0
 261 437 338 450 388 450 c 0
 511 450 573 395 553 302 c 2
 510 100 l 1
 526 100 l 2
 553 100 562 98 570 91 c 0
 580 81 585 66 582 50 c 0
 578 33 565 16 548 7 c 0
 540 2 526 0 505 0 c 2
 388 0 l 1
418 135 m 1
 428 185 l 1
 390 192 354 196 320 196 c 0
 252 196 182 161 174 123 c 0
 169 101 199 84 242 84 c 0
 296 84 355 101 418 135 c 1
552 624 m 1
 395 512 l 2
 377 500 369 496 359 496 c 0
 339 496 326 513 330 532 c 0
 333 545 342 556 361 569 c 2
 518 680 l 2
 536 693 542 696 553 696 c 0
 574 696 587 680 582 659 c 0
 580 647 571 637 552 624 c 1
EndSplineSet
EndChar
StartChar: acircumflex
Encoding: 161 226 171
Width: 600
Flags: W
HStem: -16 100<178.408 348.975> 196 92<226.812 385.287> 350 100<280.977 446.982>
Fore
388 0 m 1
 393 23 l 1
 340 -2 278 -16 219 -16 c 0
 120 -16 52 45 67 119 c 0
 74 150 96 185 126 212 c 0
 182 262 256 288 345 288 c 0
 377 288 408 285 447 278 c 1
 452 301 l 2
 459 335 433 350 369 350 c 0
 336 350 298 345 250 333 c 0
 232 329 218 327 209 327 c 0
 181 327 164 349 170 378 c 0
 175 399 188 413 209 420 c 0
 261 437 338 450 388 450 c 0
 511 450 573 395 553 302 c 2
 510 100 l 1
 526 100 l 2
 553 100 562 98 570 91 c 0
 580 81 585 66 582 50 c 0
 578 33 565 16 548 7 c 0
 540 2 526 0 505 0 c 2
 388 0 l 1
418 135 m 1
 428 185 l 1
 390 192 354 196 320 196 c 0
 252 196 182 161 174 123 c 0
 169 101 199 84 242 84 c 0
 296 84 355 101 418 135 c 1
419 607 m 1
 285 510 l 2
 272 501 264 497 255 497 c 0
 236 497 223 514 227 532 c 0
 230 546 233 549 259 567 c 2
 438 696 l 1
 569 560 l 0
 578 551 580 543 578 532 c 0
 574 514 555 497 537 497 c 0
 528 497 519 501 510 510 c 2
 419 607 l 1
EndSplineSet
EndChar
StartChar: atilde
Encoding: 162 227 172
Width: 600
Flags: W
HStem: -16 100<178.408 348.975> 196 92<226.812 385.287> 350 100<280.977 446.982> 523 69<461.736 528.537> 587 69<304.447 376.395>
Fore
388 0 m 1xe0
 393 23 l 1
 340 -2 278 -16 219 -16 c 0
 120 -16 52 45 67 119 c 0
 74 150 96 185 126 212 c 0
 182 262 256 288 345 288 c 0
 377 288 408 285 447 278 c 1
 452 301 l 2
 459 335 433 350 369 350 c 0
 336 350 298 345 250 333 c 0
 232 329 218 327 209 327 c 0
 181 327 164 349 170 378 c 0
 175 399 188 413 209 420 c 0
 261 437 338 450 388 450 c 0
 511 450 573 395 553 302 c 2
 510 100 l 1
 526 100 l 2
 553 100 562 98 570 91 c 0
 580 81 585 66 582 50 c 0
 578 33 565 16 548 7 c 0
 540 2 526 0 505 0 c 2
 388 0 l 1xe0
418 135 m 1
 428 185 l 1
 390 192 354 196 320 196 c 0
 252 196 182 161 174 123 c 0
 169 101 199 84 242 84 c 0
 296 84 355 101 418 135 c 1
585 656 m 0xe8
 602 656 614 642 611 628 c 0
 608 613 597 598 570 571 c 0
 536 537 509 523 480 523 c 0xf0
 458 523 428 537 390 566 c 0
 367 584 359 587 345 587 c 0
 327 587 317 580 280 541 c 0
 270 530 261 526 251 526 c 0
 234 526 223 540 226 556 c 0
 229 570 243 590 265 611 c 0
 296 640 328 656 357 656 c 0xe8
 380 656 396 649 439 618 c 0
 469 598 481 592 492 592 c 0xf0
 507 592 512 596 540 626 c 0
 558 646 573 656 585 656 c 0xe8
EndSplineSet
EndChar
StartChar: adieresis
Encoding: 163 228 173
Width: 600
Flags: W
HStem: -16 100<178.408 348.975> 196 92<226.812 385.287> 350 100<280.977 446.982> 534 120<272.989 349.076 480.989 557.076>
Fore
388 0 m 1
 393 23 l 1
 340 -2 278 -16 219 -16 c 0
 120 -16 52 45 67 119 c 0
 74 150 96 185 126 212 c 0
 182 262 256 288 345 288 c 0
 377 288 408 285 447 278 c 1
 452 301 l 2
 459 335 433 350 369 350 c 0
 336 350 298 345 250 333 c 0
 232 329 218 327 209 327 c 0
 181 327 164 349 170 378 c 0
 175 399 188 413 209 420 c 0
 261 437 338 450 388 450 c 0
 511 450 573 395 553 302 c 2
 510 100 l 1
 526 100 l 2
 553 100 562 98 570 91 c 0
 580 81 585 66 582 50 c 0
 578 33 565 16 548 7 c 0
 540 2 526 0 505 0 c 2
 388 0 l 1
418 135 m 1
 428 185 l 1
 390 192 354 196 320 196 c 0
 252 196 182 161 174 123 c 0
 169 101 199 84 242 84 c 0
 296 84 355 101 418 135 c 1
324 654 m 0
 358 654 378 627 371 593 c 0
 364 561 332 534 299 534 c 0
 266 534 244 561 251 594 c 0
 258 627 291 654 324 654 c 0
532 654 m 0
 566 654 586 627 579 593 c 0
 572 561 540 534 507 534 c 0
 474 534 452 561 459 594 c 0
 466 627 499 654 532 654 c 0
EndSplineSet
EndChar
StartChar: aring
Encoding: 164 229 174
Width: 600
Flags: W
HStem: -16 100<178.408 348.975> 196 92<226.812 385.287> 350 100<280.977 446.982> 486 54<358.738 458.538> 674 53<377.059 477.439>
Fore
388 0 m 1
 393 23 l 1
 340 -2 278 -16 219 -16 c 0
 120 -16 52 45 67 119 c 0
 74 150 96 185 126 212 c 0
 182 262 256 288 345 288 c 0
 377 288 408 285 447 278 c 1
 452 301 l 2
 459 335 433 350 369 350 c 0
 336 350 298 345 250 333 c 0
 232 329 218 327 209 327 c 0
 181 327 164 349 170 378 c 0
 175 399 188 413 209 420 c 0
 261 437 338 450 388 450 c 0
 511 450 573 395 553 302 c 2
 510 100 l 1
 526 100 l 2
 553 100 562 98 570 91 c 0
 580 81 585 66 582 50 c 0
 578 33 565 16 548 7 c 0
 540 2 526 0 505 0 c 2
 388 0 l 1
418 135 m 1
 428 185 l 1
 390 192 354 196 320 196 c 0
 252 196 182 161 174 123 c 0
 169 101 199 84 242 84 c 0
 296 84 355 101 418 135 c 1
444 727 m 0
 512 727 555 672 541 605 c 0
 527 541 458 486 392 486 c 0
 325 486 281 541 295 607 c 0
 309 672 377 727 444 727 c 0
432 674 m 0
 394 674 356 643 348 607 c 0
 340 571 366 540 404 540 c 0
 441 540 480 571 488 606 c 0
 496 643 470 674 432 674 c 0
EndSplineSet
EndChar
StartChar: ae
Encoding: 165 230 175
Width: 600
Flags: W
HStem: -16 100<124.001 245.556 413.154 514.981> 172 86<417 557> 197 89<146.07 284.213> 350 100<264.1 316.274 458.266 546.417>
Fore
648 172 m 1xd0
 397 172 l 1xd0
 400 109 418 84 459 84 c 0
 481 84 501 89 530 101 c 0
 562 113 578 118 591 118 c 0
 617 118 632 96 626 66 c 0
 622 47 610 32 592 22 c 0
 552 0 486 -16 439 -16 c 0
 399 -16 377 -9 345 16 c 1
 334 5 321 -1 305 -1 c 0
 290 -1 280 5 272 16 c 1
 231 -7 199 -16 156 -16 c 0
 52 -16 -3 48 18 145 c 0
 27 189 49 216 96 242 c 0
 142 268 209 286 256 286 c 0xb0
 271 286 289 284 315 281 c 1
 319 301 l 2
 325 329 309 350 281 350 c 0
 264 350 255 348 187 329 c 0
 177 326 169 325 163 325 c 0
 137 325 120 348 126 376 c 0
 131 401 149 417 178 426 c 0
 217 438 278 450 303 450 c 0
 349 450 380 433 407 394 c 1
 451 433 489 450 531 450 c 0
 578 450 619 426 644 381 c 0
 666 341 672 285 657 218 c 2
 648 172 l 1xd0
283 130 m 1
 295 189 l 1
 273 195 258 197 241 197 c 0xb0
 204 197 161 186 137 171 c 0
 128 164 121 154 118 142 c 0
 111 107 134 84 176 84 c 0
 207 84 235 96 283 130 c 1
417 258 m 1xd0
 557 258 l 1
 559 285 559 299 554 313 c 0
 547 335 528 350 506 350 c 0
 483 350 457 333 440 307 c 0
 431 294 426 281 417 258 c 1xd0
EndSplineSet
EndChar
StartChar: ccedilla
Encoding: 166 231 176
Width: 600
Flags: W
HStem: -229 70<236.184 317.128> -16 100<339 401.932> 350 100<291.77 480.75>
Fore
263 -229 m 0
 224 -229 145 -211 155 -166 c 0
 159 -147 178 -131 197 -131 c 0
 205 -131 208 -132 224 -142 c 0
 240 -152 260 -159 277 -159 c 0
 300 -159 315 -150 319 -134 c 0
 323 -112 306 -100 270 -100 c 0
 265 -100 260 -101 250 -102 c 1
 269 -14 l 1
 215 -8 184 2 154 26 c 0
 101 66 82 131 98 206 c 0
 128 350 255 450 407 450 c 0
 463 450 509 440 543 420 c 1
 554 441 567 450 587 450 c 0
 604 450 620 441 624 428 c 0
 628 419 627 411 622 384 c 2
 605 307 l 2
 600 281 596 271 587 262 c 0
 574 249 557 241 541 241 c 0
 528 241 515 247 508 255 c 1
 501 261 501 267 500 289 c 0
 500 307 496 316 486 325 c 1
 463 341 428 350 385 350 c 0
 333 350 293 336 259 307 c 0
 228 281 206 245 198 207 c 0
 181 125 231 84 348 84 c 0
 388 84 430 89 456 97 c 0
 476 103 483 107 512 128 c 0
 523 136 533 140 545 140 c 0
 572 140 590 117 584 89 c 0
 577 58 533 23 476 5 c 0
 434 -8 395 -14 339 -16 c 1
 333 -42 l 1
 382 -52 400 -81 389 -133 c 0
 377 -188 323 -229 263 -229 c 0
EndSplineSet
EndChar
StartChar: egrave
Encoding: 167 232 177
Width: 600
Flags: W
HStem: -16 100<224.313 420.458> 172 88<200 494> 350 100<273.106 451.871>
Fore
587 172 m 1
 179 172 l 1
 189 112 236 84 324 84 c 0
 370 84 396 88 493 112 c 0
 505 115 518 117 527 117 c 0
 554 117 570 95 564 67 c 0
 560 47 546 33 520 22 c 0
 470 2 365 -16 294 -16 c 0
 139 -16 50 80 79 216 c 0
 107 348 241 450 387 450 c 0
 536 450 624 349 595 211 c 2
 587 172 l 1
200 260 m 1
 494 260 l 1
 490 315 439 350 366 350 c 0
 293 350 227 314 200 260 c 1
363 680 m 2
 472 569 l 2
 485 556 490 545 487 532 c 0
 483 513 462 496 442 496 c 0
 432 496 426 500 414 512 c 2
 305 624 l 1
 290 637 287 647 289 660 c 0
 294 680 313 696 334 696 c 0
 345 696 349 693 363 680 c 2
EndSplineSet
EndChar
StartChar: eacute
Encoding: 168 233 178
Width: 600
Flags: W
HStem: -16 100<224.313 420.458> 172 88<200 494> 350 100<273.106 451.871>
Fore
587 172 m 1
 179 172 l 1
 189 112 236 84 324 84 c 0
 370 84 396 88 493 112 c 0
 505 115 518 117 527 117 c 0
 554 117 570 95 564 67 c 0
 560 47 546 33 520 22 c 0
 470 2 365 -16 294 -16 c 0
 139 -16 50 80 79 216 c 0
 107 348 241 450 387 450 c 0
 536 450 624 349 595 211 c 2
 587 172 l 1
200 260 m 1
 494 260 l 1
 490 315 439 350 366 350 c 0
 293 350 227 314 200 260 c 1
564 624 m 1
 407 512 l 2
 389 500 381 496 371 496 c 0
 351 496 338 513 342 532 c 0
 345 545 354 556 373 569 c 2
 530 680 l 2
 548 693 554 696 565 696 c 0
 586 696 599 680 594 659 c 0
 592 647 583 637 564 624 c 1
EndSplineSet
EndChar
StartChar: ecircumflex
Encoding: 169 234 179
Width: 600
Flags: W
HStem: -16 100<224.313 420.458> 172 88<200 494> 350 100<273.106 451.871>
Fore
587 172 m 1
 179 172 l 1
 189 112 236 84 324 84 c 0
 370 84 396 88 493 112 c 0
 505 115 518 117 527 117 c 0
 554 117 570 95 564 67 c 0
 560 47 546 33 520 22 c 0
 470 2 365 -16 294 -16 c 0
 139 -16 50 80 79 216 c 0
 107 348 241 450 387 450 c 0
 536 450 624 349 595 211 c 2
 587 172 l 1
200 260 m 1
 494 260 l 1
 490 315 439 350 366 350 c 0
 293 350 227 314 200 260 c 1
434 607 m 1
 300 510 l 2
 287 501 279 497 270 497 c 0
 251 497 238 514 242 532 c 0
 245 546 248 549 274 567 c 2
 453 696 l 1
 584 560 l 0
 593 551 595 543 593 532 c 0
 589 514 570 497 552 497 c 0
 543 497 534 501 525 510 c 2
 434 607 l 1
EndSplineSet
EndChar
StartChar: edieresis
Encoding: 170 235 180
Width: 600
Flags: W
HStem: -16 100<224.313 420.458> 172 88<200 494> 350 100<273.106 451.871> 534 120<287.989 364.076 495.989 572.076>
Fore
587 172 m 1
 179 172 l 1
 189 112 236 84 324 84 c 0
 370 84 396 88 493 112 c 0
 505 115 518 117 527 117 c 0
 554 117 570 95 564 67 c 0
 560 47 546 33 520 22 c 0
 470 2 365 -16 294 -16 c 0
 139 -16 50 80 79 216 c 0
 107 348 241 450 387 450 c 0
 536 450 624 349 595 211 c 2
 587 172 l 1
200 260 m 1
 494 260 l 1
 490 315 439 350 366 350 c 0
 293 350 227 314 200 260 c 1
339 654 m 0
 373 654 393 627 386 593 c 0
 379 561 347 534 314 534 c 0
 281 534 259 561 266 594 c 0
 273 627 306 654 339 654 c 0
547 654 m 0
 581 654 601 627 594 593 c 0
 587 561 555 534 522 534 c 0
 489 534 467 561 474 594 c 0
 481 627 514 654 547 654 c 0
EndSplineSet
EndChar
StartChar: igrave
Encoding: 171 236 181
Width: 600
Flags: W
HStem: 0 100<114.689 271 371 502.975> 337 100<229.553 322>
VStem: 73 476<31.3304 69.4157 50 50>
Fore
443 437 m 1
 371 100 l 1
 493 100 l 2
 520 100 528 98 536 91 c 0
 547 81 552 66 549 50 c 0
 545 33 533 17 515 7 c 0
 508 3 492 0 472 0 c 2
 128 0 l 2
 105 0 92 3 85 10 c 0
 74 19 69 34 73 50 c 0
 76 67 89 84 106 93 c 0
 116 99 123 100 149 100 c 2
 271 100 l 1
 322 337 l 1
 244 337 l 2
 219 337 207 339 200 347 c 1
 189 356 184 371 187 387 c 0
 191 404 203 421 220 430 c 0
 231 436 239 437 265 437 c 2
 443 437 l 1
352 680 m 2
 461 569 l 2
 474 556 479 545 476 532 c 0
 472 513 451 496 431 496 c 0
 421 496 415 500 403 512 c 2
 294 624 l 1
 279 637 276 647 278 660 c 0
 283 680 302 696 323 696 c 0
 334 696 338 693 352 680 c 2
EndSplineSet
EndChar
StartChar: iacute
Encoding: 172 237 182
Width: 600
Flags: W
HStem: 0 100<114.689 271 371 502.975> 337 100<229.553 322>
Fore
443 437 m 1
 371 100 l 1
 493 100 l 2
 520 100 528 98 536 91 c 0
 547 81 552 66 549 50 c 0
 545 33 533 17 515 7 c 0
 508 3 492 0 472 0 c 2
 128 0 l 2
 105 0 92 3 85 10 c 0
 74 19 69 34 73 50 c 0
 76 67 89 84 106 93 c 0
 116 99 123 100 149 100 c 2
 271 100 l 1
 322 337 l 1
 244 337 l 2
 219 337 207 339 200 347 c 1
 189 356 184 371 187 387 c 0
 191 404 203 421 220 430 c 0
 231 436 239 437 265 437 c 2
 443 437 l 1
543 624 m 1
 386 512 l 2
 368 500 360 496 350 496 c 0
 330 496 317 513 321 532 c 0
 324 545 333 556 352 569 c 2
 509 680 l 2
 527 693 533 696 544 696 c 0
 565 696 578 680 573 659 c 0
 571 647 562 637 543 624 c 1
EndSplineSet
EndChar
StartChar: icircumflex
Encoding: 173 238 183
Width: 600
Flags: W
HStem: 0 100<114.689 271 371 502.975> 337 100<229.553 322>
VStem: 73 499<50 532>
Fore
443 437 m 1
 371 100 l 1
 493 100 l 2
 520 100 528 98 536 91 c 0
 547 81 552 66 549 50 c 0
 545 33 533 17 515 7 c 0
 508 3 492 0 472 0 c 2
 128 0 l 2
 105 0 92 3 85 10 c 0
 74 19 69 34 73 50 c 0
 76 67 89 84 106 93 c 0
 116 99 123 100 149 100 c 2
 271 100 l 1
 322 337 l 1
 244 337 l 2
 219 337 207 339 200 347 c 1
 189 356 184 371 187 387 c 0
 191 404 203 421 220 430 c 0
 231 436 239 437 265 437 c 2
 443 437 l 1
413 607 m 1
 279 510 l 2
 266 501 258 497 249 497 c 0
 230 497 217 514 221 532 c 0
 224 546 227 549 253 567 c 2
 432 696 l 1
 563 560 l 0
 572 551 574 543 572 532 c 0
 568 514 549 497 531 497 c 0
 522 497 513 501 504 510 c 2
 413 607 l 1
EndSplineSet
EndChar
StartChar: idieresis
Encoding: 174 239 184
Width: 600
Flags: W
HStem: 0 100<114.689 271 371 502.975> 337 100<229.553 322> 534 120<266.989 343.076 474.989 551.076>
Fore
443 437 m 1
 371 100 l 1
 493 100 l 2
 520 100 528 98 536 91 c 0
 547 81 552 66 549 50 c 0
 545 33 533 17 515 7 c 0
 508 3 492 0 472 0 c 2
 128 0 l 2
 105 0 92 3 85 10 c 0
 74 19 69 34 73 50 c 0
 76 67 89 84 106 93 c 0
 116 99 123 100 149 100 c 2
 271 100 l 1
 322 337 l 1
 244 337 l 2
 219 337 207 339 200 347 c 1
 189 356 184 371 187 387 c 0
 191 404 203 421 220 430 c 0
 231 436 239 437 265 437 c 2
 443 437 l 1
318 654 m 0
 352 654 372 627 365 593 c 0
 358 561 326 534 293 534 c 0
 260 534 238 561 245 594 c 0
 252 627 285 654 318 654 c 0
526 654 m 0
 560 654 580 627 573 593 c 0
 566 561 534 534 501 534 c 0
 468 534 446 561 453 594 c 0
 460 627 493 654 526 654 c 0
EndSplineSet
EndChar
StartChar: eth
Encoding: 175 240 185
Width: 600
Flags: W
HStem: -16 100<237.607 409.276> 350 93<285.998 454.535> 456 21G<257.5 270.5>
Fore
541 583 m 1
 491 558 l 1
 600 468 636 368 608 233 c 0
 591 153 558 99 501 55 c 0
 441 10 367 -16 297 -16 c 0
 154 -16 60 85 87 211 c 0
 114 339 245 443 380 443 c 0
 430 443 459 433 514 396 c 1
 486 445 445 490 403 518 c 1
 300 468 l 2
 279 457 275 456 266 456 c 0
 249 456 239 472 244 493 c 0
 247 507 250 510 274 522 c 2
 330 551 l 1
 317 558 302 564 295 568 c 2
 280 573 l 2
 264 579 257 590 260 604 c 0
 264 623 287 640 308 640 c 0
 331 640 359 631 400 609 c 2
 426 596 l 1
 511 637 l 2
 525 643 536 646 546 646 c 0
 563 646 574 632 570 613 c 0
 568 601 557 590 541 583 c 1
374 350 m 0
 287 350 205 289 189 212 c 0
 174 141 232 84 318 84 c 0
 403 84 486 141 501 210 c 0
 517 289 462 350 374 350 c 0
EndSplineSet
EndChar
StartChar: ntilde
Encoding: 176 241 186
Width: 600
Flags: W
HStem: 0 100<77.3753 116 216 233.138 373.893 431 531 537.138> 350 100<336.312 460.894> 523 69<462.385 528.587> 587 69<305.211 377.164>
Fore
116 387 m 0xc0
 124 423 155 437 194 437 c 2
 288 437 l 1
 278 389 l 1
 335 435 373 450 428 450 c 0
 528 450 593 392 570 282 c 2
 531 100 l 1
 570 100 588 82 582 50 c 0
 578 33 565 16 548 7 c 0
 539 2 526 0 505 0 c 2
 416 0 l 2
 371 0 353 17 360 50 c 0
 366 82 392 100 431 100 c 1
 469 278 l 2
 480 327 456 350 396 350 c 0
 346 350 319 337 255 282 c 1
 216 100 l 1
 222 100 l 2
 249 100 257 98 265 91 c 0
 276 81 281 66 278 50 c 0
 274 33 262 17 244 7 c 0
 235 2 222 0 201 0 c 2
 89 0 l 2
 65 0 54 3 45 10 c 0
 35 19 30 35 34 50 c 0
 37 67 50 84 67 93 c 0
 77 98 85 100 110 100 c 2
 116 100 l 1
 167 337 l 1
 128 338 109 355 116 387 c 0xc0
585 656 m 1xd0
 605 654 616 643 612 627 c 0
 609 613 598 598 571 571 c 0
 537 537 510 523 481 523 c 0xe0
 459 523 429 537 391 566 c 0
 367 584 360 587 346 587 c 0
 328 587 318 581 280 540 c 0
 271 531 262 526 252 526 c 0
 235 526 224 540 227 556 c 0
 230 570 244 589 266 610 c 0
 297 640 329 656 357 656 c 0xd0
 381 656 397 649 440 618 c 0
 469 598 481 592 493 592 c 0xe0
 508 592 514 596 545 631 c 0
 558 645 574 655 585 656 c 1xd0
EndSplineSet
EndChar
StartChar: ograve
Encoding: 177 242 187
Width: 600
Flags: W
HStem: -16 100<237.909 408.108> 350 100<284.947 455.779>
Fore
399 450 m 0
 540 450 632 346 604 217 c 0
 576 87 441 -16 297 -16 c 0
 153 -16 60 87 88 217 c 0
 116 349 251 450 399 450 c 0
376 350 m 0
 285 350 204 293 188 217 c 0
 172 142 229 84 318 84 c 0
 407 84 488 142 504 217 c 0
 520 291 463 350 376 350 c 0
362 680 m 2
 471 569 l 2
 484 556 489 545 486 532 c 0
 482 513 461 496 441 496 c 0
 431 496 425 500 413 512 c 2
 304 624 l 1
 289 637 286 647 288 660 c 0
 293 680 312 696 333 696 c 0
 344 696 348 693 362 680 c 2
EndSplineSet
EndChar
StartChar: oacute
Encoding: 178 243 188
Width: 600
Flags: W
HStem: -16 100<237.909 408.108> 350 100<284.947 455.779>
Fore
399 450 m 0
 540 450 632 346 604 217 c 0
 576 87 441 -16 297 -16 c 0
 153 -16 60 87 88 217 c 0
 116 349 251 450 399 450 c 0
376 350 m 0
 285 350 204 293 188 217 c 0
 172 142 229 84 318 84 c 0
 407 84 488 142 504 217 c 0
 520 291 463 350 376 350 c 0
563 624 m 1
 406 512 l 2
 388 500 380 496 370 496 c 0
 350 496 337 513 341 532 c 0
 344 545 353 556 372 569 c 2
 529 680 l 2
 547 693 553 696 564 696 c 0
 585 696 598 680 593 659 c 0
 591 647 582 637 563 624 c 1
EndSplineSet
EndChar
StartChar: ocircumflex
Encoding: 179 244 189
Width: 600
Flags: W
HStem: -16 100<237.909 408.108> 350 100<284.947 455.779>
Fore
399 450 m 0
 540 450 632 346 604 217 c 0
 576 87 441 -16 297 -16 c 0
 153 -16 60 87 88 217 c 0
 116 349 251 450 399 450 c 0
376 350 m 0
 285 350 204 293 188 217 c 0
 172 142 229 84 318 84 c 0
 407 84 488 142 504 217 c 0
 520 291 463 350 376 350 c 0
429 607 m 1
 295 510 l 2
 282 501 274 497 265 497 c 0
 246 497 233 514 237 532 c 0
 240 546 243 549 269 567 c 2
 448 696 l 1
 579 560 l 0
 588 551 590 543 588 532 c 0
 584 514 565 497 547 497 c 0
 538 497 529 501 520 510 c 2
 429 607 l 1
EndSplineSet
EndChar
StartChar: otilde
Encoding: 180 245 190
Width: 600
Flags: W
HStem: -16 100<237.909 408.108> 350 100<284.947 455.779> 523 69<475.736 542.537> 587 69<318.447 390.395>
Fore
399 450 m 0xc0
 540 450 632 346 604 217 c 0
 576 87 441 -16 297 -16 c 0
 153 -16 60 87 88 217 c 0
 116 349 251 450 399 450 c 0xc0
376 350 m 0
 285 350 204 293 188 217 c 0
 172 142 229 84 318 84 c 0
 407 84 488 142 504 217 c 0
 520 291 463 350 376 350 c 0
599 656 m 0xd0
 616 656 628 642 625 628 c 0
 622 613 611 598 584 571 c 0
 550 537 523 523 494 523 c 0xe0
 472 523 442 537 404 566 c 0
 381 584 373 587 359 587 c 0
 341 587 331 580 294 541 c 0
 284 530 275 526 265 526 c 0
 248 526 237 540 240 556 c 0
 243 570 257 590 279 611 c 0
 310 640 342 656 371 656 c 0xd0
 394 656 410 649 453 618 c 0
 483 598 495 592 506 592 c 0xe0
 521 592 526 596 554 626 c 0
 572 646 587 656 599 656 c 0xd0
EndSplineSet
EndChar
StartChar: odieresis
Encoding: 181 246 191
Width: 600
Flags: W
HStem: -16 100<237.909 408.108> 350 100<284.947 455.779> 534 120<283.989 360.076 491.989 568.076>
Fore
399 450 m 0
 540 450 632 346 604 217 c 0
 576 87 441 -16 297 -16 c 0
 153 -16 60 87 88 217 c 0
 116 349 251 450 399 450 c 0
376 350 m 0
 285 350 204 293 188 217 c 0
 172 142 229 84 318 84 c 0
 407 84 488 142 504 217 c 0
 520 291 463 350 376 350 c 0
335 654 m 0
 369 654 389 627 382 593 c 0
 375 561 343 534 310 534 c 0
 277 534 255 561 262 594 c 0
 269 627 302 654 335 654 c 0
543 654 m 0
 577 654 597 627 590 593 c 0
 583 561 551 534 518 534 c 0
 485 534 463 561 470 594 c 0
 477 627 510 654 543 654 c 0
EndSplineSet
EndChar
StartChar: divide
Encoding: 182 247 192
Width: 600
Flags: W
HStem: 28 132<271.762 368.239> 230 100<143.875 573.371> 400 132<350.762 447.646>
CounterMasks: 1 e0
Fore
178 330 m 2
 562 330 l 2
 589 330 597 328 605 321 c 0
 616 311 621 296 618 280 c 0
 614 263 601 246 584 237 c 0
 575 232 563 230 541 230 c 2
 157 230 l 2
 133 230 121 232 114 240 c 1
 103 249 98 265 102 280 c 0
 105 297 119 314 135 323 c 0
 145 329 153 330 178 330 c 2
334 160 m 0
 380 160 403 134 395 93 c 0
 386 54 351 28 306 28 c 0
 261 28 237 55 245 94 c 0
 253 133 289 160 334 160 c 0
413 532 m 0
 459 532 483 506 474 465 c 0
 466 426 430 400 385 400 c 0
 340 400 316 427 324 466 c 0
 332 505 368 532 413 532 c 0
EndSplineSet
EndChar
StartChar: oslash
Encoding: 183 248 193
Width: 600
Flags: W
HStem: -16 100<274.495 407.977> 350 100<283.909 417.481>
Fore
633 402 m 1
 582 359 l 1
 607 316 615 267 604 217 c 0
 576 87 441 -16 297 -16 c 0
 252 -16 212 -6 175 14 c 1
 107 -44 l 2
 81 -65 72 -70 56 -70 c 0
 29 -70 13 -49 18 -22 c 0
 22 -7 28 2 53 22 c 2
 111 72 l 1
 86 114 77 167 88 217 c 0
 116 347 252 450 394 450 c 0
 438 450 491 437 521 419 c 1
 579 468 l 2
 605 489 614 494 631 494 c 0
 657 494 674 473 668 447 c 0
 664 430 659 422 633 402 c 1
497 286 m 1
 266 91 l 1
 283 86 297 84 317 84 c 0
 407 84 488 142 504 217 c 0
 509 241 506 264 497 286 c 1
198 145 m 1
 430 342 l 1
 410 347 393 350 374 350 c 0
 285 350 204 292 188 217 c 0
 183 192 186 168 198 145 c 1
EndSplineSet
EndChar
StartChar: ugrave
Encoding: 184 249 194
Width: 600
Flags: W
HStem: -13 100<236.631 360.744> 338 99<140 167 433.713 482>
Fore
270 -13 m 0
 168 -13 105 46 128 156 c 2
 167 338 l 1
 151 338 l 1
 140 337 l 2
 109 335 89 358 95 387 c 0
 99 404 111 421 128 430 c 0
 139 436 147 437 172 437 c 2
 288 437 l 1
 229 159 l 2
 218 110 241 87 301 87 c 0
 351 87 379 100 443 155 c 1
 482 337 l 1
 447 337 l 2
 422 337 411 339 404 347 c 1
 393 356 388 372 391 387 c 0
 395 404 407 421 424 430 c 0
 435 436 444 437 468 437 c 2
 603 437 l 1
 531 100 l 1
 570 100 588 82 582 50 c 0
 578 33 566 17 548 7 c 0
 539 2 526 0 505 0 c 2
 410 0 l 1
 420 48 l 1
 360 1 325 -13 270 -13 c 0
360 680 m 2
 469 569 l 2
 482 556 487 545 484 532 c 0
 480 513 459 496 439 496 c 0
 429 496 423 500 411 512 c 2
 302 624 l 1
 287 637 284 647 286 660 c 0
 291 680 310 696 331 696 c 0
 342 696 346 693 360 680 c 2
EndSplineSet
EndChar
StartChar: uacute
Encoding: 185 250 195
Width: 600
Flags: W
HStem: -13 100<236.631 360.744> 338 99<140 167 433.713 482>
Fore
270 -13 m 0
 168 -13 105 46 128 156 c 2
 167 338 l 1
 151 338 l 1
 140 337 l 2
 109 335 89 358 95 387 c 0
 99 404 111 421 128 430 c 0
 139 436 147 437 172 437 c 2
 288 437 l 1
 229 159 l 2
 218 110 241 87 301 87 c 0
 351 87 379 100 443 155 c 1
 482 337 l 1
 447 337 l 2
 422 337 411 339 404 347 c 1
 393 356 388 372 391 387 c 0
 395 404 407 421 424 430 c 0
 435 436 444 437 468 437 c 2
 603 437 l 1
 531 100 l 1
 570 100 588 82 582 50 c 0
 578 33 566 17 548 7 c 0
 539 2 526 0 505 0 c 2
 410 0 l 1
 420 48 l 1
 360 1 325 -13 270 -13 c 0
551 624 m 1
 394 512 l 2
 376 500 368 496 358 496 c 0
 338 496 325 513 329 532 c 0
 332 545 341 556 360 569 c 2
 517 680 l 2
 535 693 541 696 552 696 c 0
 573 696 586 680 581 659 c 0
 579 647 570 637 551 624 c 1
EndSplineSet
EndChar
StartChar: ucircumflex
Encoding: 186 251 196
Width: 600
Flags: W
HStem: -13 100<236.631 360.744> 338 99<140 167 433.713 482>
Fore
270 -13 m 0
 168 -13 105 46 128 156 c 2
 167 338 l 1
 151 338 l 1
 140 337 l 2
 109 335 89 358 95 387 c 0
 99 404 111 421 128 430 c 0
 139 436 147 437 172 437 c 2
 288 437 l 1
 229 159 l 2
 218 110 241 87 301 87 c 0
 351 87 379 100 443 155 c 1
 482 337 l 1
 447 337 l 2
 422 337 411 339 404 347 c 1
 393 356 388 372 391 387 c 0
 395 404 407 421 424 430 c 0
 435 436 444 437 468 437 c 2
 603 437 l 1
 531 100 l 1
 570 100 588 82 582 50 c 0
 578 33 566 17 548 7 c 0
 539 2 526 0 505 0 c 2
 410 0 l 1
 420 48 l 1
 360 1 325 -13 270 -13 c 0
425 607 m 1
 291 510 l 2
 278 501 270 497 261 497 c 0
 242 497 229 514 233 532 c 0
 236 546 239 549 265 567 c 2
 444 696 l 1
 575 560 l 0
 584 551 586 543 584 532 c 0
 580 514 561 497 543 497 c 0
 534 497 525 501 516 510 c 2
 425 607 l 1
EndSplineSet
EndChar
StartChar: udieresis
Encoding: 187 252 197
Width: 600
Flags: W
HStem: -13 100<236.631 360.744> 338 99<140 167 433.713 482> 534 120<278.989 355.076 486.989 563.076>
Fore
270 -13 m 0
 168 -13 105 46 128 156 c 2
 167 338 l 1
 151 338 l 1
 140 337 l 2
 109 335 89 358 95 387 c 0
 99 404 111 421 128 430 c 0
 139 436 147 437 172 437 c 2
 288 437 l 1
 229 159 l 2
 218 110 241 87 301 87 c 0
 351 87 379 100 443 155 c 1
 482 337 l 1
 447 337 l 2
 422 337 411 339 404 347 c 1
 393 356 388 372 391 387 c 0
 395 404 407 421 424 430 c 0
 435 436 444 437 468 437 c 2
 603 437 l 1
 531 100 l 1
 570 100 588 82 582 50 c 0
 578 33 566 17 548 7 c 0
 539 2 526 0 505 0 c 2
 410 0 l 1
 420 48 l 1
 360 1 325 -13 270 -13 c 0
330 654 m 0
 364 654 384 627 377 593 c 0
 370 561 338 534 305 534 c 0
 272 534 250 561 257 594 c 0
 264 627 297 654 330 654 c 0
538 654 m 0
 572 654 592 627 585 593 c 0
 578 561 546 534 513 534 c 0
 480 534 458 561 465 594 c 0
 472 627 505 654 538 654 c 0
EndSplineSet
EndChar
StartChar: yacute
Encoding: 188 253 198
Width: 600
Flags: W
HStem: -205 100<31.8812 165 275 291.098> 337 100<118.01 142 256 311.448 450.831 490>
Fore
436 387 m 0
 444 423 475 437 514 437 c 2
 606 437 l 2
 632 437 641 435 649 428 c 0
 661 418 665 403 661 387 c 0
 655 358 632 340 599 337 c 1
 275 -105 l 1
 280 -105 l 2
 306 -105 315 -107 324 -114 c 0
 334 -124 338 -139 335 -155 c 0
 331 -172 319 -188 302 -198 c 0
 293 -203 280 -205 258 -205 c 2
 43 -205 l 2
 18 -205 8 -203 1 -195 c 1
 -11 -186 -15 -171 -12 -155 c 0
 -8 -138 4 -121 21 -112 c 0
 31 -107 41 -105 65 -105 c 2
 165 -105 l 1
 243 3 l 1
 142 337 l 1
 111 341 97 359 103 387 c 0
 111 422 143 437 180 437 c 2
 270 437 l 2
 296 437 305 435 314 428 c 0
 324 418 329 403 325 387 c 0
 319 356 294 338 256 337 c 1
 322 114 l 1
 490 337 l 1
 449 337 429 355 436 387 c 0
585 624 m 1
 428 512 l 2
 410 500 402 496 392 496 c 0
 372 496 359 513 363 532 c 0
 366 545 375 556 394 569 c 2
 551 680 l 2
 569 693 575 696 586 696 c 0
 607 696 620 680 615 659 c 0
 613 647 604 637 585 624 c 1
EndSplineSet
EndChar
StartChar: thorn
Encoding: 189 254 199
Width: 600
Flags: W
HStem: -205 100<1.27255 52 152 221.098> 10 100<262.213 437.427> 350 100<318.405 480.175> 604 20G<179 307>
Fore
188 66 m 1
 152 -105 l 1
 210 -105 l 2
 236 -105 245 -107 254 -114 c 0
 265 -124 268 -139 265 -155 c 0
 261 -172 249 -188 232 -198 c 0
 223 -203 210 -205 188 -205 c 2
 14 -205 l 2
 -11 -205 -21 -203 -29 -195 c 0
 -40 -186 -44 -171 -41 -155 c 0
 -37 -138 -25 -121 -8 -112 c 0
 2 -106 12 -105 36 -105 c 2
 52 -105 l 1
 185 524 l 1
 169 524 l 2
 143 524 134 526 125 533 c 0
 115 543 111 558 114 574 c 0
 118 591 130 608 147 617 c 0
 157 622 167 624 191 624 c 2
 307 624 l 1
 257 392 l 1
 315 434 361 450 424 450 c 0
 563 450 646 354 619 224 c 0
 592 101 470 10 331 10 c 0
 272 10 232 26 188 66 c 1
397 350 m 0
 355 350 320 341 290 321 c 0
 257 300 230 263 223 231 c 0
 208 160 258 110 346 110 c 0
 432 110 505 160 520 230 c 0
 527 263 516 300 491 321 c 0
 469 341 438 350 397 350 c 0
EndSplineSet
EndChar
StartChar: ydieresis
Encoding: 190 255 200
Width: 600
Flags: W
HStem: -205 100<31.8812 165 275 291.098> 337 100<118.01 142 256 311.448 450.831 490> 534 120<283.989 360.076 491.989 568.076>
Fore
436 387 m 0
 444 423 475 437 514 437 c 2
 606 437 l 2
 632 437 641 435 649 428 c 0
 661 418 665 403 661 387 c 0
 655 358 632 340 599 337 c 1
 275 -105 l 1
 280 -105 l 2
 306 -105 315 -107 324 -114 c 0
 334 -124 338 -139 335 -155 c 0
 331 -172 319 -188 302 -198 c 0
 293 -203 280 -205 258 -205 c 2
 43 -205 l 2
 18 -205 8 -203 1 -195 c 1
 -11 -186 -15 -171 -12 -155 c 0
 -8 -138 4 -121 21 -112 c 0
 31 -107 41 -105 65 -105 c 2
 165 -105 l 1
 243 3 l 1
 142 337 l 1
 111 341 97 359 103 387 c 0
 111 422 143 437 180 437 c 2
 270 437 l 2
 296 437 305 435 314 428 c 0
 324 418 329 403 325 387 c 0
 319 356 294 338 256 337 c 1
 322 114 l 1
 490 337 l 1
 449 337 429 355 436 387 c 0
335 654 m 0
 369 654 389 627 382 593 c 0
 375 561 343 534 310 534 c 0
 277 534 255 561 262 594 c 0
 269 627 302 654 335 654 c 0
543 654 m 0
 577 654 597 627 590 593 c 0
 583 561 551 534 518 534 c 0
 485 534 463 561 470 594 c 0
 477 627 510 654 543 654 c 0
EndSplineSet
EndChar
StartChar: uni0E01
Encoding: 191 3585 201
Width: 600
Flags: W
HStem: 0 21G<160 239.211 425 504.24> 395 63<310.785 453.829>
VStem: 488 75<283.399 361.654>
Fore
404 458 m 0
 508 458 563 383 563 311 c 0
 563 302 562 292 560 283 c 10
 500 0 l 25
 425 0 l 25
 485 283 l 18
 487 291 488 299 488 306 c 0
 488 362 440 395 391 395 c 8
 340 395 300 373 261 336 c 1
 298 325 320 312 335 278 c 1
 309 264 285 235 279 209 c 10
 235 0 l 25
 160 0 l 25
 204 209 l 18
 210 234 239 260 275 274 c 1
 261 297 222 309 172 318 c 1
 242 400 311 458 404 458 c 0
EndSplineSet
Comment: "Thai Gogai" 
EndChar
StartChar: uni0E02
Encoding: 192 3586 202
Width: 600
Flags: W
HStem: 0 62<175 218 293 438> 223 50<210.533 269.256> 395 63<305.297 379.979>
VStem: 159 51<273.922 336.477> 277 51<280.156 343.697> 390 77<293.885 386.644>
Fore
159 290 m 0
 159 360 255 458 358 458 c 0
 428 458 467 414 467 360 c 0
 467 252 325 211 314 159 c 2
 293 62 l 1
 438 62 l 1
 520 445 l 1
 595 445 l 1
 500 0 l 1
 162 0 l 1
 175 62 l 1
 218 62 l 1
 241 168 l 2
 253 222 390 268 390 341 c 0
 390 361 375 395 345 395 c 0
 336 395 313 393 291 384 c 1
 314 381 328 359 328 329 c 0
 328 271 274 223 225 223 c 0
 185 223 159 252 159 290 c 0
251 344 m 0
 231 344 210 323 210 300 c 0
 210 284 221 273 236 273 c 0
 261 273 277 301 277 316 c 0
 277 332 266 344 251 344 c 0
EndSplineSet
EndChar
StartChar: uni0E03
Encoding: 193 3587 203
Width: 600
Flags: W
HStem: 0 62<175 218 293 438> 203 50<206.136 260.566> 429 20G<278 331.37 359.333 404 515.718 595>
VStem: 154 51<253.989 315.224> 272 51<259.241 322.113> 390 76<293.949 377.95>
Fore
323 306 m 0
 323 251 271 203 221 203 c 0
 181 203 154 232 154 270 c 0
 154 336 255 440 301 449 c 1
 342 422 l 1
 386 455 l 1
 422 440 466 399 466 350 c 0
 466 258 322 198 312 149 c 2
 293 62 l 1
 438 62 l 1
 520 445 l 1
 595 445 l 1
 500 0 l 1
 162 0 l 1
 175 62 l 1
 218 62 l 1
 239 158 l 2
 250 213 390 264 390 348 c 0
 390 363 386 383 370 388 c 1
 328 363 l 1
 287 386 l 1
 281 385 274 380 266 373 c 1
 257 373 l 1
 296 373 323 344 323 306 c 0
247 323 m 0
 227 323 205 303 205 281 c 0
 205 265 216 253 232 253 c 0
 252 253 272 274 272 296 c 0
 272 311 262 323 247 323 c 0
EndSplineSet
EndChar
StartChar: uni0E04
Encoding: 194 3588 204
Width: 613
Flags: W
HStem: 0 21G<165 244.222 438 517.266> 138 62<324.59 390.34> 268 62<345.035 396.156> 395 63<309.604 463.693>
VStem: 149 73<219.247 323.161> 397 63<206.892 266.599> 501 77<288.39 359.275>
Fore
368 268 m 0
 348 268 324 252 324 227 c 0
 324 212 336 200 354 200 c 0
 373 200 397 217 397 241 c 0
 397 256 385 268 368 268 c 0
460 254 m 0
 460 199 406 138 340 138 c 0
 311 138 291 154 279 180 c 1
 271 147 264 111 259 90 c 2
 240 0 l 1
 165 0 l 1
 184 90 l 2
 185 95 185 99 185 104 c 0
 185 150 149 215 149 267 c 0
 149 359 274 458 409 458 c 0
 502 458 578 409 578 321 c 0
 578 310 577 298 574 286 c 2
 513 0 l 1
 438 0 l 1
 499 286 l 2
 500 292 501 298 501 304 c 0
 501 356 453 395 396 395 c 0
 354 395 222 366 222 254 c 0
 222 232 229 219 235 207 c 1
 258 247 287 287 323 308 c 0
 341 322 361 330 381 330 c 0
 428 330 460 298 460 254 c 0
EndSplineSet
EndChar
StartChar: uni0E05
Encoding: 195 3589 205
Width: 613
Flags: W
HStem: 0 21G<165 244.222 438 517.266> 138 62<324.59 390.34> 268 62<345.035 396.156> 430 20G<293 371 446.146 517.5>
VStem: 149 73<219.247 320.785> 397 63<206.892 266.599> 501 77<288.578 373.037>
Fore
368 268 m 0
 348 268 324 252 324 227 c 0
 324 212 336 200 354 200 c 0
 373 200 397 217 397 241 c 0
 397 256 385 268 368 268 c 0
460 254 m 0
 460 199 406 138 340 138 c 0
 311 138 291 154 279 180 c 1
 271 147 264 111 259 90 c 2
 240 0 l 1
 165 0 l 1
 184 90 l 2
 185 95 185 99 185 104 c 0
 185 150 149 215 149 267 c 0
 149 340 242 429 344 450 c 5
 398 410 l 5
 492 451 l 1
 543 433 578 386 578 324 c 0
 578 312 577 299 574 286 c 2
 513 0 l 1
 438 0 l 1
 499 286 l 2
 500 292 501 299 501 305 c 0
 501 339 484 374 468 385 c 1
 386 347 l 1
 331 388 l 1
 283.288 363.906 222 326 222 254 c 0
 222 232 229 219 235 207 c 1
 258 247 287 287 323 308 c 0
 341 322 361 330 381 330 c 0
 428 330 460 298 460 254 c 0
EndSplineSet
EndChar
StartChar: uni0E06
Encoding: 196 3590 206
Width: 600
Flags: W
HStem: 0 21<133.5 174.5 411.5 504.27> 203 50<122.136 181.185> 429 20G<194 247.37 277.697 324.5 515.703 595>
VStem: 70 51<253.989 315.224> 95 54<45.2382 119.277> 188 51<259.241 322.113> 308 76<322.399 383.468>
Fore
239 306 m 0xee
 239 251 187 203 137 203 c 0
 97 203 70 232 70 270 c 0xf6
 70 336 171 440 217 449 c 1
 258 422 l 1
 308 455 l 1
 341 440 384 413 384 370 c 0
 384 311 292 246 285 213 c 2
 278 181 l 1
 305 181 319 177 361 166 c 0
 429 139 439 68 439 68 c 1
 520 445 l 1
 595 445 l 1
 500 0 l 1
 423 0 l 1
 400 72 323 116 266 124 c 1
 253 61 l 2
 242 8 197 -12 152 -12 c 0
 115 -12 95 13 95 55 c 0
 95 87 105 171 204 185 c 1
 213 226 l 2
 221 263 308 324 308 366 c 0
 308 377 303 384 289 389 c 1
 245 364 l 1
 203 386 l 1
 197 385 190 380 182 373 c 1
 173 373 l 1
 212 373 239 344 239 306 c 0xee
163 323 m 0
 143 323 121 303 121 281 c 0
 121 265 132 253 148 253 c 0
 168 253 188 274 188 296 c 0
 188 311 178 323 163 323 c 0
191 124 m 1
 158 124 149 97 149 71 c 0xee
 149 52 158 45 166 45 c 0
 176 45 179 65 182 80 c 2
 191 124 l 1
EndSplineSet
EndChar
StartChar: uni0E07
Encoding: 197 3591 207
Width: 615
Flags: W
HStem: 0 21G<327.54 474.242> 395 63<418.437 469.808>
VStem: 350 64<332.188 391.238> 470 79<349.094 394.89>
Fore
449 395 m 0
 433 395 414 377 414 357 c 0
 414 343 423 332 436 332 c 0
 452 332 470 348 470 371 c 0
 470 385 462 395 449 395 c 0
350 342 m 0
 350 404 407 458 462 458 c 0
 518 458 549 426 549 383 c 0
 549 377 548 370 547 363 c 2
 470 0 l 1
 344 0 l 1
 158 226 l 1
 210 270 l 1
 383 68 l 1
 409 68 l 1
 454 276 l 1
 444 272 433 269 422 269 c 0
 379 269 350 300 350 342 c 0
EndSplineSet
EndChar
StartChar: uni0E08
Encoding: 198 3592 208
Width: 600
Flags: W
HStem: 0 21G<337 504.272> 134 62<293.382 337.874> 264 62<298.247 352.994> 395 63<288.391 467.046>
VStem: 229 63<197.517 257.326> 354 63<198.933 263.123> 493 76<309.351 368.83>
Fore
229 210 m 0
 229 266 282 326 348 326 c 0
 392 326 417 296 417 245 c 2
 422 62 l 1
 438 62 l 1
 491 309 l 2
 492 315 493 320 493 325 c 0
 493 376 436 395 381 395 c 0
 312 395 260 367 212 330 c 1
 184 369 l 1
 235 413 306 458 392 458 c 0
 495 458 569 410 569 335 c 0
 569 327 568 318 566 309 c 2
 500 0 l 1
 337 0 l 1
 350 146 l 1
 338 139 322 134 307 134 c 0
 260 134 229 167 229 210 c 0
335 264 m 0
 316 264 292 247 292 223 c 0
 292 208 304 196 321 196 c 0
 341 196 354 222 354 240 c 0
 354 254 347 264 335 264 c 0
EndSplineSet
EndChar
StartChar: uni0E09
Encoding: 199 3593 209
Width: 600
Flags: W
HStem: -12 62<427.806 490.844> 259 63<233.38 289.973> 395 63<270.192 448.28>
VStem: 164 63<192.17 252.675> 291 75<211.203 257.934> 475 76<310.351 369.992> 496 64<56.1444 115.969>
Fore
266 259 m 0xf8
 247 259 227 239 227 218 c 0
 227 203 237 192 251 192 c 0
 271 192 291 211 291 233 c 0
 291 248 281 259 266 259 c 0xf8
164 204 m 0
 164 267 221 322 279 322 c 0
 335 322 366 289 366 245 c 0
 366 239 365 232 364 225 c 2
 333 81 l 1
 447 189 l 1
 473 310 l 2
 474 316 475 321 475 326 c 0
 475 375 420 395 365 395 c 0
 297 395 231 366 184 329 c 1
 156 368 l 1
 206 413 291 458 375 458 c 0
 480 458 551 410 551 337 c 0xfc
 551 328 550 319 548 310 c 2
 517 164 l 1
 543 153 560 130 560 101 c 0xfa
 560 50 508 -12 441 -12 c 0
 401 -12 373 15 373 51 c 1
 313 0 l 1
 228 0 l 1
 256 131 l 1
 251 130 244 129 238 129 c 0
 193 129 164 161 164 204 c 0
469 117 m 0
 449 117 427 98 427 76 c 0
 427 61 438 50 455 50 c 0
 473 50 496 66 496 89 c 0xfa
 496 104 486 117 469 117 c 0
EndSplineSet
EndChar
StartChar: uni0E0A
Encoding: 200 3594 210
Width: 607
Flags: W
HStem: 0 62<169 224 299 438> 223 50<210.489 269.215> 395 63<305.698 374.169>
VStem: 159 51<273.843 336.846> 277 51<279.605 343.697> 383 77<291.82 389.838> 486 74<271.926 323.819>
Fore
159 290 m 0
 159 362 257 458 358 458 c 0
 424 458 460 415 460 361 c 0
 460 255 331 211 320 159 c 2
 299 62 l 25
 438 62 l 17
 476 240 l 2
 480 262 486 282 486 303 c 0
 486 319 483 336 471 353 c 1
 529 384 561 418 576 489 c 9
 649 482 l 17
 634 409 608 370 543 350 c 1
 555 332 560 316 560 298 c 0
 560 281 556 262 551 240 c 2
 500 0 l 1
 156 0 l 9
 169 62 l 25
 224 62 l 25
 247 168 l 18
 258 219 383 270 383 342 c 0
 383 363 371 395 345 395 c 0
 336 395 313 393 291 384 c 1
 314 381 328 359 328 329 c 0
 328 268 270 223 223 223 c 0
 184 223 159 252 159 290 c 0
251 344 m 0
 230 344 210 323 210 299 c 0
 210 284 220 273 234 273 c 0
 260 273 277 299 277 316 c 0
 277 332 266 344 251 344 c 0
EndSplineSet
EndChar
StartChar: uni0E0B
Encoding: 201 3595 211
Width: 607
Flags: W
HStem: 0 62<169 224 299 438> 203 50<205.719 263.729> 429 20G<277.5 331.769 356 399>
VStem: 154 51<253.375 314.951> 272 51<259.899 322.113> 384 75<291.535 378.913> 488 72<276.001 328.804>
Fore
323 306 m 0
 323 257 276 203 218 203 c 0
 180 203 154 231 154 269 c 0
 154 336 254 440 301 449 c 1
 341 423 l 1
 381 455 l 1
 417 440 459 399 459 351 c 0
 459 260 327 196 318 149 c 2
 299 62 l 25
 438 62 l 17
 477 246 l 2
 482 268 488 288 488 309 c 0
 488 326 484 343 473 360 c 1
 530 392 562 425 577 496 c 9
 649 480 l 17
 635 413 608 377 537 359 c 1
 555 340 560 322 560 302 c 0
 560 285 557 267 552 246 c 2
 500 0 l 1
 156 0 l 9
 169 62 l 25
 224 62 l 25
 245 158 l 18
 256 212 384 265 384 350 c 0
 384 365 380 382 367 388 c 1
 328 363 l 1
 287 386 l 1
 281 385 274 380 266 373 c 1
 257 373 l 1
 296 373 323 344 323 306 c 0
247 323 m 0
 227 323 205 303 205 280 c 0
 205 265 215 253 229 253 c 0
 250 253 272 273 272 296 c 0
 272 311 262 323 247 323 c 0
EndSplineSet
EndChar
StartChar: uni0E0C
Encoding: 202 3596 212
Width: 600
Flags: W
HStem: -15 51<306.658 351.006> -12 50<140.614 200.896> 94 49<309.882 336> 395 63<244.619 358.053>
VStem: 89 51<38.9341 85.3709> 207 51<43.9424 104.345> 263 43<37.3676 75.4416> 372 75<302.695 382.349>
Fore
324 36 m 0xbf
 336 36 353 47 353 70 c 0
 353 83 347 94 336 94 c 0
 320 94 306 76 306 59 c 0
 306 46 312 36 324 36 c 0xbf
180 105 m 0
 158 105 140 84 140 64 c 0
 140 49 150 38 166 38 c 0x7f
 184 38 207 55 207 78 c 0
 207 94 196 105 180 105 c 0
263 38 m 0
 263 81 290 143 335 143 c 1
 367 292 l 2
 370 306 372 318 372 329 c 0
 372 371 351 395 306 395 c 0
 263 395 238 370 199 338 c 1
 227 328 231 315 240 282 c 1
 221 269 202 241 197 215 c 2
 184 155 l 1
 191 155 l 2
 231 155 258 126 258 89 c 0
 258 41 213 -12 155 -12 c 0x7f
 116 -12 89 16 89 53 c 0
 89 59 90 65 91 71 c 2
 122 215 l 2
 127 239 152 264 183 277 c 1
 171 299 149 312 103 321 c 1
 172 402 228 458 319 458 c 0
 417 458 447 399 447 337 c 0
 447 322 445 307 442 292 c 2
 407 125 l 1
 468 68 l 1
 549 445 l 1
 624 445 l 1
 529 0 l 1
 449 0 l 1
 389 45 l 1
 378 -6 343 -15 317 -15 c 0xbf
 273 -15 263 11 263 38 c 0
EndSplineSet
EndChar
StartChar: uni0E0D
Encoding: 203 3597 213
Width: 600
Flags: W
HStem: -172 45<324.818 399.39> -81 32<321.233 363.429> -12 50<140.614 200.896> 0 62<396 467> 395 63<244.619 361.741>
VStem: 89 51<38.9341 85.3709> 207 51<43.9424 104.345> 282 38<-126.458 -82.5746> 368 37<-118.403 -81.054> 375 76<302.576 380.774>
Fore
339 -127 m 0xcf80
 350 -127 368 -116 368 -99 c 0
 368 -88 358 -81 349 -81 c 0
 336 -81 320 -95 320 -109 c 0
 320 -120 329 -127 339 -127 c 0xcf80
282 -117 m 0
 282 -72 327 -49 356 -49 c 0
 382 -49 405 -66 405 -93 c 0
 405 -103 402 -117 394 -127 c 1
 430 -121 443 -94 457 -58 c 1
 526 -58 l 1
 504 -104 458 -172 368 -172 c 0
 327 -172 282 -157 282 -117 c 0
EndSplineSet
Refer: 310 63247 N 1 0 0 1 0 0 2
Substitution2: "Single Substitution lookup 9" uni0E0D.descless
Substitution2: "Single Substitution lookup 8" uni0E0D.descless
EndChar
StartChar: uni0E0E
Encoding: 204 3598 214
Width: 600
Flags: W
HStem: -170 45<174.187 259.548> -64 50<194.794 261.099> -12 62<119.497 177.254> 114 62<123.975 181.751> 395 63<304.785 452.811>
VStem: 55 64<50.3337 109.713> 111 62<-121.099 -73.4863> 488 75<285.875 362.668>
Fore
55 62 m 0xfd
 55 115 105 176 170 176 c 0
 177 176 183 175 188 173 c 1
 196 214 l 2
 202 239 233 260 269 274 c 1
 255 297 216 309 166 318 c 1
 236 400 305 458 398 458 c 0
 503 458 563 381 563 310 c 0
 563 301 562 293 560 284 c 2
 464 -169 l 1
 389 -169 l 1
 369 -158 341 -137 313 -117 c 1
 291 -147 264 -170 205 -170 c 0
 158 -170 111 -145 111 -104 c 0xfb
 111 -50 183 -14 238 -14 c 0
 257 -14 278 -24 299 -39 c 1
 316 -11 334 16 357 29 c 1
 396 0 l 1
 378 -19 364 -39 352 -60 c 1
 374 -71 393 -83 406 -91 c 1
 486 287 l 2
 488 294 488 301 488 308 c 0
 488 365 435 395 385 395 c 8
 334 395 294 373 255 336 c 1
 292 325 314 312 329 278 c 1
 303 264 277 240 271 214 c 2
 243 82 l 2
 232 30 182 -12 130 -12 c 0
 85 -12 55 20 55 62 c 0xfd
157 114 m 0
 137 114 119 95 119 76 c 0xfd
 119 61 129 50 144 50 c 0
 163 50 182 68 182 89 c 0
 182 104 172 114 157 114 c 0
279 -83 m 1
 260 -72 241 -64 227 -64 c 0
 211 -64 173 -78 173 -98 c 0xfb
 173 -115 194 -125 214 -125 c 0
 240 -125 260 -106 279 -83 c 1
EndSplineSet
EndChar
StartChar: uni0E0F
Encoding: 205 3599 215
Width: 600
Flags: W
HStem: -170 45<117.756 164.771> -63 47<119.796 184.599> -12 62<119.497 157.2> 114 62<123.975 181.751> 395 63<304.785 453.042>
VStem: 55 64<-123.816 -74.7604 50.3337 109.713> 488 76<286.352 362.457>
AnchorPoint: "BelowBase" 455.363 -210 basechar 0
Fore
157 114 m 0
 137 114 119 95 119 76 c 0
 119 61 129 50 144 50 c 0
 163 50 182 68 182 89 c 0
 182 104 172 114 157 114 c 0
55 62 m 0
 55 115 105 176 170 176 c 0
 177 176 183 175 188 173 c 1
 196 214 l 2
 202 239 233 260 269 274 c 1
 255 297 216 309 166 318 c 1
 236 400 305 458 398 458 c 0
 504 458 564 380 564 310 c 0
 564 301 563 293 561 285 c 2
 464 -170 l 1
 389 -170 l 1
 331 -111 l 1
 295 -167 l 1
 270 -156 245 -139 228 -122 c 1
 207 -150 185 -170 130 -170 c 0
 94 -170 57 -145 57 -106 c 0
 57 -52 119 -16 159 -16 c 0
 184 -16 200 -28 216 -35 c 1
 230 -10 250 19 273 32 c 1
 310 2 l 1
 287 -11 270 -39 256 -68 c 1
 267 -75 279 -82 293 -88 c 1
 347 -35 l 1
 405 -93 l 1
 486 287 l 2
 488 294 488 301 488 308 c 0
 488 365 435 395 385 395 c 8
 334 395 294 373 255 336 c 1
 292 325 314 312 329 278 c 1
 303 264 277 240 271 214 c 2
 243 82 l 2
 232 30 182 -12 130 -12 c 0
 85 -12 55 20 55 62 c 0
146 -63 m 0
 123 -63 117 -90 117 -99 c 0
 117 -115 129 -125 145 -125 c 0
 154 -125 175 -114 185 -84 c 1
 174 -76 164 -63 146 -63 c 0
EndSplineSet
EndChar
StartChar: uni0E10
Encoding: 206 3600 216
Width: 600
Flags: W
HStem: -191 45<383 424> -190 38<96.3868 170.583> -134 28<394.246 426.054> -82 38<98.9361 178.694> -44 30<400.689 455.8> 0 21<337 504.257> 85 63<281.686 327.16> 207 63<285.156 341.775> 357 54<506.503 589.282> 396 63<356.178 477.201>
VStem: 44 50<-146.927 -98.3226> 217 64<149.011 202.754> 363 31<-105.355 -48.9855> 456 29<-87.9374 -44.2256>
Fore
147 -82 m 0x7f3c
 103 -82 94 -108 94 -121 c 0
 94 -141 119 -152 136 -152 c 0
 159 -152 175 -128 191 -98 c 1
 178 -88 165 -82 147 -82 c 0x7f3c
419 -106 m 0
 438 -106 456 -88 456 -67 c 0
 456 -54 447 -44 433 -44 c 0
 416 -44 394 -60 394 -82 c 0
 394 -96 404 -106 419 -106 c 0
363 -86 m 0
 363 -54 395 -14 437 -14 c 0
 466 -14 485 -34 485 -61 c 0
 485 -66 485 -70 484 -74 c 2
 459 -191 l 1
 360 -191 l 1xbf3c
 315 -126 l 1
 266 -184 l 1
 244 -172 239 -152 224 -133 c 1
 204 -166 179 -190 132 -190 c 0x7f3c
 90 -190 44 -165 44 -126 c 0
 44 -77 111 -44 159 -44 c 0
 182 -44 200 -49 213 -57 c 1
 228 -33 245 -11 268 1 c 1
 308 -22 l 1
 282 -35 264 -61 249 -88 c 1
 261 -100 263 -113 279 -124 c 1
 328 -66 l 1
 383 -146 l 1
 424 -146 l 1xbf3c
 427 -132 l 1
 422 -133 417 -134 412 -134 c 0
 383 -134 363 -113 363 -86 c 0
EndSplineSet
Refer: 295 63232 N 1 0 0 1 0 0 2
Substitution2: "Single Substitution lookup 9" uni0E10.descless
Substitution2: "Single Substitution lookup 8" uni0E10.descless
EndChar
StartChar: uni0E11
Encoding: 207 3601 217
Width: 600
Flags: W
HStem: 0 21G<155 243.071 425 504.264> 203 50<122.136 181.185> 395 63<463.857 499.429>
VStem: 70 51<253.989 316.296> 188 51<259.241 322.113> 298 75<319.378 376.731> 500 76<340.335 394.354>
Fore
239 306 m 0
 239 251 187 203 137 203 c 0
 97 203 70 232 70 270 c 0
 70 334 168 435 216 443 c 1
 253 412 l 1
 301 451 l 1
 334 437 373 411 373 370 c 0
 373 312 296 265 290 233 c 2
 278 177 l 1
 344 279 l 2
 391 355 438 458 492 458 c 0
 531 458 576 446 576 379 c 0
 576 366 575 350 571 333 c 2
 500 0 l 1
 425 0 l 1
 496 333 l 2
 499 345 500 356 500 365 c 0
 500 384 493 395 479 395 c 0
 469 395 434 310 396 254 c 2
 230 0 l 1
 155 0 l 1
 199 206 l 2
 207 240 298 330 298 366 c 0
 298 372 295 377 284 380 c 1
 240 359 l 1
 199 377 l 1
 188 377 192 375 187 373 c 1
 173 373 l 1
 212 373 239 344 239 306 c 0
163 323 m 0
 143 323 121 303 121 281 c 0
 121 265 132 253 148 253 c 0
 168 253 188 274 188 296 c 0
 188 311 178 323 163 323 c 0
EndSplineSet
EndChar
StartChar: uni0E12
Encoding: 208 3602 218
Width: 600
Flags: W
HStem: -12 48<318.168 363.793> 94 49<321.425 348> 280 58<238.809 300.683> 427 20G<203 259.821 334.537 402 544.718 624>
VStem: 75 78<115.259 325.474> 94 77<93.3051 236.211> 173 57<206.661 271.849> 275 43<24 91.5759> 302 55<213.508 278.755> 385 77<310.328 363.67>
Fore
258 206 m 0xf2c0
 281 206 302 229 302 251 c 0
 302 267 291 280 274 280 c 0
 253 280 230 258 230 234 c 0
 230 218 242 206 258 206 c 0xf2c0
336 36 m 0
 348 36 367 52 367 71 c 0
 367 83 360 94 348 94 c 0
 330 94 318 72 318 58 c 0xf340
 318 46 324 36 336 36 c 0
275 36 m 0
 275 84 304 143 348 143 c 1
 384 310 l 2
 385 314 385 319 385 325 c 0
 385 345 378 373 356 386 c 1
 277 343 l 1
 218 381 l 1
 189 360 153 306 153 248 c 0xfb40
 153 203 171 163 171 120 c 0
 171 111 170 102 168 93 c 1
 169 97 l 1
 232 161 l 1
 196 161 173 190 173 226 c 0
 173 286 231 338 285 338 c 0
 327 338 357 306 357 265 c 0
 357 237 345 212 323 194 c 2
 138 0 l 1
 73 0 l 1
 93 93 l 2
 94 97 94 102 94 107 c 0xf6c0
 94 139 75 176 75 229 c 0xfa40
 75 357 179 435 227 447 c 1
 291 408 l 1
 376 449 l 1
 428 439 462 393 462 339 c 0
 462 329 461 320 459 310 c 2
 420 126 l 1
 470 76 l 1
 549 445 l 1
 624 445 l 1
 529 0 l 1
 449 0 l 1
 402 47 l 1
 391 -4 350 -12 320 -12 c 0
 284 -12 275 12 275 36 c 0
EndSplineSet
EndChar
StartChar: uni0E13
Encoding: 209 3603 219
Width: 600
Flags: W
HStem: -12 50<140.614 200.896 449.424 501.374> 395 63<228.734 340.714>
VStem: 89 51<38.9341 85.3709> 207 51<43.9424 104.345> 354 76<301.984 383.246> 503 50<40.0044 87.973>
Fore
180 105 m 0
 158 105 140 84 140 64 c 0
 140 49 150 38 166 38 c 0
 184 38 207 55 207 78 c 0
 207 94 196 105 180 105 c 0
258 89 m 0
 258 41 213 -12 155 -12 c 0
 116 -12 89 16 89 53 c 0
 89 59 90 65 91 71 c 2
 122 215 l 2
 127 239 152 264 183 277 c 1
 171 299 149 312 103 321 c 1
 171 402 211 458 301 458 c 0
 401 458 430 400 430 338 c 0
 430 321 427 304 424 287 c 2
 379 75 l 1
 455 136 l 1
 521 445 l 1
 596 445 l 1
 527 120 l 1
 543 111 553 94 553 75 c 0
 553 34 509 -12 460 -12 c 0
 428 -12 405 7 405 34 c 1
 363 0 l 1
 288 0 l 1
 349 287 l 2
 352 303 354 317 354 330 c 0
 354 371 335 395 288 395 c 0
 250 395 221 372 195 339 c 1
 224 329 230 316 240 282 c 1
 221 269 202 241 197 215 c 2
 184 155 l 1
 191 155 l 2
 231 155 258 126 258 89 c 0
471 38 m 0
 490 38 503 55 503 68 c 0
 503 79 495 88 482 88 c 0
 469 88 449 76 449 58 c 0
 449 47 459 38 471 38 c 0
EndSplineSet
EndChar
StartChar: uni0E14
Encoding: 210 3604 220
Width: 600
Flags: W
HStem: 0 21G<159 250 425 504.258> 280 58<337.703 398.191> 395 63<312.392 465.586>
VStem: 160 77<118.258 319.76> 181 76<96.3051 239.188> 272 56<202.778 270.705> 400 56<224.986 279.057> 492 77<310.281 369.374>
Fore
272 224 m 0xef
 272 279 324 338 384 338 c 0
 426 338 456 306 456 263 c 0
 456 243 451 217 413 183 c 2
 230 0 l 1
 159 0 l 1
 179 96 l 2
 180 100 181 105 181 110 c 0xef
 181 142 160 179 160 233 c 0
 160 378 305 458 401 458 c 0
 502 458 569 409 569 337 c 0
 569 328 568 319 566 310 c 2
 500 0 l 1
 425 0 l 1
 491 310 l 2
 492 313 492 316 492 320 c 0
 492 349 472 395 388 395 c 0
 317 395 237 334 237 250 c 0xf7
 237 205 257 166 257 123 c 0
 257 114 256 105 254 96 c 1
 255 99 l 1
 322 158 l 1
 292 164 272 190 272 224 c 0xef
356 202 m 0
 376 202 400 222 400 250 c 0
 400 267 389 280 373 280 c 0
 352 280 328 257 328 233 c 0
 328 215 339 202 356 202 c 0
EndSplineSet
EndChar
StartChar: uni0E15
Encoding: 211 3605 221
Width: 600
Flags: W
HStem: 0 21G<159 250 425 504.258> 280 58<337.703 398.191> 429 20G<287 356.707 439.209 509>
VStem: 160 77<118.258 323.743> 181 76<96.3051 239.188> 272 56<202.778 270.705> 400 56<209.903 279.057> 492 77<310.305 358.569>
Fore
272 224 m 0xef
 272 279 324 338 384 338 c 0
 426 338 456 306 456 263 c 0
 456 224 433 200 413 183 c 2
 230 0 l 1
 159 0 l 1
 179 96 l 2
 180 100 181 105 181 110 c 0xef
 181 142 160 179 160 233 c 0
 160 348 249 422 325 449 c 1
 390 408 l 1
 482 451 l 1
 536 431 569 391 569 339 c 0
 569 329 568 320 566 310 c 2
 500 0 l 1
 425 0 l 1
 491 310 l 2
 492 313 492 317 492 321 c 0
 492 341 483 369 459 386 c 1
 376 344 l 1
 314 383 l 1
 282 362 237 312 237 250 c 0xf7
 237 205 257 166 257 123 c 0
 257 114 256 105 254 96 c 1
 255 99 l 1
 322 158 l 1
 292 164 272 190 272 224 c 0xef
356 202 m 0
 376 202 400 222 400 250 c 0
 400 267 389 280 373 280 c 0
 352 280 328 257 328 233 c 0
 328 215 339 202 356 202 c 0
EndSplineSet
EndChar
StartChar: uni0E16
Encoding: 212 3606 222
Width: 600
Flags: W
HStem: -12 62<239.497 296.432> 395 63<307.143 453.463>
VStem: 175 64<50.3337 95.7929> 302 63<54.4269 113.675> 488 76<288.352 362.526>
Fore
277 114 m 0
 257 114 239 95 239 76 c 0
 239 61 249 50 264 50 c 0
 283 50 302 68 302 89 c 0
 302 104 292 114 277 114 c 0
365 102 m 0
 365 49 315 -12 250 -12 c 0
 205 -12 175 20 175 62 c 0
 175 68 176 75 177 82 c 2
 206 217 l 2
 211 241 239 266 271 279 c 1
 258 301 220 313 172 322 c 1
 240 402 307 458 397 458 c 0
 506 458 564 383 564 313 c 0
 564 305 563 296 561 288 c 2
 500 0 l 1
 425 0 l 1
 486 288 l 2
 487 295 488 302 488 308 c 0
 488 363 437 395 384 395 c 0
 337 395 299 374 263 339 c 1
 295 329 315 316 326 283 c 1
 306 270 286 242 281 217 c 2
 272 173 l 1
 277 175 284 176 290 176 c 0
 335 176 365 144 365 102 c 0
EndSplineSet
EndChar
StartChar: uni0E17
Encoding: 213 3607 223
Width: 600
Flags: W
HStem: 0 21G<151 239.175 425 504.235> 395 63<184.397 241.042 460.618 499.117>
VStem: 115 64<332.774 390.248> 242 63<349.741 394.803> 500 77<346.047 394.279>
Fore
217 395 m 0
 197 395 179 376 179 357 c 0
 179 343 189 332 204 332 c 0
 223 332 242 349 242 370 c 0
 242 385 232 395 217 395 c 0
115 343 m 0
 115 399 167 458 230 458 c 0
 275 458 305 426 305 383 c 0
 305 377 304 370 303 363 c 2
 259 153 l 1
 335 270 l 2
 383 350 440 458 493 458 c 0
 532 458 577 447 577 382 c 0
 577 370 575 356 572 340 c 2
 500 0 l 1
 425 0 l 1
 497 340 l 2
 499 350 500 359 500 367 c 0
 500 385 494 395 480 395 c 0
 468 395 425 313 392 252 c 2
 226 0 l 1
 151 0 l 1
 209 272 l 1
 203 270 197 269 190 269 c 0
 145 269 115 301 115 343 c 0
EndSplineSet
EndChar
StartChar: uni0E18
Encoding: 214 3608 224
Width: 600
Flags: W
HStem: 0 62<118 173 248 405> 357 54<475.143 553.964> 396 63<324.772 445.713>
VStem: 105 481<0 380>
Fore
525 411 m 0xd0
 552 411 554 415 565 424 c 1
 586 380 l 1
 573 370 l 2
 560 360 532 357 488 357 c 0xd0
 452 357 439 396 383 396 c 0
 363 396 318 393 266 356 c 1
 320 345 531 301 522 257 c 2
 467 0 l 1
 105 0 l 1
 118 62 l 1
 173 62 l 1
 216 264 l 1
 291 264 l 1
 248 62 l 1
 405 62 l 1
 440 228 l 2
 451 277 220 321 174 330 c 1
 178 350 l 1
 244 423 315 459 397 459 c 0xb0
 484 459 468 411 525 411 c 0xd0
EndSplineSet
EndChar
StartChar: uni0E19
Encoding: 215 3609 225
Width: 614
Flags: W
HStem: -12 62<434.506 501.231> 269 63<178.642 213.163> 395 63<183.289 248.52>
VStem: 115 63<332.2 390.015> 250 64<351.153 393.049> 510 64<58.7208 123.22>
Fore
214 395 m 0
 196 395 178 375 178 357 c 0
 178 343 188 332 201 332 c 0
 222 332 250 346 250 368 c 0
 250 384 235 395 214 395 c 0
115 342 m 0
 115 404 172 458 227 458 c 0
 278 458 314 425 314 381 c 0
 314 375 313 369 312 363 c 2
 249 66 l 1
 454 177 l 1
 511 445 l 1
 586 445 l 1
 528 173 l 1
 556 162 574 137 574 106 c 0
 574 50 519 -12 448 -12 c 0
 400 -12 370 23 370 65 c 0
 370 72 371 78 372 85 c 1
 233 0 l 1
 160 0 l 1
 218 274 l 1
 209 271 198 269 187 269 c 0
 144 269 115 300 115 342 c 0
478 125 m 0
 455 125 433 102 433 80 c 0
 433 63 445 50 462 50 c 0
 484 50 510 69 510 95 c 0
 510 112 497 125 478 125 c 0
EndSplineSet
EndChar
StartChar: uni0E1A
Encoding: 216 3610 226
Width: 600
Flags: W
HStem: 0 62<127 164 239 438> 395 63<184.397 241.042>
VStem: 115 64<332.774 390.248> 242 63<349.741 394.803>
Fore
217 395 m 0
 197 395 179 376 179 357 c 0
 179 343 189 332 204 332 c 0
 223 332 242 349 242 370 c 0
 242 385 232 395 217 395 c 0
115 343 m 0
 115 399 167 458 230 458 c 0
 275 458 305 426 305 383 c 0
 305 377 304 370 303 363 c 2
 239 62 l 1
 438 62 l 1
 520 445 l 1
 595 445 l 1
 500 0 l 1
 114 0 l 1
 127 62 l 1
 164 62 l 1
 209 272 l 1
 203 270 197 269 190 269 c 0
 145 269 115 301 115 343 c 0
EndSplineSet
EndChar
StartChar: uni0E1B
Encoding: 217 3611 227
Width: 600
Flags: W
HStem: 0 62<127 164 239 438> 395 63<184.397 241.042>
VStem: 115 64<332.774 390.248> 242 63<349.741 394.803>
AnchorPoint: "AboveBase" 531.278 500 basechar 0
Fore
217 395 m 0
 197 395 179 376 179 357 c 0
 179 343 189 332 204 332 c 0
 223 332 242 349 242 370 c 0
 242 385 232 395 217 395 c 0
115 343 m 0
 115 399 167 458 230 458 c 0
 275 458 305 426 305 383 c 0
 305 377 304 370 303 363 c 2
 239 62 l 1
 438 62 l 1
 555 610 l 1
 630 610 l 1
 500 0 l 1
 114 0 l 1
 127 62 l 1
 164 62 l 1
 209 272 l 1
 203 270 197 269 190 269 c 0
 145 269 115 301 115 343 c 0
EndSplineSet
EndChar
StartChar: uni0E1C
Encoding: 218 3612 228
Width: 600
Flags: W
HStem: 0 21G<104 229.528 379.286 504.27> 269 63<243.248 301.902> 395 63<248.263 305.042>
VStem: 306 63<336.756 394.803>
Fore
281 395 m 0
 261 395 243 376 243 357 c 0
 243 343 253 332 268 332 c 0
 287 332 306 349 306 370 c 0
 306 385 296 395 281 395 c 0
369 383 m 0
 369 323 313 269 254 269 c 0
 247 269 241 270 237 272 c 1
 196 81 l 1
 322 239 l 1
 392 239 l 1
 439 68 l 1
 520 445 l 1
 595 445 l 1
 500 0 l 1
 385 0 l 1
 339 161 l 1
 214 0 l 1
 104 0 l 1
 181 363 l 2
 192 416 242 458 294 458 c 0
 339 458 369 426 369 383 c 0
EndSplineSet
EndChar
StartChar: uni0E1D
Encoding: 219 3613 229
Width: 600
Flags: W
HStem: 0 21G<104 229.528 379.286 504.262> 269 63<243.248 301.902> 395 63<248.263 305.042>
VStem: 306 63<336.756 394.803>
AnchorPoint: "AboveBase" 531.278 500 basechar 0
Fore
281 395 m 0
 261 395 243 376 243 357 c 0
 243 343 253 332 268 332 c 0
 287 332 306 349 306 370 c 0
 306 385 296 395 281 395 c 0
369 383 m 0
 369 323 313 269 254 269 c 0
 247 269 241 270 237 272 c 1
 196 81 l 1
 322 239 l 1
 392 239 l 1
 439 68 l 1
 555 610 l 1
 630 610 l 1
 500 0 l 1
 385 0 l 1
 339 161 l 1
 214 0 l 1
 104 0 l 1
 181 363 l 2
 192 416 242 458 294 458 c 0
 339 458 369 426 369 383 c 0
EndSplineSet
EndChar
StartChar: uni0E1E
Encoding: 220 3614 230
Width: 600
Flags: W
HStem: 0 21G<151 258.251 392.87 504.27> 395 63<184.397 241.042>
VStem: 115 64<332.774 390.248> 242 63<349.741 394.803> 393 61<137 307>
Fore
217 395 m 0
 197 395 179 376 179 357 c 0
 179 343 189 332 204 332 c 0
 223 332 242 349 242 370 c 0
 242 385 232 395 217 395 c 0
115 343 m 0
 115 399 167 458 230 458 c 0
 275 458 305 426 305 383 c 0
 305 377 304 370 303 363 c 2
 255 137 l 1
 390 445 l 1
 451 445 l 1
 454 137 l 1
 520 445 l 1
 595 445 l 1
 500 0 l 1
 393 0 l 1
 391 307 l 1
 249 0 l 1
 151 0 l 1
 209 272 l 1
 203 270 197 269 190 269 c 0
 145 269 115 301 115 343 c 0
EndSplineSet
EndChar
StartChar: uni0E1F
Encoding: 221 3615 231
Width: 600
Flags: W
HStem: 0 21G<151 258.251 392.87 504.262> 395 63<184.397 241.042>
VStem: 115 64<332.774 390.248> 242 63<349.741 394.803> 393 61<137 307>
AnchorPoint: "AboveBase" 531.278 500 basechar 0
Fore
217 395 m 0
 197 395 179 376 179 357 c 0
 179 343 189 332 204 332 c 0
 223 332 242 349 242 370 c 0
 242 385 232 395 217 395 c 0
115 343 m 0
 115 399 167 458 230 458 c 0
 275 458 305 426 305 383 c 0
 305 377 304 370 303 363 c 2
 255 137 l 1
 390 445 l 1
 451 445 l 1
 454 137 l 1
 555 610 l 1
 630 610 l 1
 500 0 l 1
 393 0 l 1
 391 307 l 1
 249 0 l 1
 151 0 l 1
 209 272 l 1
 203 270 197 269 190 269 c 0
 145 269 115 301 115 343 c 0
EndSplineSet
EndChar
StartChar: uni0E20
Encoding: 222 3616 232
Width: 600
Flags: W
HStem: -12 62<119.497 177.254> 114 62<123.975 181.751> 395 63<304.785 453.042>
VStem: 55 64<50.3337 109.713> 488 76<286.352 362.457>
Fore
55 62 m 0
 55 115 105 176 170 176 c 0
 177 176 183 176 188 173 c 1
 196 214 l 2
 202 239 233 260 269 274 c 1
 255 297 216 309 166 318 c 1
 236 400 305 458 398 458 c 0
 504 458 564 380 564 310 c 0
 564 301 563 293 561 285 c 2
 500 0 l 1
 425 0 l 1
 486 287 l 2
 488 294 488 301 488 308 c 0
 488 365 435 395 385 395 c 8
 334 395 294 373 255 336 c 1
 292 325 314 312 329 278 c 1
 303 264 277 240 271 214 c 2
 243 81 l 2
 232 30 182 -12 130 -12 c 0
 85 -12 55 20 55 62 c 0
157 114 m 0
 137 114 119 95 119 76 c 0
 119 61 129 50 144 50 c 0
 163 50 182 68 182 89 c 0
 182 104 172 114 157 114 c 0
EndSplineSet
EndChar
StartChar: uni0E21
Encoding: 223 3617 233
Width: 600
Flags: W
HStem: -12 57<135.702 165.225> 395 63<184.397 241.042>
VStem: 81 54<45.239 119.27> 115 64<332.774 390.248> 242 63<349.741 394.803>
Fore
115 343 m 0xd8
 115 399 167 458 230 458 c 0
 275 458 305 426 305 383 c 0
 305 377 304 370 303 363 c 2
 265 182 l 1
 303 182 316 179 365 168 c 1
 430 142 439 68 439 68 c 1
 520 445 l 1
 595 445 l 1
 500 0 l 1
 423 0 l 1
 395 96 287 121 253 125 c 1
 239 61 l 2
 228 8 183 -12 138 -12 c 0
 101 -12 81 13 81 55 c 0xe8
 81 87 91 171 190 185 c 1
 209 272 l 1
 203 270 197 269 190 269 c 0
 145 269 115 301 115 343 c 0xd8
177 124 m 1
 144 124 135 97 135 70 c 0
 135 54 142 45 152 45 c 0
 162 45 165 65 168 80 c 2
 177 124 l 1
217 395 m 0
 197 395 179 376 179 357 c 0xd8
 179 343 189 332 204 332 c 0
 223 332 242 349 242 370 c 0
 242 385 232 395 217 395 c 0
EndSplineSet
EndChar
StartChar: uni0E22
Encoding: 224 3618 234
Width: 600
Flags: W
HStem: 0 58<117 171> 0 62<247 438> 192 54<304.968 377> 269 63<263.424 312.281> 395 63<259.749 316.051>
VStem: 182 73<273.1 373.957> 317 64<336.382 394.803>
Fore
292 395 m 0x3e
 273 395 255 376 255 357 c 0
 255 343 265 332 279 332 c 0
 298 332 317 349 317 370 c 0
 317 385 307 395 292 395 c 0x3e
381 383 m 0
 381 327 328 269 265 269 c 2
 263 269 l 1
 275 248 306 246 388 246 c 1
 377 192 l 1
 275 192 269 165 262 132 c 2
 247 62 l 1
 438 62 l 1
 520 445 l 1
 595 445 l 1
 500 0 l 1
 105 0 l 1x7e
 117 58 l 1
 171 58 l 1xbe
 188 135 l 2
 197 179 205 194 241 215 c 1
 197 215 182 245 182 289 c 0
 182 311 186 336 192 363 c 0
 203 416 253 458 305 458 c 0
 350 458 381 426 381 383 c 0
EndSplineSet
EndChar
StartChar: uni0E23
Encoding: 225 3619 235
Width: 605
Flags: W
HStem: -12 62<318.682 372.453> 114 62<322.818 375.651> 357 63<480.649 562.358> 396 63<322.249 459.521>
VStem: 255 63<50.6996 109.711>
Fore
354 114 m 0xc8
 338 114 318 96 318 76 c 0
 318 61 328 50 341 50 c 0
 355 50 376 64 376 88 c 0
 376 103 367 114 354 114 c 0xc8
255 61 m 0
 255 122 311 176 367 176 c 0
 378 176 388 174 396 170 c 1
 410 236 l 1
 410 238 411 240 411 241 c 0
 411 257 393 265 344 281 c 2
 294 307 174 329 174 329 c 1
 178 350 l 1
 243 423 313 459 394 459 c 0xd8
 496 459 481 420 548 420 c 0
 558 420 563 420 582 431 c 1
 602 388 l 1
 589 375 l 2
 573 360 555 357 514 357 c 0xe8
 469 357 450 396 380 396 c 0xd8
 362 396 324 394 280 366 c 1
 292 363 331 354 361 348 c 0
 407 336 499 300 492 266 c 2
 452 80 l 2
 441 29 392 -12 327 -12 c 0
 284 -12 255 19 255 61 c 0
EndSplineSet
EndChar
StartChar: uni0E24
Encoding: 226 3620 236
Width: 600
Flags: W
HStem: -12 62<239.497 296.432> 395 63<307.143 453.463>
VStem: 175 64<50.3337 95.7929> 302 63<54.4269 113.675> 488 76<288.352 362.526>
Fore
277 114 m 0
 257 114 239 95 239 76 c 0
 239 61 249 50 264 50 c 0
 283 50 302 68 302 89 c 0
 302 104 292 114 277 114 c 0
365 102 m 0
 365 49 315 -12 250 -12 c 0
 205 -12 175 20 175 62 c 0
 175 68 176 75 177 82 c 2
 206 217 l 2
 211 241 239 266 271 279 c 1
 258 301 220 313 172 322 c 1
 240 402 307 458 397 458 c 0
 506 458 564 383 564 313 c 0
 564 305 563 296 561 288 c 2
 465 -165 l 1
 390 -165 l 1
 486 288 l 2
 487 295 488 302 488 308 c 0
 488 363 437 395 384 395 c 0
 337 395 299 374 263 339 c 1
 295 329 315 316 326 283 c 1
 306 270 286 242 281 217 c 2
 272 173 l 1
 277 175 284 176 290 176 c 0
 335 176 365 144 365 102 c 0
EndSplineSet
EndChar
StartChar: uni0E25
Encoding: 227 3621 237
Width: 608
Flags: W
HStem: -12 62<238.682 291.129> 114 62<272.414 316.5> 252 62<293.547 376.071> 395 63<290.858 466.662>
VStem: 175 63<50.6996 95.0868> 296 64<53.8661 109.041> 493 76<312.328 370.142>
Fore
280 114 m 0
 260 114 238 97 238 76 c 0
 238 61 248 50 261 50 c 0
 279 50 296 68 296 92 c 0
 296 105 290 114 280 114 c 0
360 105 m 0
 360 41 303 -12 247 -12 c 0
 204 -12 175 19 175 61 c 0
 175 68 176 75 177 82 c 2
 200 189 l 2
 215 258 266 314 362 314 c 0
 435 314 471 216 471 216 c 1
 491 312 l 2
 492 317 493 322 493 327 c 0
 493 376 434 395 379 395 c 0
 310 395 260 366 212 328 c 1
 184 367 l 1
 235 412 306 458 392 458 c 0
 495 458 569 411 569 338 c 0
 569 329 568 321 566 312 c 2
 500 0 l 1
 425 0 l 1
 425 0 411 252 349 252 c 0
 311 252 286 240 275 189 c 2
 272 173 l 1
 280 175 288 176 298 176 c 0
 335 176 360 146 360 105 c 0
EndSplineSet
EndChar
StartChar: uni0E26
Encoding: 228 3622 238
Width: 600
Flags: W
HStem: -12 62<119.497 177.355> 114 62<123.975 181.751> 395 63<304.785 453.042>
VStem: 55 64<50.3337 109.713> 488 76<286.352 362.457>
Fore
55 62 m 0
 55 115 105 176 170 176 c 0
 177 176 183 176 188 173 c 1
 196 214 l 2
 202 239 233 260 269 274 c 1
 255 297 216 309 166 318 c 1
 236 400 305 458 398 458 c 0
 504 458 564 380 564 310 c 0
 564 301 563 293 561 285 c 2
 465 -165 l 1
 390 -165 l 1
 486 287 l 2
 488 294 488 301 488 308 c 0
 488 365 435 395 385 395 c 8
 334 395 294 373 255 336 c 1
 292 325 314 312 329 278 c 1
 303 264 277 240 271 214 c 2
 243 82 l 2
 233 31 182 -12 130 -12 c 0
 85 -12 55 20 55 62 c 0
157 114 m 0
 137 114 119 95 119 76 c 0
 119 61 129 50 144 50 c 0
 163 50 182 68 182 89 c 0
 182 104 172 114 157 114 c 0
EndSplineSet
EndChar
StartChar: uni0E27
Encoding: 229 3623 239
Width: 615
Flags: W
HStem: -12 62<398.682 450.76> 114 62<402.818 455.715> 395 63<291.474 470.647>
VStem: 335 63<50.6996 109.711> 506 76<303.352 364.152>
Fore
434 114 m 0
 418 114 398 96 398 76 c 0
 398 61 408 50 421 50 c 0
 438 50 456 67 456 90 c 0
 456 104 447 114 434 114 c 0
335 61 m 0
 335 122 391 176 447 176 c 0
 458 176 468 174 476 170 c 1
 504 303 l 2
 505 309 506 315 506 320 c 0
 506 374 439 395 376 395 c 0
 309 395 258 362 210 320 c 1
 183 361 l 1
 233 409 303 458 387 458 c 0
 501 458 582 408 582 329 c 0
 582 321 581 312 579 303 c 2
 532 82 l 2
 521 30 472 -12 407 -12 c 0
 364 -12 335 19 335 61 c 0
EndSplineSet
EndChar
StartChar: uni0E28
Encoding: 230 3624 240
Width: 614
Flags: W
HStem: 0 21G<161 240.255 441 520.236> 136 66<326.349 386.354> 266 66<331.278 391.7> 398 64<306.751 463.831>
VStem: 150 73<221.509 321.069> 392 67<207.165 265.472>
Fore
150 267 m 0
 150 364 277 462 408 462 c 0
 452 462 493 451 524 431 c 1
 541 454 548 467 553 488 c 1
 624 488 l 1
 615 449 596 421 565 387 c 1
 576 369 581 348 581 325 c 0
 581 313 580 301 577 288 c 2
 516 0 l 1
 441 0 l 1
 502 288 l 2
 503 294 504 300 504 305 c 0
 504 314 502 322 500 330 c 1
 482 317 465 305 448 296 c 1
 455 284 459 269 459 254 c 0
 459 200 406 136 338 136 c 0
 313 136 291 146 276 161 c 1
 267 135 259 110 256 94 c 2
 236 0 l 1
 161 0 l 1
 181 94 l 2
 182 98 182 103 182 107 c 0
 182 150 150 214 150 267 c 0
366 266 m 0
 342 266 326 244 326 227 c 0
 326 212 336 202 352 202 c 0
 376 202 392 224 392 241 c 0
 392 256 382 266 366 266 c 0
231 215 m 1
 264 275 316 332 380 332 c 0
 394 332 402 330 411 326 c 1
 430 339 450 355 469 373 c 1
 449 388 424 398 395 398 c 0
 318 398 223 346 223 252 c 0
 223 236 226 225 231 215 c 1
EndSplineSet
EndChar
StartChar: uni0E29
Encoding: 231 3625 241
Width: 610
Flags: W
HStem: 0 62<118 173 248 441> 154 56<343.16 413.816> 275 50<168.626 214.78> 290 50<350.356 420.907> 405 50<176.528 246.391>
VStem: 116 51<326.689 394.985> 249 65<353.197 402.533> 290 51<212.596 248.26> 423 51<237.709 288.011>
Fore
216 405 m 0xee80
 191 405 167 382 167 356 c 0
 167 338 180 325 199 325 c 0
 220 325 249 344 249 372 c 0
 249 391 235 405 216 405 c 0xee80
116 345 m 0
 116 404 171 455 227 455 c 0
 272 455 314 422 314 379 c 0xee80
 314 374 314 370 313 365 c 2
 248 62 l 1
 441 62 l 1
 463 164 l 1
 440 157 419 154 400 154 c 0
 351 154 290 169 290 229 c 0
 290 289 345 340 401 340 c 0xdd80
 444 340 474 310 474 269 c 0
 474 250 469 238 466 230 c 1
 470 231 474 233 478 234 c 1
 523 445 l 1
 598 445 l 1
 566 298 l 1
 584 315 597 330 601 333 c 1
 636 285 l 1
 605 250 576 224 546 204 c 1
 503 0 l 1
 105 0 l 1
 118 62 l 1
 173 62 l 1
 220 280 l 1
 209 277 198 275 188 275 c 0
 145 275 116 305 116 345 c 0
391 290 m 0xdd80
 369 290 341 269 341 242 c 0
 341 224 355 210 374 210 c 0
 401 210 423 235 423 259 c 0
 423 277 410 290 391 290 c 0xdd80
EndSplineSet
EndChar
StartChar: uni0E2A
Encoding: 232 3626 242
Width: 604
Flags: W
HStem: -18 66<234.733 294.848> 112 66<265.382 299.276> 250 66<285.907 376.769> 398 64<290.993 436.512>
VStem: 168 66<48.9712 93.5259> 300 67<53.3551 110.929>
Fore
367 100 m 0
 367 41 310 -18 246 -18 c 0
 199 -18 168 15 168 60 c 0
 168 66 169 73 170 80 c 2
 192 184 l 2
 208 257 262 316 357 316 c 0
 365 316 373 315 380 313 c 1
 405 328 434 353 461 380 c 1
 437 392 406 398 375 398 c 0
 308 398 260 361 208 312 c 1
 178 363 l 1
 240 424 312 462 388 462 c 0
 436 462 478 452 510 435 c 1
 531 462 540 469 544 488 c 1
 615 488 l 1
 608 456 589 433 556 396 c 1
 568 378 575 357 575 334 c 0
 575 325 574 316 572 306 c 2
 507 0 l 1
 432 0 l 1
 429 35 411 250 343 250 c 0
 294 250 278 234 265 175 c 1
 273 177 280 178 288 178 c 0
 335 178 367 144 367 100 c 0
274 112 m 0
 250 112 234 90 234 73 c 0
 234 58 244 48 260 48 c 0
 284 48 300 70 300 87 c 0
 300 102 290 112 274 112 c 0
496 340 m 1
 471 319 445 301 422 288 c 1
 449 262 466 226 475 202 c 1
 497 306 l 2
 498 311 499 317 499 321 c 0
 499 328 498 334 496 340 c 1
EndSplineSet
EndChar
StartChar: uni0E2B
Encoding: 233 3627 243
Width: 600
Flags: W
HStem: 0 21G<151 244.303 425 504.265> 395 63<184.397 241.042 458.349 516.431>
VStem: 115 64<332.774 390.248> 242 63<349.741 394.803> 390 64<332.286 389.996> 477 71<221.744 267.745> 517 63<336.256 394.315>
Fore
580 382 m 0xfa
 580 341 550 311 529 297 c 1
 543 281 548 259 548 238 c 0
 548 228 547 219 545 211 c 2
 500 0 l 1
 425 0 l 1
 470 211 l 2
 474 230 477 247 477 258 c 0xfc
 477 264 476 269 474 271 c 1
 226 0 l 1
 151 0 l 1
 209 272 l 1
 203 270 197 269 190 269 c 0
 145 269 115 301 115 343 c 0
 115 399 167 458 230 458 c 0
 275 458 305 426 305 383 c 0
 305 377 304 370 303 363 c 2
 250 112 l 1
 417 292 l 1
 401 305 390 325 390 348 c 0
 390 399 444 458 504 458 c 0
 548 458 580 425 580 382 c 0xfa
492 395 m 0
 472 395 454 376 454 357 c 0
 454 343 464 332 479 332 c 0
 498 332 517 349 517 370 c 0xfa
 517 385 507 395 492 395 c 0
217 395 m 0
 197 395 179 376 179 357 c 0
 179 343 189 332 204 332 c 0
 223 332 242 349 242 370 c 0
 242 385 232 395 217 395 c 0
EndSplineSet
EndChar
StartChar: uni0E2C
Encoding: 234 3628 244
Width: 618
Flags: W
HStem: 0 21G<152 261.32 407.223 512.26> 264 64<174.764 207.958> 394 64<179.863 238.745> 542 66<505.11 539.961>
VStem: 107 67<329.101 388.541> 240 67<347.139 393.391> 396 61<309 447> 432 67<504.943 541.429> 542 78<517.255 571>
AnchorPoint: "AboveBase" 426.278 500 basechar 0
Fore
525 542 m 0xfd80
 517 542 499 538 499 523 c 0
 499 510 509 503 539 503 c 1
 541 513 542 520 542 526 c 0
 542 539 537 542 525 542 c 0xfd80
214 394 m 0
 192 394 174 373 174 354 c 0
 174 339 184 328 200 328 c 0
 222 328 240 349 240 368 c 0
 240 383 230 394 214 394 c 0
432 514 m 0
 432 570 505 608 539 608 c 0
 580 608 620 597 620 545 c 0
 620 537 619 527 617 517 c 1
 639 530 665 566 684 603 c 1
 719 549 l 1
 702 525 664 468 603 446 c 1
 508 0 l 1
 408 0 l 1
 396 309 l 1
 252 0 l 1
 152 0 l 1
 209 266 l 1
 201 265 194 264 186 264 c 0
 139 264 107 296 107 340 c 0
 107 398 161 458 227 458 c 0
 274 458 307 425 307 381 c 0
 307 374 306 368 305 361 c 2
 263 166 l 1
 393 447 l 1
 457 447 l 1xfe80
 467 166 l 1
 526 440 l 1
 479 440 432 468 432 514 c 0
EndSplineSet
EndChar
